SplineFontDB: 3.2
FontName: esportIcons
FullName: esportIcons
FamilyName: esportIcons
Weight: Book
Copyright: Copyright (c) 2023, kanan
Version: 001.000
ItalicAngle: 0
UnderlinePosition: -98
UnderlineWidth: 51
Ascent: 1024
Descent: 0
InvalidEm: 0
sfntRevision: 0x00010000
LayerCount: 2
Layer: 0 1 "Back" 1
Layer: 1 1 "Fore" 0
XUID: [1021 166 -1011259865 10650]
StyleMap: 0x0000
FSType: 0
OS2Version: 4
OS2_WeightWidthSlopeOnly: 0
OS2_UseTypoMetrics: 1
CreationTime: 1701143167
ModificationTime: 1701338083
PfmFamily: 17
TTFWeight: 400
TTFWidth: 5
LineGap: 92
VLineGap: 0
Panose: 2 0 5 9 0 0 0 0 0 0
OS2TypoAscent: 1024
OS2TypoAOffset: 0
OS2TypoDescent: 0
OS2TypoDOffset: 0
OS2TypoLinegap: 92
OS2WinAscent: 977
OS2WinAOffset: 0
OS2WinDescent: 0
OS2WinDOffset: 0
HheadAscent: 977
HheadAOffset: 0
HheadDescent: 0
HheadDOffset: 0
OS2SubXSize: 665
OS2SubYSize: 716
OS2SubXOff: 0
OS2SubYOff: 143
OS2SupXSize: 665
OS2SupYSize: 716
OS2SupXOff: 0
OS2SupYOff: 491
OS2StrikeYSize: 51
OS2StrikeYPos: 265
OS2Vendor: 'PfEd'
OS2CodePages: 00000001.00000000
OS2UnicodeRanges: 00000000.10000000.00000000.00000000
MarkAttachClasses: 1
DEI: 91125
ShortTable: cvt  2
  34
  648
EndShort
ShortTable: maxp 16
  1
  0
  3
  8
  2
  0
  0
  2
  0
  1
  1
  0
  64
  46
  0
  0
EndShort
LangName: 1033 "" "" "Regular" "FontForge 2.0 : esportIcons : 29-11-2023" "" "Version 001.000"
GaspTable: 1 65535 2 0
Encoding: UnicodeBmp
UnicodeInterp: none
NameList: AGL For New Fonts
DisplaySize: -48
AntiAlias: 1
FitToEm: 0
BeginChars: 65539 81

StartChar: .notdef
Encoding: 65536 -1 0
Width: 1024
GlyphClass: 1
Flags: W
LayerCount: 2
Fore
SplineSet
34 0 m 1,0,-1
 34 682 l 1,1,-1
 306 682 l 1,2,-1
 306 0 l 1,3,-1
 34 0 l 1,0,-1
68 34 m 1,4,-1
 272 34 l 1,5,-1
 272 648 l 1,6,-1
 68 648 l 1,7,-1
 68 34 l 1,4,-1
EndSplineSet
EndChar

StartChar: uniE000
Encoding: 57344 57344 3
Width: 1024
Flags: H
LayerCount: 2
Fore
SplineSet
312.9296875 842.469726562 m 2
 551.440429688 842.469726562 l 2
 611.188647524 841.694778177 611.188647524 841.694778177 650.919921875 799.009765625 c 0
 661.795697312 787.523077065 661.795697312 787.523077065 673.719726562 767.9296875 c 2
 676.33984375 763.8203125 l 2
 689.150418619 743.758699445 689.150418619 743.758699445 700.759765625 722.150390625 c 1
 747.987944575 719.726792354 747.987944575 719.726792354 783.959960938 692.379882812 c 2
 784.610351562 691.889648438 l 1
 785.48046875 691.150390625 l 2
 792.444315659 685.228413191 792.444315659 685.228413191 796.26953125 681.599609375 c 0
 798.391793481 679.873556943 798.391793481 679.873556943 800.450195312 677.669921875 c 2
 801.150390625 676.91015625 l 1
 801.540039062 676.490234375 l 2
 813.961247897 663.781195113 813.961247897 663.781195113 827.469726562 642.23046875 c 2
 830.459960938 637.669921875 l 2
 856.450525829 598.169100464 856.450525829 598.169100464 882.059570312 544.830078125 c 0
 906.597743421 492.799199197 906.597743421 492.799199197 920.9296875 445.870117188 c 0
 928.413925071 423.380051768 928.413925071 423.380051768 934.870117188 393.5703125 c 2
 934.940429688 393.26953125 l 2
 936.330781094 386.511440628 936.330781094 386.511440628 938.299804688 372.280273438 c 2
 938.299804688 372.209960938 l 2
 939.061737086 366.816122878 939.061737086 366.816122878 939.299804688 365.259765625 c 0
 940.3203125 357 l 2
 943.192963991 335.813703586 943.192963991 335.813703586 940.98046875 309.33984375 c 0
 939.135543681 260.85142848 939.135543681 260.85142848 913.91015625 227.900390625 c 0
 891.71155325 198.850839458 891.71155325 198.850839458 857.01953125 189.01953125 c 0
 835.180532836 182.51953125 835.180532836 182.51953125 812.690429688 182.51953125 c 0
 799.884817642 182.51953125 799.884817642 182.51953125 785.16015625 185.190429688 c 0
 756.911003749 190.081099435 756.911003749 190.081099435 727.9296875 209.120117188 c 0
 727.370117188 209.509765625 l 2
 709.235663945 222.032056123 709.235663945 222.032056123 680.169921875 250.349609375 c 2
 676.620117188 253.809570312 l 1
 676.23046875 254.190429688 l 1
 663.650390625 266.879882812 l 2
 640.202777592 291.16901167 640.202777592 291.16901167 623.389648438 302.959960938 c 0
 603.607245116 316.849526927 603.607245116 316.849526927 585.580078125 320.75 c 2
 585.150390625 320.83984375 l 2
 575.041234404 323.169921875 575.041234404 323.169921875 561.41015625 323.169921875 c 2
 559.129882812 323.169921875 l 2
 557.5 323.169921875 557.5 323.169921875 552.51953125 323.08984375 c 0
 539.246293717 322.868369805 539.246293717 322.868369805 532.549804688 323.190429688 c 0
 515.149687674 323.539269243 515.149687674 323.539269243 494.469726562 312.530273438 c 2
 494.389648438 312.490234375 l 2
 474.275929862 301.871648918 474.275929862 301.871648918 448.9296875 277.25 c 2
 443.639648438 272.259765625 l 1
 438.099609375 266.73046875 l 2
 411.910827662 241.273582732 411.910827662 241.273582732 397.26953125 228.940429688 c 0
 360.143931245 198.256312768 360.143931245 198.256312768 322.23046875 190.25 c 0
 321.5703125 190.120117188 l 2
 295.530497127 185.221523116 295.530497127 185.221523116 272.150390625 188.580078125 c 0
 270.969726562 188.76953125 l 1
 269.389648438 189.059570312 l 2
 248.31522959 192.93431208 248.31522959 192.93431208 235.870117188 197.870117188 c 0
 202.576405797 210.838811881 202.576405797 210.838811881 183.169921875 242.169921875 c 0
 171.598737095 260.494185609 171.598737095 260.494185609 166.0703125 286.290039062 c 2
 166.01953125 286.530273438 l 2
 163.781367016 297.391781381 163.781367016 297.391781381 162.889648438 308.469726562 c 0
 162.18959408 312.622345301 162.18959408 312.622345301 162.219726562 317.190429688 c 0
 161.754985561 328.162568592 161.754985561 328.162568592 162.709960938 348.809570312 c 0
 162.75 349.469726562 l 2
 163.052003231 353.784500936 163.052003231 353.784500936 163.419921875 357.75 c 0
 161.285692919 358.131006006 161.285692919 358.131006006 159.25 358.809570312 c 0
 158.860351562 358.9296875 l 2
 158.408695376 359.062984311 158.408695376 359.062984311 157.150390625 359.469726562 c 0
 156.537500951 359.66863271 156.537500951 359.66863271 155.91015625 359.900390625 c 0
 153.703540927 360.440259379 153.703540927 360.440259379 151.360351562 361.330078125 c 0
 151.198884218 361.391239998 151.198884218 361.391239998 149.969726562 361.889648438 c 2
 149.139648438 362.219726562 l 2
 118.681920049 374.398142902 118.681920049 374.398142902 101.040039062 403.700195312 c 0
 90.7261923358 420.517387901 90.7261923358 420.517387901 85.7900390625 443.959960938 c 0
 80.882032638 464.889617552 80.882032638 464.889617552 82.66015625 500.580078125 c 2
 82.7099609375 501.580078125 l 2
 84.2128114535 524.373796435 84.2128114535 524.373796435 89.3603515625 547.299804688 c 0
 94.9268002541 573.419685563 94.9268002541 573.419685563 104.940429688 604.169921875 c 0
 117.768408975 642.661903683 117.768408975 642.661903683 135 680.200195312 c 0
 151.288027767 715.284472005 151.288027767 715.284472005 171.25 748.98046875 c 0
 188.407369183 777.88762333 188.407369183 777.88762333 204.830078125 798.4296875 c 2
 205.1796875 798.870117188 l 1
 205.549804688 799.299804688 l 2
 220.928196525 817.113267989 220.928196525 817.113267989 246.650390625 829.219726562 c 0
 276.060008429 843.147552056 276.060008429 843.147552056 312.9296875 842.469726562 c 2
625.76953125 731.51953125 m 0
 625.73046875 731.580078125 l 1
 622.76953125 736.23046875 l 2
 613.831175476 750.941742498 613.831175476 750.941742498 607.290039062 757.830078125 c 0
 584.846135001 781.99541399 584.846135001 781.99541399 550.830078125 782.5 c 2
 312.059570312 782.5 l 2
 289.062219657 782.938222914 289.062219657 782.938222914 272.280273438 774.98046875 c 0
 258.276866902 768.386692994 258.276866902 768.386692994 251.26953125 760.459960938 c 0
 237.628827442 743.309903801 237.628827442 743.309903801 222.83984375 718.389648438 c 0
 204.427305313 687.333394691 204.427305313 687.333394691 189.469726562 655.120117188 c 0
 173.641644871 620.627674612 173.641644871 620.627674612 161.9296875 585.509765625 c 0
 152.904411589 557.780264797 152.904411589 557.780264797 147.98046875 534.66015625 c 2
 147.91015625 534.3203125 l 2
 143.780190505 515.97230831 143.780190505 515.97230831 142.58984375 498.349609375 c 0
 141.184160517 470.212516658 141.184160517 470.212516658 144.219726562 457.450195312 c 0
 144.41015625 456.610351562 l 2
 147.227868923 443.083701997 147.227868923 443.083701997 152.190429688 435.009765625 c 0
 158.984321131 423.701092193 158.984321131 423.701092193 169.209960938 418.889648438 c 1
 171.330078125 418.889648438 l 1
 174.540039062 417.280273438 l 1
 179.920289478 438.101159506 179.920289478 438.101159506 187.860351562 461.76953125 c 0
 202.439622962 504.239750966 202.439622962 504.239750966 221.959960938 545.540039062 c 0
 241.850005428 587.140181161 241.850005428 587.140181161 263.16015625 621.440429688 c 0
 282.873228767 653.67035468 282.873228767 653.67035468 301.759765625 675.9296875 c 0
 318.062512583 695.269665868 318.062512583 695.269665868 347.25 708.610351562 c 0
 381.080682886 723.775725588 381.080682886 723.775725588 420.8203125 722.379882812 c 2
 631.490234375 722.379882812 l 1
 628.878497398 726.648238078 628.878497398 726.648238078 625.76953125 731.51953125 c 0
372.08984375 653.990234375 m 0
 355.228378183 646.269768994 355.228378183 646.269768994 347.610351562 637.23046875 c 0
 331.654361444 618.448354577 331.654361444 618.448354577 314.299804688 590.049804688 c 0
 294.557711204 558.287109546 294.557711204 558.287109546 276.190429688 519.849609375 c 0
 258.071847001 481.497839006 258.071847001 481.497839006 244.73046875 442.58984375 c 0
 234.374120071 411.659145884 234.374120071 411.659145884 228.780273438 386.099609375 c 0
 223.965380238 365.322080678 223.965380238 365.322080678 222.58984375 345.669921875 c 0
 221.751629402 327.81115122 221.751629402 327.81115122 222.150390625 319.169921875 c 2
 222.1796875 318.469726562 l 1
 222.379882812 317.26953125 l 1
 222.5703125 314.51953125 l 2
 223.108371898 306.689889742 223.108371898 306.689889742 224.73046875 298.73046875 c 0
 228.023292411 283.41535689 228.023292411 283.41535689 233.919921875 274.110351562 c 0
 242.973578903 259.451414653 242.973578903 259.451414653 257.6796875 253.73046875 c 0
 264.778088346 250.909155154 264.778088346 250.909155154 281.219726562 247.870117188 c 0
 294.32897166 246.081029475 294.32897166 246.081029475 310.129882812 249 c 0
 333.399692572 254.01296793 333.399692572 254.01296793 358.700195312 274.900390625 c 0
 371.542806427 285.715742023 371.542806427 285.715742023 396.620117188 310.08984375 c 0
 396.643769055 310.112279583 396.643769055 310.112279583 398.349609375 311.8203125 c 0
 404.427363488 317.975130275 404.427363488 317.975130275 407.700195312 320.860351562 c 0
 438.74988145 350.948017046 438.74988145 350.948017046 466.290039062 365.5 c 0
 501.056524555 383.990192755 501.056524555 383.990192755 534.379882812 383.139648438 c 2
 561.379882812 383.139648438 l 2
 581.75564864 383.157228908 581.75564864 383.157228908 598.419921875 379.330078125 c 0
 628.172002331 372.858043591 628.172002331 372.858043591 657.8203125 352.049804688 c 0
 679.329922474 336.960606145 679.329922474 336.960606145 706.639648438 308.669921875 c 2
 718.599609375 296.629882812 l 1
 721.389648438 293.91015625 l 2
 747.476363398 268.538422767 747.476363398 268.538422767 761.150390625 259.049804688 c 0
 779.568032142 246.994242055 779.568032142 246.994242055 795.4296875 244.26953125 c 2
 795.740234375 244.219726562 l 2
 805.240153718 242.490234375 805.240153718 242.490234375 812.669921875 242.490234375 c 0
 826.527654252 242.490234375 826.527654252 242.490234375 840.040039062 246.540039062 c 2
 840.509765625 246.6796875 l 2
 856.110040101 251.07499165 856.110040101 251.07499165 866.219726562 264.309570312 c 0
 880.004532673 282.327935752 880.004532673 282.327935752 881.01953125 312.150390625 c 2
 881.040039062 312.919921875 l 1
 881.110351562 313.6796875 l 2
 882.864468241 334.133323818 882.864468241 334.133323818 880.8203125 349.059570312 c 2
 880.759765625 349.530273438 l 1
 879.91015625 356.5703125 l 2
 879.331325171 360.309655388 879.331325171 360.309655388 878.469726562 366.700195312 c 0
 878.469726562 366.719726562 l 2
 877.172525258 376.205398029 877.172525258 376.205398029 876.190429688 381 c 0
 870.420726892 407.639799625 870.420726892 407.639799625 863.889648438 427.23046875 c 2
 863.759765625 427.610351562 l 2
 850.60616059 470.824608446 850.60616059 470.824608446 827.919921875 518.9296875 c 0
 804.026531489 568.658971443 804.026531489 568.658971443 780.330078125 604.669921875 c 0
 776.940429688 609.83984375 l 2
 766.660028882 626.248006633 766.660028882 626.248006633 759.080078125 634.059570312 c 0
 758.652432528 634.487215909 758.652432528 634.487215909 758.080078125 635.080078125 c 0
 755.799804688 637.25 l 2
 752.804511515 640.155864958 752.804511515 640.155864958 747.009765625 645.0703125 c 0
 723.826798708 662.379882812 723.826798708 662.379882812 691.5703125 662.379882812 c 2
 419.700195312 662.379882812 l 1
 419.129882812 662.400390625 l 2
 393.127606541 663.394769912 393.127606541 663.394769912 372.08984375 653.990234375 c 0
406.139648438 586.639648438 m 2
 432 560.780273438 l 1
 457.860351562 586.639648438 l 2
 463.717529297 592.497558594 463.717529297 592.497558594 472.005004883 592.497558594 c 0
 480.292480469 592.497558594 480.292480469 592.497558594 486.150390625 586.639648438 c 0
 492.007568359 580.782470703 492.007568359 580.782470703 492.007568359 572.494995117 c 0
 492.007568359 564.207519531 492.007568359 564.207519531 486.150390625 558.349609375 c 2
 460.290039062 532.490234375 l 1
 486.150390625 506.629882812 l 2
 492.007568359 500.772705078 492.007568359 500.772705078 492.007568359 492.485229492 c 0
 492.007568359 484.197753906 492.007568359 484.197753906 486.150390625 478.33984375 c 0
 480.292480469 472.482666016 480.292480469 472.482666016 472.005004883 472.482666016 c 0
 463.717529297 472.482666016 463.717529297 472.482666016 457.860351562 478.33984375 c 2
 432 504.200195312 l 1
 406.139648438 478.33984375 l 2
 400.282470703 472.482666016 400.282470703 472.482666016 392 472.482666016 c 0
 383.717529297 472.482666016 383.717529297 472.482666016 377.860351562 478.33984375 c 0
 372.002441406 484.197753906 372.002441406 484.197753906 372.002441406 492.485229492 c 0
 372.002441406 500.772705078 372.002441406 500.772705078 377.860351562 506.629882812 c 2
 403.719726562 532.490234375 l 1
 377.860351562 558.349609375 l 2
 372.002441406 564.21484375 372.002441406 564.21484375 372.002441406 572.498657227 c 0
 372.002441406 580.782470703 372.002441406 580.782470703 377.860351562 586.639648438 c 0
 383.717529297 592.497558594 383.717529297 592.497558594 392 592.497558594 c 0
 400.282470703 592.497558594 400.282470703 592.497558594 406.139648438 586.639648438 c 2
652 523.700195312 m 0
 652 511.775070957 652 511.775070957 660.437537762 503.337730791 c 0
 668.875075524 494.900390625 668.875075524 494.900390625 680.799804688 494.900390625 c 0
 692.725097656 494.900390625 692.725097656 494.900390625 701.162353516 503.337646484 c 0
 709.599609375 511.774902344 709.599609375 511.774902344 709.599609375 523.700195312 c 0
 709.599609375 535.624924476 709.599609375 535.624924476 701.162269209 544.062462238 c 0
 692.724929043 552.5 692.724929043 552.5 680.799804688 552.5 c 0
 668.875244141 552.5 668.875244141 552.5 660.43762207 544.06237793 c 0
 652 535.624755859 652 535.624755859 652 523.700195312 c 0
680.799804688 592.5 m 0
 709.299804688 592.5 709.299804688 592.5 729.449707031 572.350097656 c 0
 749.599609375 552.200195312 749.599609375 552.200195312 749.599609375 523.700195312 c 0
 749.599609375 495.200195312 749.599609375 495.200195312 729.449707031 475.050292969 c 0
 709.299804688 454.900390625 709.299804688 454.900390625 680.799804688 454.900390625 c 0
 652.299804688 454.900390625 652.299804688 454.900390625 632.149902344 475.050292969 c 0
 612 495.200195312 612 495.200195312 612 523.700195312 c 0
 612 552.200195312 612 552.200195312 632.149902344 572.350097656 c 0
 652.299804688 592.5 652.299804688 592.5 680.799804688 592.5 c 0
EndSplineSet
EndChar

StartChar: uniE001
Encoding: 57345 57345 4
Width: 1024
Flags: H
LayerCount: 2
Fore
SplineSet
307.01953125 926.66015625 m 0
 318.359619141 915.320068359 318.359619141 915.320068359 318.359619141 899.278564453 c 0
 318.359619141 883.237060547 318.359619141 883.237060547 307.01953125 871.889648438 c 2
 218.219726562 783.08984375 l 1
 899.26953125 783.08984375 l 2
 915.312424498 783.08984375 915.312424498 783.08984375 926.656212249 771.746253571 c 0
 938 760.402663392 938 760.402663392 938 744.360351562 c 0
 938 728.317382812 938 728.317382812 926.65625 716.973632812 c 0
 915.3125 705.629882812 915.3125 705.629882812 899.26953125 705.629882812 c 2
 218.219726562 705.629882812 l 1
 307.01953125 616.830078125 l 2
 318.359619141 605.482666016 318.359619141 605.482666016 318.359619141 589.44519043 c 0
 318.359619141 573.407714844 318.359619141 573.407714844 307.01953125 562.059570312 c 0
 295.680175781 550.720214844 295.680175781 550.720214844 279.638793945 550.720214844 c 0
 263.597412109 550.720214844 263.597412109 550.720214844 252.25 562.059570312 c 2
 97.33984375 716.98046875 l 2
 86 728.3203125 86 728.3203125 86 744.360351562 c 0
 86 752.088330986 86 752.088330986 88.9404296875 759.1796875 c 0
 91.8736872439 766.274077869 91.8736872439 766.274077869 97.33984375 771.740234375 c 2
 252.25 926.66015625 l 2
 263.590087891 938.000244141 263.590087891 938.000244141 279.631103516 938.000244141 c 0
 295.672119141 938.000244141 295.672119141 938.000244141 307.01953125 926.66015625 c 0
771.75 461.9296875 m 0
 926.650390625 307 l 2
 932.111965681 301.55276355 932.111965681 301.55276355 935.059570312 294.440429688 c 0
 938 287.384002842 938 287.384002842 938 279.620117188 c 0
 938 263.580078125 938 263.580078125 926.66015625 252.240234375 c 2
 771.75 97.330078125 l 2
 760.400900194 85.9883036271 760.400900194 85.9883036271 744.361206055 85.986328125 c 0
 728.321511915 85.9843526229 728.321511915 85.9843526229 716.98046875 97.330078125 c 0
 705.640380859 108.677490234 705.640380859 108.677490234 705.640380859 124.71887207 c 0
 705.640380859 140.760253906 705.640380859 140.760253906 716.98046875 152.099609375 c 2
 805.76953125 240.900390625 l 1
 124.73046875 240.900390625 l 2
 108.687575502 240.900390625 108.687575502 240.900390625 97.3437877511 252.243980804 c 0
 86 263.587570983 86 263.587570983 86 279.629882812 c 0
 86 295.67228778 86 295.67228778 97.3438343184 307.016319671 c 0
 108.687668637 318.360351562 108.687668637 318.360351562 124.73046875 318.360351562 c 2
 805.76953125 318.360351562 l 1
 716.98046875 407.16015625 l 2
 705.640380859 418.507568359 705.640380859 418.507568359 705.640380859 434.548583984 c 0
 705.640380859 450.589599609 705.640380859 450.589599609 716.98046875 461.9296875 c 0
 728.327880859 473.269775391 728.327880859 473.269775391 744.368896484 473.269775391 c 0
 760.409912109 473.269775391 760.409912109 473.269775391 771.75 461.9296875 c 0
EndSplineSet
EndChar

StartChar: uniE002
Encoding: 57346 57346 5
Width: 1024
Flags: H
LayerCount: 2
Fore
SplineSet
466.280273438 465.8203125 m 0
 471.1018046 460.880036925 471.1018046 460.880036925 473.75 454.509765625 c 0
 476.450195312 448.024448039 476.450195312 448.024448039 476.450195312 440.91015625 c 2
 476.450195312 174.360351562 l 2
 476.450195312 159.637939453 476.450195312 159.637939453 466.041381836 149.229125977 c 0
 455.632568359 138.8203125 455.632568359 138.8203125 440.91015625 138.8203125 c 0
 426.187744141 138.8203125 426.187744141 138.8203125 415.778930664 149.229125977 c 0
 405.370117188 159.637939453 405.370117188 159.637939453 405.370117188 174.360351562 c 2
 405.370117188 355.110351562 l 1
 146.1796875 95.919921875 l 2
 135.769775391 85.5100097656 135.769775391 85.5100097656 121.049804688 85.5100097656 c 0
 106.329833984 85.5100097656 106.329833984 85.5100097656 95.919921875 95.919921875 c 0
 85.5100097656 106.329833984 85.5100097656 106.329833984 85.5100097656 121.049804688 c 0
 85.5100097656 135.769775391 85.5100097656 135.769775391 95.919921875 146.1796875 c 2
 355.120117188 405.379882812 l 1
 174.370117188 405.379882812 l 2
 159.647705078 405.379882812 159.647705078 405.379882812 149.238891602 415.788696289 c 0
 138.830078125 426.197509766 138.830078125 426.197509766 138.830078125 440.919921875 c 0
 138.830078125 455.642333984 138.830078125 455.642333984 149.238891602 466.051147461 c 0
 159.647705078 476.459960938 159.647705078 476.459960938 174.370117188 476.459960938 c 2
 440.919921875 476.459960938 l 2
 455.462310834 476.459960938 455.462310834 476.459960938 466.280273438 465.8203125 c 0
917.669921875 917.669921875 m 0
 938.48046875 896.83984375 938.48046875 896.83984375 938.48046875 867.400390625 c 2
 938.48046875 263.219726562 l 2
 938.48046875 233.780273438 938.48046875 233.780273438 917.66015625 212.959960938 c 0
 896.83984375 192.139648438 896.83984375 192.139648438 867.400390625 192.139648438 c 2
 654.16015625 192.139648438 l 2
 639.437744141 192.139648438 639.437744141 192.139648438 629.028930664 202.548461914 c 0
 618.620117188 212.957275391 618.620117188 212.957275391 618.620117188 227.6796875 c 0
 618.620117188 242.402099609 618.620117188 242.402099609 629.028930664 252.810913086 c 0
 639.437744141 263.219726562 639.437744141 263.219726562 654.16015625 263.219726562 c 2
 867.400390625 263.219726562 l 1
 867.400390625 867.400390625 l 1
 263.219726562 867.400390625 l 1
 263.219726562 654.169921875 l 2
 263.219726562 639.447509766 263.219726562 639.447509766 252.810913086 629.038696289 c 0
 242.402099609 618.629882812 242.402099609 618.629882812 227.6796875 618.629882812 c 0
 212.957275391 618.629882812 212.957275391 618.629882812 202.548461914 629.038696289 c 0
 192.139648438 639.447509766 192.139648438 639.447509766 192.139648438 654.169921875 c 2
 192.139648438 867.41015625 l 2
 192.139648438 896.849609375 192.139648438 896.849609375 212.959960938 917.669921875 c 0
 233.780273438 938.490234375 233.780273438 938.490234375 263.219726562 938.490234375 c 2
 867.41015625 938.490234375 l 2
 896.849609375 938.490234375 896.849609375 938.490234375 917.669921875 917.669921875 c 0
EndSplineSet
EndChar

StartChar: uniE003
Encoding: 57347 57347 6
Width: 1024
Flags: H
LayerCount: 2
Fore
SplineSet
925.91015625 925.91015625 m 0
 930.914108688 920.904762166 930.914108688 920.904762166 933.580078125 914.440429688 c 0
 936.259765625 907.978009974 936.259765625 907.978009974 936.259765625 900.91015625 c 2
 936.259765625 635.740234375 l 2
 936.259765625 621.092604796 936.259765625 621.092604796 925.903602202 610.736243804 c 0
 915.547438779 600.379882812 915.547438779 600.379882812 900.900390625 600.379882812 c 0
 886.252685547 600.379882812 886.252685547 600.379882812 875.896362305 610.736206055 c 0
 865.540039062 621.092529297 865.540039062 621.092529297 865.540039062 635.740234375 c 2
 865.540039062 815.549804688 l 1
 607.700195312 557.709960938 l 2
 597.342285156 547.352783203 597.342285156 547.352783203 582.699829102 547.352783203 c 0
 568.057373047 547.352783203 568.057373047 547.352783203 557.700195312 557.709960938 c 0
 547.342285156 568.067138672 547.342285156 568.067138672 547.342285156 582.709960938 c 0
 547.342285156 597.352783203 547.342285156 597.352783203 557.700195312 607.709960938 c 2
 815.549804688 865.549804688 l 1
 635.740234375 865.549804688 l 2
 621.092529297 865.549804688 621.092529297 865.549804688 610.736206055 875.90612793 c 0
 600.379882812 886.262451172 600.379882812 886.262451172 600.379882812 900.91015625 c 0
 600.379882812 915.557768183 600.379882812 915.557768183 610.73615948 925.913649717 c 0
 621.092436148 936.26953125 621.092436148 936.26953125 635.740234375 936.26953125 c 2
 900.900390625 936.26953125 l 2
 915.555655782 936.26953125 915.555655782 936.26953125 925.91015625 925.91015625 c 0
158.450195312 794.83984375 m 1
 441.290039062 794.849609375 l 2
 455.937668641 794.849609375 455.937668641 794.849609375 466.294029633 784.493445952 c 0
 476.650390625 774.137282529 476.650390625 774.137282529 476.650390625 759.490234375 c 0
 476.650390625 744.842529297 476.650390625 744.842529297 466.294067383 734.486206055 c 0
 455.937744141 724.129882812 455.937744141 724.129882812 441.290039062 724.129882812 c 2
 158.450195312 724.129882812 l 1
 158.450195312 158.450195312 l 1
 724.120117188 158.450195312 l 1
 724.120117188 441.290039062 l 2
 724.120117188 455.937744141 724.120117188 455.937744141 734.47644043 466.294067383 c 0
 744.832763672 476.650390625 744.832763672 476.650390625 759.48046875 476.650390625 c 0
 774.127516904 476.650390625 774.127516904 476.650390625 784.483680327 466.294029633 c 0
 794.83984375 455.937668641 794.83984375 455.937668641 794.83984375 441.290039062 c 2
 794.83984375 158.450195312 l 2
 794.83984375 129.16015625 794.83984375 129.16015625 774.129882812 108.450195312 c 0
 753.419921875 87.740234375 753.419921875 87.740234375 724.129882812 87.740234375 c 2
 158.450195312 87.740234375 l 2
 129.16015625 87.740234375 129.16015625 87.740234375 108.450195312 108.450195312 c 0
 87.740234375 129.16015625 87.740234375 129.16015625 87.740234375 158.450195312 c 2
 87.740234375 724.129882812 l 2
 87.740234375 753.419921875 87.740234375 753.419921875 108.450195312 774.129882812 c 0
 129.16015625 794.83984375 129.16015625 794.83984375 158.450195312 794.83984375 c 1
EndSplineSet
EndChar

StartChar: uniE004
Encoding: 57348 57348 7
Width: 1024
Flags: H
LayerCount: 2
Fore
SplineSet
865.139648438 321.830078125 m 0
 873.009765625 308.225072143 873.009765625 308.225072143 873.009765625 292.559570312 c 0
 873.024666903 276.889386236 873.024666903 276.889386236 865.209960938 263.290039062 c 0
 857.40597946 249.709354912 857.40597946 249.709354912 843.830078125 241.8203125 c 0
 830.287864775 233.95084639 830.287864775 233.95084639 814.58984375 233.889648438 c 2
 671.5703125 233.889648438 l 1
 671.5703125 173.180664062 671.5703125 173.180664062 628.639648438 130.25 c 0
 585.711485971 87.3203125 585.711485971 87.3203125 525 87.3203125 c 0
 464.288514029 87.3203125 464.288514029 87.3203125 421.360351562 130.25 c 0
 378.4296875 173.180664062 378.4296875 173.180664062 378.4296875 233.889648438 c 1
 235.4296875 233.889648438 l 2
 219.758457429 233.935845483 219.758457429 233.935845483 206.190429688 241.8203125 c 0
 192.621281617 249.695903274 192.621281617 249.695903274 184.809570312 263.290039062 c 0
 177.009765625 276.851164572 177.009765625 276.851164572 177.009765625 292.559570312 c 0
 177.024682986 308.248158487 177.024682986 308.248158487 184.879882812 321.849609375 c 0
 232.599609375 404.267377056 232.599609375 404.267377056 232.599609375 556.330078125 c 0
 232.599609375 557.394071691 232.599609375 557.394071691 232.669921875 558.33984375 c 2
 232.690429688 558.6796875 l 1
 232.75 559.5703125 l 1
 233 562.870117188 l 2
 233.328638354 567.330427504 233.328638354 567.330427504 233.969726562 574.759765625 c 0
 235.672276511 594.411559528 235.672276511 594.411559528 237.849609375 613.009765625 c 0
 240.908082946 639.032827929 240.908082946 639.032827929 244.41015625 658.240234375 c 0
 249.128592655 684.183502482 249.128592655 684.183502482 254.919921875 698.16015625 c 0
 277.322685808 752.190090579 277.322685808 752.190090579 318.780273438 793.48046875 c 0
 360.25421802 834.772399732 360.25421802 834.772399732 414.370117188 856.940429688 c 0
 453.549285803 873.000140672 453.549285803 873.000140672 495.6796875 877.290039062 c 1
 495.6796875 908.110351562 l 2
 495.6796875 920.252516898 495.6796875 920.252516898 504.263587551 928.836219386 c 0
 512.847487603 937.419921875 512.847487603 937.419921875 524.990234375 937.419921875 c 0
 537.132324219 937.419921875 537.132324219 937.419921875 545.716064453 928.836181641 c 0
 554.299804688 920.252441406 554.299804688 920.252441406 554.299804688 908.110351562 c 2
 554.299804688 877.3203125 l 1
 665.864495347 865.99817325 665.864495347 865.99817325 741.632442986 781.110341803 c 0
 817.400390625 696.222510355 817.400390625 696.222510355 817.400390625 582.360351562 c 2
 817.400390625 556.33984375 l 2
 817.400390625 404.279373297 817.400390625 404.279373297 865.139648438 321.830078125 c 0
587.169921875 171.700195312 m 0
 612.9296875 197.459960938 612.9296875 197.459960938 612.9296875 233.879882812 c 1
 437.049804688 233.879882812 l 1
 437.049804688 197.461486538 437.049804688 197.461486538 462.809570312 171.700195312 c 0
 488.569335938 145.940429688 488.569335938 145.940429688 524.990234375 145.940429688 c 0
 561.41015625 145.940429688 561.41015625 145.940429688 587.169921875 171.700195312 c 0
235.620117188 292.509765625 m 1
 235.629882812 292.5 l 1
 814.360351562 292.5 l 1
 758.76953125 388.566378117 758.76953125 388.566378117 758.76953125 556.330078125 c 2
 758.76953125 582.349609375 l 2
 758.76953125 679.891526378 758.76953125 679.891526378 690.811365218 749.65497231 c 0
 622.853199186 819.418418242 622.853199186 819.418418242 526.629882812 820.16015625 c 2
 525.509765625 820.16015625 l 1
 524.98046875 820.16015625 l 2
 478.832430316 819.992954583 478.832430316 819.992954583 436.580078125 802.6796875 c 0
 393.305199006 784.942844613 393.305199006 784.942844613 360.139648438 751.9296875 c 0
 326.989680133 718.915840467 326.989680133 718.915840467 309.0703125 675.700195312 c 0
 305.702666839 667.571340144 305.702666839 667.571340144 302.080078125 647.719726562 c 0
 298.905409198 630.370036094 298.905409198 630.370036094 296.0703125 606.1796875 c 0
 294.052421813 589.034823409 294.052421813 589.034823409 292.370117188 569.700195312 c 0
 291.814216993 563.399131247 291.814216993 563.399131247 291.440429688 558.389648438 c 2
 291.209960938 555.330078125 l 1
 291.036767777 388.261509365 291.036767777 388.261509365 235.620117188 292.509765625 c 1
EndSplineSet
EndChar

StartChar: uniE005
Encoding: 57349 57349 8
Width: 1024
Flags: H
LayerCount: 2
Fore
SplineSet
913.040039062 911.200195312 m 2
 928.151112987 911.190429688 928.151112987 911.190429688 938.830439306 899.865487844 c 0
 949.509765625 888.540546001 949.509765625 888.540546001 949.509765625 872.509765625 c 0
 949.509765625 856.477123336 949.509765625 856.477123336 938.829560676 845.143346824 c 0
 928.149355727 833.809570312 928.149355727 833.809570312 913.049804688 833.809570312 c 2
 889.469726562 833.809570312 l 2
 880.309570312 833.809570312 880.309570312 833.809570312 880.309570312 824.650390625 c 2
 880.309570312 133.599609375 l 2
 880.309570312 120.293116105 880.309570312 120.293116105 868.774623375 110.876538521 c 0
 857.239676438 101.459960938 857.239676438 101.459960938 840.9296875 101.459960938 c 0
 837.33406621 101.459960938 837.33406621 101.459960938 833.719726562 102 c 2
 754.889648438 102 l 2
 749.309570312 102 749.309570312 102 745.349609375 105.959960938 c 2
 739.950195312 111.379882812 l 2
 728.283981802 123.030273438 728.283981802 123.030273438 711.8203125 123.030273438 c 0
 691.863794818 123.030273438 691.863794818 123.030273438 679.919921875 107 c 0
 676.207206019 102 676.207206019 102 670.16015625 102 c 2
 555.049804688 102 l 2
 549.479492188 102 549.479492188 102 545.51953125 105.959960938 c 2
 540.120117188 111.379882812 l 2
 528.469726562 123.030273438 528.469726562 123.030273438 512 123.030273438 c 0
 492.033716693 123.030273438 492.033716693 123.030273438 480.08984375 107 c 0
 476.371537418 102.009765625 476.371537418 102.009765625 470.33984375 102.009765625 c 2
 355.23046875 102.009765625 l 2
 349.650390625 102.009765625 349.650390625 102.009765625 345.690429688 105.969726562 c 2
 340.290039062 111.389648438 l 2
 328.639648438 123.040039062 328.639648438 123.040039062 312.169921875 123.040039062 c 0
 292.203638568 123.040039062 292.203638568 123.040039062 280.259765625 107.009765625 c 0
 276.541459293 102.01953125 276.541459293 102.01953125 270.509765625 102.01953125 c 2
 190.280273438 102.01953125 l 2
 186.568797144 101.48046875 186.568797144 101.48046875 183.0703125 101.48046875 c 0
 179.468155333 101.48046875 179.468155333 101.48046875 175.860351562 102.01953125 c 2
 174.450195312 102.01953125 l 2
 160.485881081 102.01953125 160.485881081 102.01953125 151.450195312 114.469726562 c 0
 143.690429688 122.995043559 143.690429688 122.995043559 143.690429688 133.620117188 c 2
 143.690429688 824.66015625 l 2
 143.690429688 833.8203125 143.690429688 833.8203125 134.530273438 833.8203125 c 2
 110.959960938 833.8203125 l 2
 95.8620700871 833.8203125 95.8620700871 833.8203125 85.1810350436 845.156748199 c 0
 74.5 856.493183898 74.5 856.493183898 74.5 872.51953125 c 0
 74.5 888.544673588 74.5 888.544673588 85.1801215474 899.87243445 c 0
 95.8602430948 911.200195312 95.8602430948 911.200195312 110.959960938 911.200195312 c 2
 913.040039062 911.200195312 l 2
801.549804688 192.919921875 m 2
 801.549804688 813.440429688 l 2
 801.549804688 821.885253906 801.549804688 821.885253906 795.582275391 827.852783203 c 0
 789.614746094 833.8203125 789.614746094 833.8203125 781.169921875 833.8203125 c 2
 242.830078125 833.8203125 l 2
 234.385253906 833.8203125 234.385253906 833.8203125 228.417724609 827.852783203 c 0
 222.450195312 821.885253906 222.450195312 821.885253906 222.450195312 813.440429688 c 2
 222.450195312 192.919921875 l 2
 222.450195312 184.475097656 222.450195312 184.475097656 228.417724609 178.507568359 c 0
 234.385253906 172.540039062 234.385253906 172.540039062 242.830078125 172.540039062 c 2
 781.169921875 172.540039062 l 2
 789.614746094 172.540039062 789.614746094 172.540039062 795.582275391 178.507568359 c 0
 801.549804688 184.475097656 801.549804688 184.475097656 801.549804688 192.919921875 c 2
292 607.559570312 m 0
 292 637.387451172 292 637.387451172 296.971191406 642.358764648 c 0
 301.942382812 647.330078125 301.942382812 647.330078125 331.76953125 647.330078125 c 2
 526.330078125 647.330078125 l 2
 556.157226562 647.330078125 556.157226562 647.330078125 561.128417969 642.358764648 c 0
 566.099609375 637.387451172 566.099609375 637.387451172 566.099609375 607.559570312 c 0
 566.099609375 577.72265625 566.099609375 577.72265625 561.128417969 572.751464844 c 0
 556.157226562 567.780273438 556.157226562 567.780273438 526.330078125 567.780273438 c 2
 331.76953125 567.780273438 l 2
 301.942382812 567.780273438 301.942382812 567.780273438 296.971191406 572.751464844 c 0
 292 577.72265625 292 577.72265625 292 607.559570312 c 0
292 411.219726562 m 0
 292 441.047607422 292 441.047607422 296.971191406 446.018920898 c 0
 301.942382812 450.990234375 301.942382812 450.990234375 331.76953125 450.990234375 c 2
 686.370117188 450.990234375 l 2
 716.197265625 450.990234375 716.197265625 450.990234375 721.168457031 446.018920898 c 0
 726.139648438 441.047607422 726.139648438 441.047607422 726.139648438 411.219726562 c 0
 726.139648438 381.3828125 726.139648438 381.3828125 721.168457031 376.411621094 c 0
 716.197265625 371.440429688 716.197265625 371.440429688 686.370117188 371.440429688 c 2
 331.76953125 371.440429688 l 2
 301.942382812 371.440429688 301.942382812 371.440429688 296.971191406 376.411621094 c 0
 292 381.3828125 292 381.3828125 292 411.219726562 c 0
EndSplineSet
EndChar

StartChar: uniE006
Encoding: 57350 57350 9
Width: 1024
Flags: H
LayerCount: 2
Fore
SplineSet
875 875 m 2
 875 149 l 2
 875 122 875 122 855.5 102.5 c 0
 836 83 836 83 809 83 c 2
 215 83 l 2
 188 83 188 83 168.5 102.5 c 0
 149 122 149 122 149 149 c 2
 149 875 l 2
 149 902 149 902 168.5 921.5 c 0
 188 941 188 941 215 941 c 2
 809 941 l 2
 836 941 836 941 855.5 921.5 c 0
 875 902 875 902 875 875 c 2
809 875 m 1
 215 875 l 1
 215 149 l 1
 809 149 l 1
 809 875 l 1
314 809 m 2
 710 809 l 2
 724 809 724 809 733.5 799.5 c 0
 743 790 743 790 743 776 c 2
 743 578 l 2
 743 564 743 564 733.5 554.5 c 0
 724 545 724 545 710 545 c 2
 314 545 l 2
 300 545 300 545 290.5 554.5 c 0
 281 564 281 564 281 578 c 2
 281 776 l 2
 281 790 281 790 290.5 799.5 c 0
 300 809 300 809 314 809 c 2
347 611 m 1
 677 611 l 1
 677 743 l 1
 347 743 l 1
 347 611 l 1
347 388.25 m 0
 329.914794922 388.25 329.914794922 388.25 317.832397461 400.332397461 c 0
 305.75 412.414794922 305.75 412.414794922 305.75 429.5 c 0
 305.75 446.585205078 305.75 446.585205078 317.832397461 458.667602539 c 0
 329.914794922 470.75 329.914794922 470.75 347 470.75 c 0
 364.085205078 470.75 364.085205078 470.75 376.167602539 458.667602539 c 0
 388.25 446.585205078 388.25 446.585205078 388.25 429.5 c 0
 388.25 412.414794922 388.25 412.414794922 376.167602539 400.332397461 c 0
 364.085205078 388.25 364.085205078 388.25 347 388.25 c 0
553.25 429.5 m 0
 553.25 412.414794922 553.25 412.414794922 541.167602539 400.332397461 c 0
 529.085205078 388.25 529.085205078 388.25 512 388.25 c 0
 494.914794922 388.25 494.914794922 388.25 482.832397461 400.332397461 c 0
 470.75 412.414794922 470.75 412.414794922 470.75 429.5 c 0
 470.75 446.585205078 470.75 446.585205078 482.832397461 458.667602539 c 0
 494.914794922 470.75 494.914794922 470.75 512 470.75 c 0
 529.085205078 470.75 529.085205078 470.75 541.167602539 458.667602539 c 0
 553.25 446.585205078 553.25 446.585205078 553.25 429.5 c 0
677 388.25 m 0
 659.914794922 388.25 659.914794922 388.25 647.832397461 400.332397461 c 0
 635.75 412.414794922 635.75 412.414794922 635.75 429.5 c 0
 635.75 446.585205078 635.75 446.585205078 647.832397461 458.667602539 c 0
 659.914794922 470.75 659.914794922 470.75 677 470.75 c 0
 694.085205078 470.75 694.085205078 470.75 706.167602539 458.667602539 c 0
 718.25 446.585205078 718.25 446.585205078 718.25 429.5 c 0
 718.25 412.414794922 718.25 412.414794922 706.167602539 400.332397461 c 0
 694.085205078 388.25 694.085205078 388.25 677 388.25 c 0
388.25 264.5 m 0
 388.25 247.414794922 388.25 247.414794922 376.167602539 235.332397461 c 0
 364.085205078 223.25 364.085205078 223.25 347 223.25 c 0
 329.914794922 223.25 329.914794922 223.25 317.832397461 235.332397461 c 0
 305.75 247.414794922 305.75 247.414794922 305.75 264.5 c 0
 305.75 281.585205078 305.75 281.585205078 317.832397461 293.667602539 c 0
 329.914794922 305.75 329.914794922 305.75 347 305.75 c 0
 364.085205078 305.75 364.085205078 305.75 376.167602539 293.667602539 c 0
 388.25 281.585205078 388.25 281.585205078 388.25 264.5 c 0
512 223.25 m 0
 494.914794922 223.25 494.914794922 223.25 482.832397461 235.332397461 c 0
 470.75 247.414794922 470.75 247.414794922 470.75 264.5 c 0
 470.75 281.585205078 470.75 281.585205078 482.832397461 293.667602539 c 0
 494.914794922 305.75 494.914794922 305.75 512 305.75 c 0
 529.085205078 305.75 529.085205078 305.75 541.167602539 293.667602539 c 0
 553.25 281.585205078 553.25 281.585205078 553.25 264.5 c 0
 553.25 247.414794922 553.25 247.414794922 541.167602539 235.332397461 c 0
 529.085205078 223.25 529.085205078 223.25 512 223.25 c 0
718.25 264.5 m 0
 718.25 247.414794922 718.25 247.414794922 706.167602539 235.332397461 c 0
 694.085205078 223.25 694.085205078 223.25 677 223.25 c 0
 659.914794922 223.25 659.914794922 223.25 647.832397461 235.332397461 c 0
 635.75 247.414794922 635.75 247.414794922 635.75 264.5 c 0
 635.75 281.585205078 635.75 281.585205078 647.832397461 293.667602539 c 0
 659.914794922 305.75 659.914794922 305.75 677 305.75 c 0
 694.085205078 305.75 694.085205078 305.75 706.167602539 293.667602539 c 0
 718.25 281.585205078 718.25 281.585205078 718.25 264.5 c 0
EndSplineSet
EndChar

StartChar: uniE007
Encoding: 57351 57351 10
Width: 1024
Flags: H
LayerCount: 2
Fore
SplineSet
742.419921875 907.75 m 2
 742.419921875 874.830078125 l 1
 841.169921875 874.830078125 l 2
 868.433983997 874.830078125 868.433983997 874.830078125 887.716991998 855.549243458 c 0
 907 836.26840879 907 836.26840879 907 809 c 2
 907 150.669921875 l 2
 907 123.405859753 907 123.405859753 887.719165333 104.122851752 c 0
 868.438330665 84.83984375 868.438330665 84.83984375 841.169921875 84.83984375 c 2
 182.830078125 84.83984375 l 2
 155.559814453 84.83984375 155.559814453 84.83984375 136.279907227 104.119750977 c 0
 117 123.399658203 117 123.399658203 117 150.669921875 c 2
 117 809 l 2
 117 836.270263672 117 836.270263672 136.279907227 855.550170898 c 0
 155.559814453 874.830078125 155.559814453 874.830078125 182.830078125 874.830078125 c 2
 281.580078125 874.830078125 l 1
 281.580078125 907.75 l 2
 281.580078125 921.384765625 281.580078125 921.384765625 291.22265625 931.02734375 c 0
 300.865234375 940.669921875 300.865234375 940.669921875 314.5 940.669921875 c 0
 328.134765625 940.669921875 328.134765625 940.669921875 337.77734375 931.02734375 c 0
 347.419921875 921.384765625 347.419921875 921.384765625 347.419921875 907.75 c 2
 347.419921875 874.830078125 l 1
 676.580078125 874.830078125 l 1
 676.580078125 907.75 l 2
 676.580078125 921.384765625 676.580078125 921.384765625 686.22265625 931.02734375 c 0
 695.865234375 940.669921875 695.865234375 940.669921875 709.5 940.669921875 c 0
 723.134765625 940.669921875 723.134765625 940.669921875 732.77734375 931.02734375 c 0
 742.419921875 921.384765625 742.419921875 921.384765625 742.419921875 907.75 c 2
841.169921875 809 m 1
 742.419921875 809 l 1
 742.419921875 776.080078125 l 2
 742.419921875 762.4453125 742.419921875 762.4453125 732.77734375 752.802734375 c 0
 723.134765625 743.16015625 723.134765625 743.16015625 709.5 743.16015625 c 0
 695.865234375 743.16015625 695.865234375 743.16015625 686.22265625 752.802734375 c 0
 676.580078125 762.4453125 676.580078125 762.4453125 676.580078125 776.080078125 c 2
 676.580078125 809 l 1
 347.419921875 809 l 1
 347.419921875 776.080078125 l 2
 347.419921875 762.4453125 347.419921875 762.4453125 337.77734375 752.802734375 c 0
 328.134765625 743.16015625 328.134765625 743.16015625 314.5 743.16015625 c 0
 300.865234375 743.16015625 300.865234375 743.16015625 291.22265625 752.802734375 c 0
 281.580078125 762.4453125 281.580078125 762.4453125 281.580078125 776.080078125 c 2
 281.580078125 809 l 1
 182.830078125 809 l 1
 182.830078125 677.330078125 l 1
 841.169921875 677.330078125 l 1
 841.169921875 809 l 1
182.830078125 611.5 m 1
 182.830078125 150.669921875 l 1
 841.169921875 150.669921875 l 1
 841.169921875 611.5 l 1
 182.830078125 611.5 l 1
330.950195312 479.830078125 m 0
 330.950195312 493.46484375 330.950195312 493.46484375 340.592773438 503.107421875 c 0
 350.235351562 512.75 350.235351562 512.75 363.870117188 512.75 c 2
 479.080078125 512.75 l 2
 499.787247785 512.75 499.787247785 512.75 508.75 494.08984375 c 0
 517.712145874 475.430949881 517.712145874 475.430949881 504.790039062 459.26953125 c 2
 468.349609375 413.73046875 l 1
 484.575396593 402.856844916 484.575396593 402.856844916 495.41015625 386.650390625 c 0
 509.192889267 366.090068922 509.192889267 366.090068922 511.629882812 341.440429688 c 0
 514.069262131 316.795108071 514.069262131 316.795108071 504.599609375 293.9296875 c 0
 495.143826066 271.059747684 495.143826066 271.059747684 476 255.360351562 c 0
 456.847831055 239.651168862 456.847831055 239.651168862 432.580078125 234.83984375 c 0
 408.294776475 230.025334399 408.294776475 230.025334399 384.610351562 237.23046875 c 0
 360.939634444 244.429494309 360.939634444 244.429494309 343.440429688 261.959960938 c 0
 333.81043548 271.613167923 333.81043548 271.613167923 333.828613281 285.24987793 c 0
 333.846791083 298.886587937 333.846791083 298.886587937 343.5 308.509765625 c 0
 353.151357675 318.14088249 353.151357675 318.14088249 366.786254883 318.12487793 c 0
 380.421152091 318.10887337 380.421152091 318.10887337 390.049804688 308.450195312 c 0
 395.884753994 302.600368522 395.884753994 302.600368522 403.76953125 300.209960938 c 0
 411.643654926 297.808390323 411.643654926 297.808390323 419.759765625 299.41015625 c 0
 427.86397168 301.027122703 427.86397168 301.027122703 434.23046875 306.25 c 0
 440.613448721 311.491780521 440.613448721 311.491780521 443.759765625 319.110351562 c 0
 446.923184969 326.714439375 446.923184969 326.714439375 446.099609375 334.950195312 c 0
 445.27678505 343.162071351 445.27678505 343.162071351 440.700195312 350.01953125 c 0
 436.087768381 356.891197367 436.087768381 356.891197367 428.8203125 360.759765625 c 0
 421.536861557 364.644768774 421.536861557 364.644768774 413.290039062 364.629882812 c 0
 392.559622907 364.5979013 392.559622907 364.5979013 383.580078125 383.259765625 c 0
 374.584023859 401.922744682 374.584023859 401.922744682 387.530273438 418.110351562 c 2
 410.580078125 446.919921875 l 1
 363.860351562 446.919921875 l 2
 350.225022149 446.919921875 350.225022149 446.919921875 340.582725918 456.562415682 c 0
 330.940429688 466.204909488 330.940429688 466.204909488 330.950195312 479.830078125 c 0
676.580078125 479.830078125 m 1
 676.599609375 265.879882812 l 2
 676.599609375 252.244948551 676.599609375 252.244948551 666.957313144 242.602454744 c 0
 657.315016914 232.959960938 657.315016914 232.959960938 643.6796875 232.959960938 c 0
 630.044921875 232.959960938 630.044921875 232.959960938 620.40234375 242.602539062 c 0
 610.759765625 252.245117188 610.759765625 252.245117188 610.759765625 265.879882812 c 2
 610.759765625 414 l 1
 597.58984375 404.120117188 l 2
 586.68418771 395.938335265 586.68418771 395.938335265 573.188598633 397.866333008 c 0
 559.693009556 399.794330751 559.693009556 399.794330751 551.509765625 410.700195312 c 0
 543.327983703 421.605851353 543.327983703 421.605851353 545.255981445 435.10144043 c 0
 547.183979188 448.597029507 547.183979188 448.597029507 558.08984375 456.780273438 c 2
 623.919921875 506.16015625 l 2
 640.199452498 518.373392124 640.199452498 518.373392124 658.389648438 509.26953125 c 0
 676.580078125 500.183875224 676.580078125 500.183875224 676.580078125 479.830078125 c 1
EndSplineSet
EndChar

StartChar: uniE008
Encoding: 57352 57352 11
Width: 1024
Flags: H
LayerCount: 2
Fore
SplineSet
750.419921875 902.75 m 2
 750.419921875 869.830078125 l 1
 849.169921875 869.830078125 l 2
 876.433983997 869.830078125 876.433983997 869.830078125 895.716991998 850.549243458 c 0
 915 831.26840879 915 831.26840879 915 804 c 2
 915 145.669921875 l 2
 915 118.405859753 915 118.405859753 895.719165333 99.1228517516 c 0
 876.438330665 79.83984375 876.438330665 79.83984375 849.169921875 79.83984375 c 2
 190.830078125 79.83984375 l 2
 163.559814453 79.83984375 163.559814453 79.83984375 144.279907227 99.1197509766 c 0
 125 118.399658203 125 118.399658203 125 145.669921875 c 2
 125 804 l 2
 125 831.270263672 125 831.270263672 144.279907227 850.550170898 c 0
 163.559814453 869.830078125 163.559814453 869.830078125 190.830078125 869.830078125 c 2
 289.580078125 869.830078125 l 1
 289.580078125 902.75 l 2
 289.580078125 916.384765625 289.580078125 916.384765625 299.22265625 926.02734375 c 0
 308.865234375 935.669921875 308.865234375 935.669921875 322.5 935.669921875 c 0
 336.134765625 935.669921875 336.134765625 935.669921875 345.77734375 926.02734375 c 0
 355.419921875 916.384765625 355.419921875 916.384765625 355.419921875 902.75 c 2
 355.419921875 869.830078125 l 1
 684.580078125 869.830078125 l 1
 684.580078125 902.75 l 2
 684.580078125 916.384765625 684.580078125 916.384765625 694.22265625 926.02734375 c 0
 703.865234375 935.669921875 703.865234375 935.669921875 717.5 935.669921875 c 0
 731.134765625 935.669921875 731.134765625 935.669921875 740.77734375 926.02734375 c 0
 750.419921875 916.384765625 750.419921875 916.384765625 750.419921875 902.75 c 2
849.169921875 672.330078125 m 1
 849.169921875 804 l 1
 750.419921875 804 l 1
 750.419921875 771.080078125 l 2
 750.419921875 757.4453125 750.419921875 757.4453125 740.77734375 747.802734375 c 0
 731.134765625 738.16015625 731.134765625 738.16015625 717.5 738.16015625 c 0
 703.865234375 738.16015625 703.865234375 738.16015625 694.22265625 747.802734375 c 0
 684.580078125 757.4453125 684.580078125 757.4453125 684.580078125 771.080078125 c 2
 684.580078125 804 l 1
 355.419921875 804 l 1
 355.419921875 771.080078125 l 2
 355.419921875 757.4453125 355.419921875 757.4453125 345.77734375 747.802734375 c 0
 336.134765625 738.16015625 336.134765625 738.16015625 322.5 738.16015625 c 0
 308.865234375 738.16015625 308.865234375 738.16015625 299.22265625 747.802734375 c 0
 289.580078125 757.4453125 289.580078125 757.4453125 289.580078125 771.080078125 c 2
 289.580078125 804 l 1
 190.830078125 804 l 1
 190.830078125 672.330078125 l 1
 849.169921875 672.330078125 l 1
190.830078125 606.5 m 1
 190.830078125 145.669921875 l 1
 849.169921875 145.669921875 l 1
 849.169921875 606.5 l 1
 190.830078125 606.5 l 1
EndSplineSet
EndChar

StartChar: uniE009
Encoding: 57353 57353 12
Width: 1024
Flags: H
LayerCount: 2
Fore
SplineSet
177.33984375 920.889648438 m 2
 512 586.23046875 l 1
 846.669921875 920.889648438 l 2
 862.037597656 936.264648438 862.037597656 936.264648438 883.776123047 936.264648438 c 0
 905.514648438 936.264648438 905.514648438 936.264648438 920.889648438 920.889648438 c 0
 936.264648438 905.514648438 936.264648438 905.514648438 936.264648438 883.774902344 c 0
 936.264648438 862.03515625 936.264648438 862.03515625 920.889648438 846.66015625 c 2
 549.110351562 474.879882812 l 2
 533.742675781 459.504882812 533.742675781 459.504882812 512.003662109 459.504882812 c 0
 490.264648438 459.504882812 490.264648438 459.504882812 474.889648438 474.879882812 c 2
 103.110351562 846.66015625 l 2
 87.7353515625 862.03515625 87.7353515625 862.03515625 87.7353515625 883.774902344 c 0
 87.7353515625 905.514648438 87.7353515625 905.514648438 103.110351562 920.889648438 c 0
 118.485351562 936.264648438 118.485351562 936.264648438 140.225097656 936.264648438 c 0
 161.96484375 936.264648438 161.96484375 936.264648438 177.33984375 920.889648438 c 2
177.33984375 549.110351562 m 2
 512 214.450195312 l 1
 846.669921875 549.110351562 l 2
 862.037597656 564.485351562 862.037597656 564.485351562 883.776123047 564.485351562 c 0
 905.514648438 564.485351562 905.514648438 564.485351562 920.889648438 549.110351562 c 0
 936.264648438 533.742675781 936.264648438 533.742675781 936.264648438 512.003662109 c 0
 936.264648438 490.264648438 936.264648438 490.264648438 920.889648438 474.889648438 c 2
 549.110351562 103.110351562 l 2
 533.742675781 87.7353515625 533.742675781 87.7353515625 512.003662109 87.7353515625 c 0
 490.264648438 87.7353515625 490.264648438 87.7353515625 474.889648438 103.110351562 c 2
 103.110351562 474.889648438 l 2
 87.7353515625 490.257324219 87.7353515625 490.257324219 87.7353515625 511.996337891 c 0
 87.7353515625 533.735351562 87.7353515625 533.735351562 103.110351562 549.110351562 c 0
 118.485351562 564.485351562 118.485351562 564.485351562 140.225097656 564.485351562 c 0
 161.96484375 564.485351562 161.96484375 564.485351562 177.33984375 549.110351562 c 2
EndSplineSet
EndChar

StartChar: uniE00A
Encoding: 57354 57354 13
Width: 1024
Flags: H
LayerCount: 2
Fore
SplineSet
549.08984375 920.639648438 m 2
 920.639648438 549.099609375 l 2
 936 533.732666016 936 533.732666016 936 512.006469727 c 0
 936 490.280273438 936 490.280273438 920.639648438 474.919921875 c 0
 905.272705078 459.560302734 905.272705078 459.560302734 883.546508789 459.560302734 c 0
 861.8203125 459.560302734 861.8203125 459.560302734 846.459960938 474.919921875 c 2
 512 809.370117188 l 1
 177.540039062 474.91015625 l 2
 162.1796875 459.549804688 162.1796875 459.549804688 140.449829102 459.549804688 c 0
 118.719970703 459.549804688 118.719970703 459.549804688 103.360351562 474.91015625 c 0
 88 490.277832031 88 490.277832031 88 512.00402832 c 0
 88 533.730224609 88 533.730224609 103.360351562 549.08984375 c 2
 474.91015625 920.639648438 l 2
 490.277832031 936 490.277832031 936 512.00402832 936 c 0
 533.730224609 936 533.730224609 936 549.08984375 920.639648438 c 2
920.639648438 177.540039062 m 2
 936 162.172363281 936 162.172363281 936 140.446166992 c 0
 936 118.719970703 936 118.719970703 920.639648438 103.360351562 c 0
 905.272705078 88 905.272705078 88 883.546508789 88 c 0
 861.8203125 88 861.8203125 88 846.459960938 103.360351562 c 2
 512 437.809570312 l 1
 177.540039062 103.360351562 l 2
 162.1796875 88 162.1796875 88 140.449829102 88 c 0
 118.719970703 88 118.719970703 88 103.360351562 103.360351562 c 0
 88 118.727294922 88 118.727294922 88 140.453491211 c 0
 88 162.1796875 88 162.1796875 103.360351562 177.540039062 c 2
 474.91015625 549.08984375 l 2
 490.277832031 564.450195312 490.277832031 564.450195312 512.00402832 564.450195312 c 0
 533.730224609 564.450195312 533.730224609 564.450195312 549.08984375 549.08984375 c 2
 920.639648438 177.540039062 l 2
EndSplineSet
EndChar

StartChar: uniE00B
Encoding: 57355 57355 14
Width: 1024
Flags: H
LayerCount: 2
Fore
SplineSet
921 734.530273438 m 0
 936.375 719.155273438 936.375 719.155273438 936.375 697.41015625 c 0
 936.375 675.665039062 936.375 675.665039062 921 660.290039062 c 2
 549.120117188 288.41015625 l 2
 533.745117188 273.03515625 533.745117188 273.03515625 512 273.03515625 c 0
 490.254882812 273.03515625 490.254882812 273.03515625 474.879882812 288.41015625 c 2
 103 660.290039062 l 2
 87.625 675.665039062 87.625 675.665039062 87.625 697.41015625 c 0
 87.625 719.155273438 87.625 719.155273438 103 734.530273438 c 0
 118.382324219 749.905273438 118.382324219 749.905273438 140.128662109 749.905273438 c 0
 161.875 749.905273438 161.875 749.905273438 177.25 734.530273438 c 2
 512.009765625 399.780273438 l 1
 846.759765625 734.530273438 l 2
 862.134765625 749.905273438 862.134765625 749.905273438 883.879882812 749.905273438 c 0
 905.625 749.905273438 905.625 749.905273438 921 734.530273438 c 0
EndSplineSet
EndChar

StartChar: uniE00C
Encoding: 57356 57356 15
Width: 1024
Flags: H
LayerCount: 2
Fore
SplineSet
400.41015625 512 m 1
 734.870117188 177.540039062 l 2
 750.231591563 162.170507074 750.231591563 162.170507074 750.233764648 140.446166992 c 0
 750.235937734 118.721826911 750.235937734 118.721826911 734.870117188 103.360351562 c 0
 719.502441406 88 719.502441406 88 697.776245117 88 c 0
 676.050048828 88 676.050048828 88 660.690429688 103.360351562 c 2
 289.139648438 474.91015625 l 2
 273.780029297 490.277832031 273.780029297 490.277832031 273.780029297 512.00402832 c 0
 273.780029297 533.730224609 273.780029297 533.730224609 289.139648438 549.08984375 c 2
 660.6796875 920.639648438 l 2
 676.047363281 936 676.047363281 936 697.773681641 936 c 0
 719.5 936 719.5 936 734.860351562 920.639648438 c 0
 750.219970703 905.280029297 750.219970703 905.280029297 750.219970703 883.550170898 c 0
 750.219970703 861.8203125 750.219970703 861.8203125 734.860351562 846.459960938 c 2
 400.41015625 512 l 1
EndSplineSet
EndChar

StartChar: uniE00D
Encoding: 57357 57357 16
Width: 1024
Flags: H
LayerCount: 2
Fore
SplineSet
735.849609375 549.16015625 m 2
 751.247314453 533.762451172 751.247314453 533.762451172 751.247314453 511.995117188 c 0
 751.247314453 490.227783203 751.247314453 490.227783203 735.849609375 474.830078125 c 2
 363.549804688 102.530273438 l 2
 348.152099609 87.1325683594 348.152099609 87.1325683594 326.384765625 87.1325683594 c 0
 304.617431641 87.1325683594 304.617431641 87.1325683594 289.219726562 102.530273438 c 0
 273.822753906 117.927246094 273.822753906 117.927246094 273.822753906 139.694946289 c 0
 273.822753906 161.462646484 273.822753906 161.462646484 289.219726562 176.860351562 c 2
 624.349609375 512 l 1
 289.219726562 847.139648438 l 2
 273.822753906 862.530029297 273.822753906 862.530029297 273.822753906 884.301391602 c 0
 273.822753906 906.072753906 273.822753906 906.072753906 289.219726562 921.469726562 c 0
 304.617431641 936.867431641 304.617431641 936.867431641 326.384765625 936.867431641 c 0
 348.152099609 936.867431641 348.152099609 936.867431641 363.549804688 921.469726562 c 2
 735.849609375 549.16015625 l 2
EndSplineSet
EndChar

StartChar: uniE00E
Encoding: 57358 57358 17
Width: 1024
Flags: H
LayerCount: 2
Fore
SplineSet
474.879882812 735.58984375 m 2
 490.254882812 750.96484375 490.254882812 750.96484375 512 750.96484375 c 0
 533.745117188 750.96484375 533.745117188 750.96484375 549.120117188 735.58984375 c 2
 921 363.709960938 l 2
 936.375 348.334960938 936.375 348.334960938 936.375 326.58984375 c 0
 936.375 304.844726562 936.375 304.844726562 921 289.469726562 c 0
 905.625 274.094726562 905.625 274.094726562 883.879882812 274.094726562 c 0
 862.134765625 274.094726562 862.134765625 274.094726562 846.759765625 289.469726562 c 2
 512.009765625 624.219726562 l 1
 177.25 289.469726562 l 2
 161.875 274.094726562 161.875 274.094726562 140.128662109 274.094726562 c 0
 118.382324219 274.094726562 118.382324219 274.094726562 103 289.469726562 c 0
 87.625 304.844726562 87.625 304.844726562 87.625 326.58984375 c 0
 87.625 348.334960938 87.625 348.334960938 103 363.709960938 c 2
 474.879882812 735.58984375 l 2
EndSplineSet
EndChar

StartChar: uniE00F
Encoding: 57359 57359 18
Width: 1024
Flags: H
LayerCount: 2
Fore
SplineSet
592.120117188 848.860351562 m 1
 592.120117188 862.134934262 592.120117188 862.134934262 601.507530606 871.522545256 c 0
 610.894944024 880.91015625 610.894944024 880.91015625 624.169921875 880.91015625 c 2
 848.5 880.91015625 l 2
 861.774977851 880.91015625 861.774977851 880.91015625 871.162391269 871.522545256 c 0
 880.549804688 862.134934262 880.549804688 862.134934262 880.549804688 848.860351562 c 2
 880.549804688 207.9296875 l 1
 912.599609375 207.9296875 l 2
 925.874848993 207.9296875 925.874848993 207.9296875 935.262619809 198.542311834 c 0
 944.650390625 189.154936167 944.650390625 189.154936167 944.650390625 175.879882812 c 0
 944.650390625 162.604829458 944.650390625 162.604829458 935.262619809 153.217453791 c 0
 925.874848993 143.830078125 925.874848993 143.830078125 912.599609375 143.830078125 c 2
 111.419921875 143.830078125 l 2
 98.1447753906 143.830078125 98.1447753906 143.830078125 88.7574462891 153.217407227 c 0
 79.3701171875 162.604736328 79.3701171875 162.604736328 79.3701171875 175.879882812 c 0
 79.3701171875 189.155029297 79.3701171875 189.155029297 88.7574462891 198.542358398 c 0
 98.1447753906 207.9296875 98.1447753906 207.9296875 111.419921875 207.9296875 c 2
 143.469726562 207.9296875 l 1
 143.469726562 464.299804688 l 2
 143.469726562 477.574782538 143.469726562 477.574782538 152.857337556 486.962195957 c 0
 162.24494855 496.349609375 162.24494855 496.349609375 175.51953125 496.349609375 c 2
 367.799804688 496.349609375 l 1
 367.799804688 656.580078125 l 2
 367.799804688 669.855055976 367.799804688 669.855055976 377.187415681 679.242469394 c 0
 386.575026675 688.629882812 386.575026675 688.629882812 399.849609375 688.629882812 c 2
 592.129882812 688.629882812 l 1
 592.120117188 848.860351562 l 1
367.790039062 432.259765625 m 1
 207.559570312 432.259765625 l 1
 207.559570312 207.9296875 l 1
 367.790039062 207.9296875 l 1
 367.790039062 432.259765625 l 1
816.440429688 816.8203125 m 1
 656.209960938 816.8203125 l 1
 656.209960938 207.9296875 l 1
 816.440429688 207.9296875 l 1
 816.440429688 816.8203125 l 1
592.110351562 624.540039062 m 1
 431.879882812 624.540039062 l 1
 431.879882812 207.940429688 l 1
 592.110351562 207.940429688 l 1
 592.110351562 624.540039062 l 1
EndSplineSet
EndChar

StartChar: uniE010
Encoding: 57360 57360 19
Width: 1024
Flags: H
LayerCount: 2
Fore
SplineSet
931.059570312 799.9296875 m 0
 942.002685547 788.987304688 942.002685547 788.987304688 942.002685547 773.515014648 c 0
 942.002685547 758.042724609 942.002685547 758.042724609 931.059570312 747.099609375 c 2
 408.040039062 224.0703125 l 2
 397.09765625 213.127929688 397.09765625 213.127929688 381.625 213.127929688 c 0
 366.15234375 213.127929688 366.15234375 213.127929688 355.209960938 224.0703125 c 2
 93.6904296875 485.580078125 l 2
 82.7473144531 496.522460938 82.7473144531 496.522460938 82.7473144531 511.995117188 c 0
 82.7473144531 527.467773438 82.7473144531 527.467773438 93.6904296875 538.41015625 c 0
 104.6328125 549.352539062 104.6328125 549.352539062 120.104980469 549.352539062 c 0
 135.577148438 549.352539062 135.577148438 549.352539062 146.51953125 538.41015625 c 2
 381.610351562 303.3203125 l 1
 878.23046875 799.9296875 l 2
 889.172851562 810.872070312 889.172851562 810.872070312 904.645019531 810.872070312 c 0
 920.1171875 810.872070312 920.1171875 810.872070312 931.059570312 799.9296875 c 0
EndSplineSet
EndChar

StartChar: uniE011
Encoding: 57361 57361 20
Width: 1024
Flags: H
LayerCount: 2
Fore
SplineSet
150.690429688 512 m 0
 150.690429688 413.853614818 150.690429688 413.853614818 199.041072207 330.622664772 c 0
 247.391714726 247.391714726 247.391714726 247.391714726 330.622664772 199.041072207 c 0
 413.853614818 150.690429688 413.853614818 150.690429688 512 150.690429688 c 0
 610.147175708 150.690429688 610.147175708 150.690429688 693.377532859 199.038902068 c 0
 776.607890011 247.387374448 776.607890011 247.387374448 824.958730162 330.618324495 c 0
 873.309570312 413.849274541 873.309570312 413.849274541 873.309570312 512 c 0
 873.309570312 610.151515986 873.309570312 610.151515986 824.9609003 693.381873137 c 0
 776.612230288 776.612230288 776.612230288 776.612230288 693.381873137 824.9609003 c 0
 610.151515986 873.309570312 610.151515986 873.309570312 512 873.309570312 c 0
 413.849274541 873.309570312 413.849274541 873.309570312 330.618324495 824.958730162 c 0
 247.387374448 776.607890011 247.387374448 776.607890011 199.038902068 693.377532859 c 0
 150.690429688 610.147175708 150.690429688 610.147175708 150.690429688 512 c 0
512 939 m 0
 689 939 689 939 814 814 c 0
 939 689 939 689 939 512 c 0
 939 335 939 335 814 210 c 0
 689 85 689 85 512 85 c 0
 335 85 335 85 210 210 c 0
 85 335 85 335 85 512 c 0
 85 689 85 689 210 814 c 0
 335 939 335 939 512 939 c 0
715.330078125 586.76953125 m 2
 474.3203125 356.849609375 l 2
 464.795032637 347.760381403 464.795032637 347.760381403 451.631225586 347.766479492 c 0
 438.467418535 347.772577581 438.467418535 347.772577581 428.950195312 356.870117188 c 2
 308.650390625 471.830078125 l 2
 298.817748344 481.227667183 298.817748344 481.227667183 298.510131836 494.828979492 c 0
 298.202515328 508.430291801 298.202515328 508.430291801 307.599609375 518.26953125 c 0
 316.997200101 528.102175276 316.997200101 528.102175276 330.598632812 528.409790039 c 0
 344.200065524 528.717404802 344.200065524 528.717404802 354.040039062 519.3203125 c 2
 451.66015625 426.030273438 l 1
 669.98046875 634.299804688 l 2
 679.826670228 643.691454111 679.826670228 643.691454111 693.425048828 643.373779297 c 0
 707.023427429 643.056104483 707.023427429 643.056104483 716.419921875 633.209960938 c 0
 725.817172537 623.362115164 725.817172537 623.362115164 725.497558594 609.764892578 c 0
 725.177944651 596.167669993 725.177944651 596.167669993 715.330078125 586.76953125 c 2
EndSplineSet
EndChar

StartChar: uniE012
Encoding: 57362 57362 21
Width: 1024
Flags: H
LayerCount: 2
Fore
SplineSet
605.23046875 651.3203125 m 0
 285.490234375 331.5703125 l 2
 276.977294922 323.057373047 276.977294922 323.057373047 264.935058594 323.057373047 c 0
 252.892822266 323.057373047 252.892822266 323.057373047 244.379882812 331.5703125 c 2
 84.509765625 491.440429688 l 2
 75.9975585938 499.959960938 75.9975585938 499.959960938 75.9975585938 511.998779297 c 0
 75.9975585938 524.037597656 75.9975585938 524.037597656 84.509765625 532.549804688 c 0
 93.0227050781 541.062744141 93.0227050781 541.062744141 105.064941406 541.062744141 c 0
 117.107177734 541.062744141 117.107177734 541.062744141 125.620117188 532.549804688 c 2
 264.9296875 393.240234375 l 1
 564.120117188 692.4296875 l 2
 572.640380859 700.942626953 572.640380859 700.942626953 584.678955078 700.942626953 c 0
 596.717529297 700.942626953 596.717529297 700.942626953 605.23046875 692.4296875 c 0
 613.742675781 683.917480469 613.742675781 683.917480469 613.742675781 671.875 c 0
 613.742675781 659.832519531 613.742675781 659.832519531 605.23046875 651.3203125 c 0
939.48046875 651.3203125 m 0
 619.73046875 331.580078125 l 2
 611.217529297 323.067871094 611.217529297 323.067871094 599.174926758 323.067871094 c 0
 587.132324219 323.067871094 587.132324219 323.067871094 578.620117188 331.580078125 c 2
 493.599609375 416.599609375 l 2
 485.087402344 425.112548828 485.087402344 425.112548828 485.087402344 437.155151367 c 0
 485.087402344 449.197753906 485.087402344 449.197753906 493.599609375 457.709960938 c 0
 502.112548828 466.222167969 502.112548828 466.222167969 514.155151367 466.222167969 c 0
 526.197753906 466.222167969 526.197753906 466.222167969 534.709960938 457.709960938 c 2
 599.1796875 393.240234375 l 1
 898.370117188 692.4296875 l 2
 906.890380859 700.942626953 906.890380859 700.942626953 918.928955078 700.942626953 c 0
 930.967529297 700.942626953 930.967529297 700.942626953 939.48046875 692.4296875 c 0
 947.992675781 683.917480469 947.992675781 683.917480469 947.992675781 671.875 c 0
 947.992675781 659.832519531 947.992675781 659.832519531 939.48046875 651.3203125 c 0
EndSplineSet
EndChar

StartChar: uniE013
Encoding: 57363 57363 22
Width: 1024
Flags: H
LayerCount: 2
Fore
SplineSet
156.169921875 939 m 2
 867.830078125 939 l 2
 897.310569576 939 897.310569576 939 918.155284788 918.153309042 c 0
 939 897.306618084 939 897.306618084 939 867.830078125 c 2
 939 156.169921875 l 2
 939 126.689430424 939 126.689430424 918.153309042 105.844715212 c 0
 897.306618084 85 897.306618084 85 867.830078125 85 c 2
 156.169921875 85 l 2
 126.689430424 85 126.689430424 85 105.844715212 105.846690958 c 0
 85 126.693381916 85 126.693381916 85 156.169921875 c 2
 85 867.830078125 l 2
 85 897.310569576 85 897.310569576 105.846690958 918.155284788 c 0
 126.693381916 939 126.693381916 939 156.169921875 939 c 2
156.169921875 867.830078125 m 1
 156.169921875 156.169921875 l 1
 867.830078125 156.169921875 l 1
 867.830078125 867.830078125 l 1
 156.169921875 867.830078125 l 1
732.26953125 593 m 2
 471.1796875 343.919921875 l 2
 460.859730413 334.072636845 460.859730413 334.072636845 446.597290039 334.078735352 c 0
 432.334849665 334.084833858 432.334849665 334.084833858 422.030273438 343.940429688 c 2
 291.709960938 468.48046875 l 2
 281.052558203 478.664729971 281.052558203 478.664729971 280.71887207 493.398681641 c 0
 280.385185938 508.13263331 280.385185938 508.13263331 290.5703125 518.790039062 c 0
 300.755309869 529.447445701 300.755309869 529.447445701 315.488891602 529.78112793 c 0
 330.222473334 530.114810158 330.222473334 530.114810158 340.879882812 519.9296875 c 2
 446.639648438 418.860351562 l 1
 683.150390625 644.490234375 l 2
 693.815321914 654.667093426 693.815321914 654.667093426 708.548706055 654.321166992 c 0
 723.282090196 653.975240559 723.282090196 653.975240559 733.459960938 643.309570312 c 0
 743.630268062 632.645375995 743.630268062 632.645375995 743.282348633 617.911254883 c 0
 742.934429204 603.17713377 742.934429204 603.17713377 732.26953125 593 c 2
EndSplineSet
EndChar

StartChar: uniE014
Encoding: 57364 57364 23
Width: 1024
Flags: H
LayerCount: 2
Fore
SplineSet
85 867.830078125 m 2
 85 897.306618084 85 897.306618084 105.844715212 918.153309042 c 0
 126.689430424 939 126.689430424 939 156.169921875 939 c 2
 867.830078125 939 l 2
 897.306618084 939 897.306618084 939 918.153309042 918.155284788 c 0
 939 897.310569576 939 897.310569576 939 867.830078125 c 2
 939 156.169921875 l 2
 939 126.693381916 939 126.693381916 918.155284788 105.846690958 c 0
 897.310569576 85 897.310569576 85 867.830078125 85 c 2
 156.169921875 85 l 2
 126.693381916 85 126.693381916 85 105.846690958 105.844715212 c 0
 85 126.689430424 85 126.689430424 85 156.169921875 c 2
 85 867.830078125 l 2
867.830078125 867.830078125 m 1
 156.169921875 867.830078125 l 1
 156.169921875 156.169921875 l 1
 867.830078125 156.169921875 l 1
 867.830078125 867.830078125 l 1
EndSplineSet
EndChar

StartChar: uniE015
Encoding: 57365 57365 24
Width: 1024
Flags: H
LayerCount: 2
Fore
SplineSet
149.849609375 512 m 0
 149.849609375 413.622393671 149.849609375 413.622393671 198.311686738 330.198078887 c 0
 246.773764102 246.773764102 246.773764102 246.773764102 330.198078887 198.311686738 c 0
 413.622393671 149.849609375 413.622393671 149.849609375 512 149.849609375 c 0
 610.377606329 149.849609375 610.377606329 149.849609375 693.801921113 198.311686738 c 0
 777.226235898 246.773764102 777.226235898 246.773764102 825.688313262 330.198078887 c 0
 874.150390625 413.622393671 874.150390625 413.622393671 874.150390625 512 c 0
 874.150390625 610.377606329 874.150390625 610.377606329 825.688313262 693.801921113 c 0
 777.226235898 777.226235898 777.226235898 777.226235898 693.801921113 825.688313262 c 0
 610.377606329 874.150390625 610.377606329 874.150390625 512 874.150390625 c 0
 413.622393671 874.150390625 413.622393671 874.150390625 330.198078887 825.688313262 c 0
 246.773764102 777.226235898 246.773764102 777.226235898 198.311686738 693.801921113 c 0
 149.849609375 610.377606329 149.849609375 610.377606329 149.849609375 512 c 0
512 940 m 0
 689 940 689 940 814.5 814.5 c 0
 940 689 940 689 940 512 c 0
 940 335 940 335 814.5 209.5 c 0
 689 84 689 84 512 84 c 0
 335 84 335 84 209.5 209.5 c 0
 84 335 84 335 84 512 c 0
 84 689 84 689 209.5 814.5 c 0
 335 940 335 940 512 940 c 0
544.919921875 742.459960938 m 2
 544.919921875 544.919921875 l 1
 742.459960938 544.919921875 l 2
 756.094726562 544.919921875 756.094726562 544.919921875 765.737304688 535.27734375 c 0
 775.379882812 525.634765625 775.379882812 525.634765625 775.379882812 512 c 0
 775.379882812 498.365234375 775.379882812 498.365234375 765.737304688 488.72265625 c 0
 756.094726562 479.080078125 756.094726562 479.080078125 742.459960938 479.080078125 c 2
 512 479.080078125 l 2
 498.365234375 479.080078125 498.365234375 479.080078125 488.72265625 488.72265625 c 0
 479.080078125 498.365234375 479.080078125 498.365234375 479.080078125 512 c 2
 479.080078125 742.459960938 l 2
 479.080078125 756.094726562 479.080078125 756.094726562 488.72265625 765.737304688 c 0
 498.365234375 775.379882812 498.365234375 775.379882812 512 775.379882812 c 0
 525.634765625 775.379882812 525.634765625 775.379882812 535.27734375 765.737304688 c 0
 544.919921875 756.094726562 544.919921875 756.094726562 544.919921875 742.459960938 c 2
EndSplineSet
EndChar

StartChar: uniE016
Encoding: 57366 57366 25
Width: 1024
Flags: H
LayerCount: 2
Fore
SplineSet
364.080078125 827.6796875 m 0
 268.276356322 788.022573215 268.276356322 788.022573215 210.690429688 701.849609375 c 0
 153.08984375 615.658448612 153.08984375 615.658448612 153.08984375 512 c 0
 153.08984375 408.341551388 153.08984375 408.341551388 210.690429688 322.150390625 c 0
 268.310905047 235.94814597 268.310905047 235.94814597 364.0703125 196.309570312 c 0
 459.858332106 156.660028826 459.858332106 156.660028826 561.509765625 176.919921875 c 0
 663.174274437 197.164160552 663.174274437 197.164160552 736.450195312 270.5 c 0
 746.45542326 280.512552419 746.45542326 280.512552419 760.606201172 280.518676758 c 0
 774.756979083 280.524801096 774.756979083 280.524801096 784.76953125 270.51953125 c 0
 794.775247626 260.514547303 794.775247626 260.514547303 794.78137207 246.363525391 c 0
 794.787496514 232.212503478 794.787496514 232.212503478 784.790039062 222.200195312 c 0
 696.860086407 134.193841751 696.860086407 134.193841751 574.870117188 109.900390625 c 0
 452.88455132 85.5913417773 452.88455132 85.5913417773 337.940429688 133.169921875 c 0
 223.010602582 180.743462812 223.010602582 180.743462812 153.879882812 284.169921875 c 0
 84.759765625 387.580518416 84.759765625 387.580518416 84.759765625 511.990234375 c 0
 84.759765625 636.398973771 84.759765625 636.398973771 153.879882812 739.809570312 c 0
 223.010602378 843.237526962 223.010602378 843.237526962 337.940429688 890.809570312 c 0
 452.865090138 938.402770785 452.865090138 938.402770785 574.870117188 914.08984375 c 0
 696.845752078 889.796264532 696.845752078 889.796264532 784.76953125 801.809570312 c 2
 871.66015625 715.1796875 l 1
 871.66015625 803.700195312 l 2
 871.66015625 817.852783203 871.66015625 817.852783203 881.668823242 827.861450195 c 0
 891.677490234 837.870117188 891.677490234 837.870117188 905.830078125 837.870117188 c 0
 919.982666016 837.870117188 919.982666016 837.870117188 929.991333008 827.861450195 c 0
 940 817.852783203 940 817.852783203 940 803.700195312 c 2
 940 633.330078125 l 2
 940.194864195 618.924386082 940.194864195 618.924386082 930.030273438 608.73046875 c 0
 919.808795546 598.47816348 919.808795546 598.47816348 905.33984375 598.690429688 c 2
 734.990234375 598.690429688 l 2
 720.837646484 598.690429688 720.837646484 598.690429688 710.828979492 608.69909668 c 0
 700.8203125 618.707763672 700.8203125 618.707763672 700.8203125 632.860351562 c 0
 700.8203125 647.012939453 700.8203125 647.012939453 710.828979492 657.021606445 c 0
 720.837646484 667.030273438 720.837646484 667.030273438 734.990234375 667.030273438 c 2
 823.169921875 667.030273438 l 1
 736.459960938 753.490234375 l 2
 663.194250702 826.81584259 663.194250702 826.81584259 561.51953125 847.080078125 c 0
 459.859758056 867.326654731 459.859758056 867.326654731 364.080078125 827.6796875 c 0
529.110351562 716.990234375 m 2
 529.110351562 531.73046875 l 1
 689.6796875 439.08984375 l 2
 701.941629316 432.018153481 701.941629316 432.018153481 705.607543945 418.349853516 c 0
 709.273458574 404.681553551 709.273458574 404.681553551 702.200195312 392.419921875 c 0
 695.12757527 380.158370177 695.12757527 380.158370177 681.459838867 376.492553711 c 0
 667.792102464 372.826737245 667.792102464 372.826737245 655.530273438 379.900390625 c 2
 478.4296875 482.0703125 l 2
 476.72405682 483.017094138 476.72405682 483.017094138 475.049804688 484.209960938 c 0
 469.034880098 488.507369172 469.034880098 488.507369172 465.360351562 494.879882812 c 0
 461.656874781 501.2626314 461.656874781 501.2626314 460.9296875 508.650390625 c 0
 460.739343785 510.583882049 460.739343785 510.583882049 460.76953125 512.639648438 c 2
 460.76953125 716.990234375 l 2
 460.76953125 731.142729142 460.76953125 731.142729142 470.77863996 741.151442696 c 0
 480.78774867 751.16015625 480.78774867 751.16015625 494.940429688 751.16015625 c 0
 509.09245379 751.16015625 509.09245379 751.16015625 519.101402676 741.151404943 c 0
 529.110351562 731.142653635 529.110351562 731.142653635 529.110351562 716.990234375 c 2
EndSplineSet
EndChar

StartChar: uniE017
Encoding: 57367 57367 26
Width: 1024
Flags: H
LayerCount: 2
Fore
SplineSet
688.8203125 896.809570312 m 0
 805.558325189 848.467855767 805.558325189 848.467855767 875.76953125 743.41015625 c 0
 945.98046875 638.355099615 945.98046875 638.355099615 945.98046875 511.990234375 c 0
 945.98046875 385.625369135 945.98046875 385.625369135 875.76953125 280.5703125 c 0
 805.558806881 175.513333744 805.558806881 175.513333744 688.799804688 127.1796875 c 0
 572.042306949 78.8481619501 572.042306949 78.8481619501 448.120117188 103.540039062 c 0
 324.190146034 128.233466641 324.190146034 128.233466641 234.879882812 217.620117188 c 0
 224.717630021 227.789895566 224.717630021 227.789895566 224.723754883 242.168701172 c 0
 224.729879745 256.547506778 224.729879745 256.547506778 234.900390625 266.709960938 c 0
 245.070244959 276.872137739 245.070244959 276.872137739 259.443725586 276.866210938 c 0
 273.817206213 276.860284136 273.817206213 276.860284136 283.98046875 266.690429688 c 0
 358.409795178 192.198184982 358.409795178 192.198184982 461.6796875 171.629882812 c 0
 564.941214837 151.051254286 564.941214837 151.051254286 662.25 191.330078125 c 0
 759.539417648 231.600885208 759.539417648 231.600885208 818.059570312 319.16015625 c 0
 876.5703125 406.703106152 876.5703125 406.703106152 876.5703125 512.009765625 c 0
 876.5703125 617.317401661 876.5703125 617.317401661 818.059570312 704.860351562 c 0
 759.540801404 792.417552195 759.540801404 792.417552195 662.25 832.690429688 c 0
 564.962368014 872.960497636 564.962368014 872.960497636 461.6796875 852.389648438 c 0
 358.403957573 831.80520437 358.403957573 831.80520437 283.98046875 757.3203125 c 2
 195.889648438 669.490234375 l 1
 285.459960938 669.490234375 l 2
 299.837402344 669.490234375 299.837402344 669.490234375 310.003662109 659.323974609 c 0
 320.169921875 649.157714844 320.169921875 649.157714844 320.169921875 634.780273438 c 0
 320.169921875 620.402832031 320.169921875 620.402832031 310.003662109 610.236572266 c 0
 299.837402344 600.0703125 299.837402344 600.0703125 285.459960938 600.0703125 c 2
 112.4296875 600.0703125 l 2
 97.7300039503 599.85979695 97.7300039503 599.85979695 87.349609375 610.26953125 c 0
 81.866800382 615.782647953 81.866800382 615.782647953 79.26953125 623.009765625 c 0
 77.3185339668 628.420031168 77.3185339668 628.420031168 77.23046875 634.259765625 c 2
 77.23046875 634.76953125 l 1
 77.23046875 808.299804688 l 2
 77.23046875 822.677414736 77.23046875 822.677414736 87.3964466242 832.843590181 c 0
 97.5624244984 843.009765625 97.5624244984 843.009765625 111.940429688 843.009765625 c 0
 126.317871094 843.009765625 126.317871094 843.009765625 136.484130859 832.843505859 c 0
 146.650390625 822.677246094 146.650390625 822.677246094 146.650390625 808.299804688 c 2
 146.650390625 718.379882812 l 1
 234.900390625 806.370117188 l 2
 324.223991301 895.755137483 324.223991301 895.755137483 448.139648438 920.450195312 c 0
 572.0638343 945.142171722 572.0638343 945.142171722 688.8203125 896.809570312 c 0
564.040039062 720.240234375 m 1
 564.030273438 532.049804688 l 1
 727.139648438 437.940429688 l 2
 739.596195632 430.756072701 739.596195632 430.756072701 743.321411133 416.867675781 c 0
 747.046626634 402.979278861 747.046626634 402.979278861 739.860351562 390.530273438 c 0
 732.676109625 378.073925719 732.676109625 378.073925719 718.787597656 374.348876953 c 0
 704.899085688 370.623828188 704.899085688 370.623828188 692.450195312 377.809570312 c 2
 512.549804688 481.599609375 l 2
 510.758839343 482.593609845 510.758839343 482.593609845 509.120117188 483.76953125 c 0
 503.022544681 488.135676436 503.022544681 488.135676436 499.280273438 494.610351562 c 0
 495.522705531 501.086834615 495.522705531 501.086834615 494.780273438 508.599609375 c 0
 494.588842156 510.57581351 494.588842156 510.57581351 494.620117188 512.650390625 c 2
 494.620117188 720.240234375 l 2
 494.620117188 734.617675781 494.620117188 734.617675781 504.786376953 744.783935547 c 0
 514.952636719 754.950195312 514.952636719 754.950195312 529.330078125 754.950195312 c 0
 543.707519531 754.950195312 543.707519531 754.950195312 553.873779297 744.783935547 c 0
 564.040039062 734.617675781 564.040039062 734.617675781 564.040039062 720.240234375 c 1
EndSplineSet
EndChar

StartChar: uniE018
Encoding: 57368 57368 27
Width: 1024
Flags: H
LayerCount: 2
Fore
SplineSet
922.059570312 849.940429688 m 2
 584.139648438 512 l 1
 922.0703125 174.059570312 l 2
 937.010253906 159.119628906 937.010253906 159.119628906 937.010253906 138 c 0
 937.010253906 116.880371094 937.010253906 116.880371094 922.0703125 101.940429688 c 0
 907.130371094 86.9997558594 907.130371094 86.9997558594 886.010253906 86.9997558594 c 0
 864.890136719 86.9997558594 864.890136719 86.9997558594 849.950195312 101.940429688 c 2
 512.009765625 439.870117188 l 1
 174.0703125 101.940429688 l 2
 159.130371094 86.9997558594 159.130371094 86.9997558594 138.005371094 86.9997558594 c 0
 116.880371094 86.9997558594 116.880371094 86.9997558594 101.940429688 101.940429688 c 0
 86.9997558594 116.880371094 86.9997558594 116.880371094 86.9997558594 138 c 0
 86.9997558594 159.119628906 86.9997558594 159.119628906 101.940429688 174.059570312 c 2
 439.870117188 511.990234375 l 1
 101.9296875 849.9296875 l 2
 86.9897460938 864.869628906 86.9897460938 864.869628906 86.9897460938 885.994628906 c 0
 86.9897460938 907.119628906 86.9897460938 907.119628906 101.9296875 922.059570312 c 0
 116.869628906 937.000244141 116.869628906 937.000244141 137.994628906 937.000244141 c 0
 159.119628906 937.000244141 159.119628906 937.000244141 174.059570312 922.059570312 c 2
 512 584.129882812 l 1
 849.940429688 922.0703125 l 2
 864.880371094 937.010253906 864.880371094 937.010253906 886 937.010253906 c 0
 907.119628906 937.010253906 907.119628906 937.010253906 922.059570312 922.0703125 c 0
 937.000244141 907.130371094 937.000244141 907.130371094 937.000244141 886.005371094 c 0
 937.000244141 864.880371094 937.000244141 864.880371094 922.059570312 849.940429688 c 2
EndSplineSet
EndChar

StartChar: uniE019
Encoding: 57369 57369 28
Width: 1024
Flags: H
LayerCount: 2
Fore
SplineSet
245.669921875 704.299804688 m 0
 196.291506927 681.506120442 196.291506927 681.506120442 172.005616745 654.828732936 c 0
 147.719726562 628.15134543 147.719726562 628.15134543 147.719726562 603.0703125 c 0
 147.719726562 577.986715625 147.719726562 577.986715625 172.006611018 551.306177283 c 0
 196.293495473 524.625638941 196.293495473 524.625638941 245.669921875 501.83984375 c 0
 355.171481124 451.290039062 355.171481124 451.290039062 512 451.290039062 c 0
 668.790240135 451.290039062 668.790240135 451.290039062 778.330078125 501.83984375 c 0
 827.706504527 524.625638941 827.706504527 524.625638941 851.993388982 551.306177283 c 0
 876.280273438 577.986715625 876.280273438 577.986715625 876.280273438 603.0703125 c 0
 876.280273438 628.153232397 876.280273438 628.153232397 851.993330343 654.833648007 c 0
 827.706387248 681.514063618 827.706387248 681.514063618 778.330078125 704.299804688 c 0
 668.812460104 754.849609375 668.812460104 754.849609375 512 754.849609375 c 0
 355.206278874 754.849609375 355.206278874 754.849609375 245.669921875 704.299804688 c 0
876.290039062 491.1796875 m 1
 846.170513442 466.273021119 846.170513442 466.273021119 803.780273438 446.709960938 c 0
 794.79877221 442.5622993 794.79877221 442.5622993 785.219726562 438.639648438 c 1
 785.219726562 322.059570312 l 1
 786.8203125 322.860351562 l 2
 832.498831467 345.696181213 832.498831467 345.696181213 854.394435265 371.791489614 c 0
 876.290039062 397.886798016 876.290039062 397.886798016 876.290039062 420.9296875 c 2
 876.290039062 491.1796875 l 1
542.360351562 391.08984375 m 0
 542.360351562 269.639648438 l 1
 643.987937341 273.024900296 643.987937341 273.024900296 724.5 298.139648438 c 1
 724.5 417.98046875 l 1
 640.254020444 394.409258515 640.254020444 394.409258515 542.360351562 391.08984375 c 0
512 208.4296875 m 0
 330.270507812 208.4296875 330.270507812 208.4296875 210.030273438 268.549804688 c 0
 153.663808012 296.7330374 153.663808012 296.7330374 120.331904006 336.042438979 c 0
 87 375.351840557 87 375.351840557 87 420.9296875 c 2
 87 603.0703125 l 2
 87 652.123114508 87 652.123114508 123.661378777 691.952801856 c 0
 160.322757553 731.782489205 160.322757553 731.782489205 220.219726562 759.4296875 c 0
 341.882421739 815.5703125 341.882421739 815.5703125 512 815.5703125 c 0
 682.151340629 815.5703125 682.151340629 815.5703125 803.780273438 759.4296875 c 0
 863.677242447 731.782489205 863.677242447 731.782489205 900.338621223 691.952801856 c 0
 937 652.123114508 937 652.123114508 937 603.0703125 c 2
 937 420.9296875 l 2
 937 375.351840557 937 375.351840557 903.668095994 336.042438979 c 0
 870.336191988 296.7330374 870.336191988 296.7330374 813.969726562 268.549804688 c 0
 693.713520635 208.4296875 693.713520635 208.4296875 512 208.4296875 c 0
481.639648438 269.639648438 m 1
 481.639648438 391.080078125 l 1
 383.754069328 394.397765365 383.754069328 394.397765365 299.5 417.969726562 c 1
 299.5 298.129882812 l 1
 380.006423826 273.015322502 380.006423826 273.015322502 481.639648438 269.639648438 c 1
238.780273438 322.059570312 m 1
 238.780273438 438.639648438 l 1
 229.20122779 442.5622993 229.20122779 442.5622993 220.219726562 446.709960938 c 0
 177.829486558 466.273021119 177.829486558 466.273021119 147.709960938 491.1796875 c 1
 147.709960938 420.9296875 l 2
 147.709960938 397.886798016 147.709960938 397.886798016 169.605564735 371.791489614 c 0
 191.501168533 345.696181213 191.501168533 345.696181213 237.1796875 322.860351562 c 0
 238.204473252 322.33757872 238.204473252 322.33757872 238.780273438 322.059570312 c 1
EndSplineSet
EndChar

StartChar: uniE01A
Encoding: 57370 57370 29
Width: 1024
Flags: H
LayerCount: 2
Fore
SplineSet
209.950195312 732.150390625 m 0
 175.58652362 716.68985691 175.58652362 716.68985691 159.628222747 699.5423855 c 0
 143.669921875 682.394914089 143.669921875 682.394914089 143.669921875 667.830078125 c 0
 143.669921875 653.267190343 143.669921875 653.267190343 159.627358765 636.12252345 c 0
 175.584795655 618.977856557 175.584795655 618.977856557 209.950195312 603.509765625 c 0
 244.571458398 587.926509159 244.571458398 587.926509159 289.790039062 578.940429688 c 0
 290.690470284 578.798520722 290.690470284 578.798520722 291.860351562 578.540039062 c 0
 342.621609961 568.669921875 342.621609961 568.669921875 398.669921875 568.669921875 c 0
 454.717680338 568.669921875 454.717680338 568.669921875 505.48046875 578.540039062 c 0
 506.432153433 578.764286603 506.432153433 578.764286603 507.549804688 578.940429688 c 0
 552.81945719 587.949496927 552.81945719 587.949496927 587.389648438 603.509765625 c 0
 621.75332013 618.97029934 621.75332013 618.97029934 637.711621003 636.11777075 c 0
 653.669921875 653.265242161 653.669921875 653.265242161 653.669921875 667.830078125 c 0
 653.669921875 682.392965907 653.669921875 682.392965907 637.712484985 699.5376328 c 0
 621.755048095 716.682299693 621.755048095 716.682299693 587.389648438 732.150390625 c 0
 509.953964936 767 509.953964936 767 398.669921875 767 c 0
 287.385878814 767 287.385878814 767 209.950195312 732.150390625 c 0
483.669921875 517.5703125 m 1
 442.206356458 512 442.206356458 512 398.669921875 512 c 0
 355.133487292 512 355.133487292 512 313.669921875 517.5703125 c 1
 313.669921875 433.129882812 l 1
 354.742035885 427.009765625 354.742035885 427.009765625 398.669921875 427.009765625 c 0
 442.48581152 427.009765625 442.48581152 427.009765625 483.669921875 433.129882812 c 1
 483.669921875 517.5703125 l 1
540.33984375 445.049804688 m 1
 566.1459831 452.249742528 566.1459831 452.249742528 587.4296875 461.830078125 c 0
 621.777866181 477.285334646 621.777866181 477.285334646 637.728776841 494.435068188 c 0
 653.6796875 511.58480173 653.6796875 511.58480173 653.6796875 526.169921875 c 2
 653.6796875 576 l 1
 634.760272637 562.688049797 634.760272637 562.688049797 610.650390625 551.83984375 c 0
 579.041066478 537.627214247 579.041066478 537.627214247 540.33984375 528.169921875 c 1
 540.33984375 445.049804688 l 1
483.669921875 358.150390625 m 1
 459.924550093 363.899331515 459.924550093 363.899331515 438.530273438 371.540039062 c 1
 418.674384609 370.33984375 418.674384609 370.33984375 398.669921875 370.33984375 c 0
 384.349609375 370.33984375 384.349609375 370.33984375 370.33984375 370.940429688 c 1
 370.33984375 356.169921875 l 2
 370.33984375 341.585011171 370.33984375 341.585011171 386.291000547 324.435214703 c 0
 402.242157343 307.285418235 402.242157343 307.285418235 436.58984375 291.830078125 c 0
 457.875069744 282.249724961 457.875069744 282.249724961 483.669921875 275.049804688 c 1
 483.669921875 358.150390625 l 1
540.33984375 263.129882812 m 1
 581.523954105 257.009765625 581.523954105 257.009765625 625.33984375 257.009765625 c 0
 669.26772974 257.009765625 669.26772974 257.009765625 710.33984375 263.129882812 c 1
 710.33984375 347.5703125 l 1
 668.948970418 342.009765625 668.948970418 342.009765625 625.33984375 342.009765625 c 0
 581.857301868 342.009765625 581.857301868 342.009765625 540.33984375 347.58984375 c 1
 540.33984375 263.129882812 l 1
257 528.169921875 m 1
 218.297688971 537.627480192 218.297688971 537.627480192 186.690429688 551.83984375 c 0
 162.580589994 562.687332899 162.580589994 562.687332899 143.66015625 576 c 1
 143.66015625 526.169921875 l 2
 143.66015625 511.584480753 143.66015625 511.584480753 159.613040895 494.434843657 c 0
 175.565925541 477.285206561 175.565925541 477.285206561 209.919921875 461.830078125 c 0
 231.162268984 452.261693417 231.162268984 452.261693417 257 445.049804688 c 1
 257 528.169921875 l 1
186.690429688 783.830078125 m 0
 275.197671527 823.66015625 275.197671527 823.66015625 398.650390625 823.66015625 c 0
 522.086613763 823.66015625 522.086613763 823.66015625 610.620117188 783.8203125 c 0
 654.734179485 763.97089283 654.734179485 763.97089283 682.521874899 734.5725826 c 0
 710.309570312 705.17427237 710.309570312 705.17427237 710.309570312 667.830078125 c 2
 710.309570312 648.120117188 l 1
 797.755314364 636.241475806 797.755314364 636.241475806 857.330078125 603.8203125 c 0
 936.725829954 560.632404726 936.725829954 560.632404726 936.98046875 498.200195312 c 2
 936.98046875 356.169921875 l 2
 936.98046875 318.801640299 936.98046875 318.801640299 909.202612408 289.398562764 c 0
 881.424756066 259.995485228 881.424756066 259.995485228 837.309570312 240.150390625 c 0
 748.827209173 200.33984375 748.827209173 200.33984375 625.3203125 200.33984375 c 0
 501.813990607 200.33984375 501.813990607 200.33984375 413.330078125 240.150390625 c 0
 369.218822093 259.997735579 369.218822093 259.997735579 341.439489172 289.400609463 c 0
 313.66015625 318.803483347 313.66015625 318.803483347 313.66015625 356.169921875 c 2
 313.66015625 375.900390625 l 1
 241.207585609 385.615625042 241.207585609 385.615625042 186.669921875 410.150390625 c 0
 142.558665843 429.997735579 142.558665843 429.997735579 114.779332922 459.400609463 c 0
 87 488.803483347 87 488.803483347 87 526.169921875 c 2
 87 667.83984375 l 2
 87 705.18412032 87 705.18412032 114.787889534 734.582439725 c 0
 142.575779068 763.98075913 142.575779068 763.98075913 186.690429688 783.830078125 c 0
880.330078125 405.959960938 m 1
 861.379568215 392.645739319 861.379568215 392.645739319 837.3203125 381.8203125 c 0
 805.76418328 367.615420882 805.76418328 367.615420882 766.990234375 358.16015625 c 1
 766.990234375 275.049804688 l 1
 792.785086506 282.249724961 792.785086506 282.249724961 814.0703125 291.830078125 c 0
 848.42059709 307.286587333 848.42059709 307.286587333 864.370454795 324.433111144 c 0
 880.3203125 341.579634954 880.3203125 341.579634954 880.3203125 356.169921875 c 2
 880.330078125 405.959960938 l 1
625.330078125 398.669921875 m 0
 681.183111572 398.669921875 681.183111572 398.669921875 731.860351562 408.469726562 c 0
 733.251258263 408.809550359 733.251258263 408.809550359 734.490234375 408.990234375 c 0
 779.582875058 417.980803502 779.582875058 417.980803502 814.0703125 433.5 c 0
 848.426907137 448.956297356 848.426907137 448.956297356 864.378492631 466.102661913 c 0
 880.330078125 483.249026469 880.330078125 483.249026469 880.330078125 497.83984375 c 0
 880.330078125 526.813051797 880.330078125 526.813051797 830.259765625 554.059570312 c 0
 782.590651768 580.014821477 782.590651768 580.014821477 710.330078125 590.889648438 c 1
 710.330078125 526.169921875 l 2
 710.330078125 488.803483347 710.330078125 488.803483347 682.550745203 459.400609463 c 0
 654.771412282 429.997735579 654.771412282 429.997735579 610.66015625 410.150390625 c 0
 598.512901215 404.689901804 598.512901215 404.689901804 585.469726562 399.990234375 c 1
 605.166240311 398.669921875 605.166240311 398.669921875 625.330078125 398.669921875 c 0
EndSplineSet
EndChar

StartChar: uniE01B
Encoding: 57371 57371 30
Width: 1024
Flags: H
LayerCount: 2
Fore
SplineSet
279.450195312 773.940429688 m 0
 216.639648438 666.259465779 216.639648438 666.259465779 216.639648438 512 c 0
 216.639648438 357.768098078 216.639648438 357.768098078 279.450195312 250.059570312 c 0
 307.86263124 201.354692092 307.86263124 201.354692092 342.72542167 176.177346046 c 0
 377.588212101 151 377.588212101 151 413.540039062 151 c 0
 449.493091725 151 449.493091725 151 484.360546455 176.178022022 c 0
 519.228001184 201.356044044 519.228001184 201.356044044 547.639648438 250.059570312 c 0
 551.189310848 256.167411604 551.189310848 256.167411604 554.370117188 262.150390625 c 0
 555.429615948 264.671618763 555.429615948 264.671618763 556.900390625 266.990234375 c 0
 610.450195312 371.350886213 610.450195312 371.350886213 610.450195312 511.990234375 c 0
 610.450195312 652.629582537 610.450195312 652.629582537 556.900390625 756.990234375 c 0
 555.429643625 759.307326731 555.429643625 759.307326731 554.370117188 761.830078125 c 0
 551.180497347 767.843855345 551.180497347 767.843855345 547.639648438 773.919921875 c 0
 519.22532592 822.628034108 519.22532592 822.628034108 484.364614628 847.804251429 c 0
 449.503903336 872.98046875 449.503903336 872.98046875 413.540039062 872.98046875 c 0
 377.577400472 872.98046875 377.577400472 872.98046875 342.721353812 847.804927961 c 0
 307.865307152 822.629387172 307.865307152 822.629387172 279.450195312 773.940429688 c 0
604.129882812 216.639648438 m 1
 582.094866734 178.946983033 582.094866734 178.946983033 554.870117188 151 c 1
 610.459960938 151 l 2
 670.926360834 151 670.926360834 151 722.01953125 216.639648438 c 1
 604.129882812 216.639648438 l 1
761.1796875 282.280273438 m 1
 800.954951326 368.829901901 800.954951326 368.829901901 806.540039062 479.190429688 c 1
 675.33984375 479.190429688 l 1
 670.433120922 372.183383209 670.433120922 372.183383209 635.549804688 282.280273438 c 1
 761.1796875 282.280273438 l 1
675.33984375 544.830078125 m 1
 806.540039062 544.830078125 l 1
 800.954958057 655.189033833 800.954958057 655.189033833 761.1796875 741.740234375 c 1
 635.549804688 741.740234375 l 1
 670.433120922 651.837124604 670.433120922 651.837124604 675.33984375 544.830078125 c 1
801.200195312 217.030273438 m 0
 766.008592453 156.709971816 766.008592453 156.709971816 716.979346207 121.040044502 c 0
 667.95009996 85.3701171875 667.95009996 85.3701171875 610.459960938 85.3701171875 c 2
 413.549804688 85.3701171875 l 2
 356.021986572 85.3701171875 356.021986572 85.3701171875 306.985776414 121.026838288 c 0
 257.949566255 156.683559389 257.949566255 156.683559389 222.759765625 217 c 0
 151 340.007172806 151 340.007172806 151 512.009765625 c 0
 151 684.013916069 151 684.013916069 222.759765625 807.01953125 c 0
 257.949469383 867.33657771 257.949469383 867.33657771 306.985678302 902.993484167 c 0
 356.021887221 938.650390625 356.021887221 938.650390625 413.549804688 938.650390625 c 2
 610.459960938 938.650390625 l 2
 667.949863705 938.650390625 667.949863705 938.650390625 716.979112766 902.980274996 c 0
 766.008361827 867.310159366 766.008361827 867.310159366 801.200195312 806.990234375 c 0
 873 683.941137674 873 683.941137674 873 512.009765625 c 0
 873 340.079370138 873 340.079370138 801.200195312 217.030273438 c 0
722.01953125 807.370117188 m 1
 670.927498437 873.009765625 670.927498437 873.009765625 610.459960938 873.009765625 c 2
 554.870117188 873.009765625 l 1
 582.097071037 845.060519812 582.097071037 845.060519812 604.129882812 807.370117188 c 1
 722.01953125 807.370117188 l 1
EndSplineSet
EndChar

StartChar: uniE01C
Encoding: 57372 57372 31
Width: 1024
Flags: H
LayerCount: 2
Fore
SplineSet
263.5 938 m 2
 902.5 938 l 2
 917 938 917 938 927.5 927.5 c 0
 938 917 938 917 938 902.5 c 2
 938 263.5 l 2
 938 249 938 249 927.5 238.5 c 0
 917 228 917 228 902.5 228 c 0
 888 228 888 228 877.5 238.5 c 0
 867 249 867 249 867 263.5 c 2
 867 867 l 1
 263.5 867 l 2
 249 867 249 867 238.5 877.5 c 0
 228 888 228 888 228 902.5 c 0
 228 917 228 917 238.5 927.5 c 0
 249 938 249 938 263.5 938 c 2
121.5 796 m 2
 760.5 796 l 2
 775 796 775 796 785.5 785.5 c 0
 796 775 796 775 796 760.5 c 2
 796 121.5 l 2
 796 107 796 107 785.5 96.5 c 0
 775 86 775 86 760.5 86 c 2
 121.5 86 l 2
 107 86 107 86 96.5 96.5 c 0
 86 107 86 107 86 121.5 c 2
 86 760.5 l 2
 86 775 86 775 96.5 785.5 c 0
 107 796 107 796 121.5 796 c 2
157 157 m 1
 725 157 l 1
 725 725 l 1
 157 725 l 1
 157 157 l 1
EndSplineSet
EndChar

StartChar: uniE01D
Encoding: 57373 57373 32
Width: 1024
Flags: H
LayerCount: 2
Fore
SplineSet
512 872.459960938 m 0
 414.079542412 872.459960938 414.079542412 872.459960938 331.044869327 824.224882348 c 0
 248.010196242 775.989803758 248.010196242 775.989803758 199.775117652 692.955130673 c 0
 151.540039062 609.920457588 151.540039062 609.920457588 151.540039062 512 c 0
 151.540039062 414.079542412 151.540039062 414.079542412 199.775117652 331.044869327 c 0
 248.010196242 248.010196242 248.010196242 248.010196242 331.044869327 199.775117652 c 0
 414.079542412 151.540039062 414.079542412 151.540039062 512 151.540039062 c 0
 609.919667065 151.540039062 609.919667065 151.540039062 692.954933042 199.777287791 c 0
 775.99019902 248.01453652 775.99019902 248.01453652 824.225079979 331.049209605 c 0
 872.459960938 414.08388269 872.459960938 414.08388269 872.459960938 512 c 0
 872.459960938 609.915326787 872.459960938 609.915326787 824.22290984 692.950592764 c 0
 775.985858742 775.985858742 775.985858742 775.985858742 692.950592764 824.22290984 c 0
 609.915326787 872.459960938 609.915326787 872.459960938 512 872.459960938 c 0
86 512 m 0
 86 688 86 688 211 813 c 0
 336 938 336 938 512 938 c 0
 688 938 688 938 813 813 c 0
 938 688 938 688 938 512 c 0
 938 336 938 336 813 211 c 0
 688 86 688 86 512 86 c 0
 336 86 336 86 211 211 c 0
 86 336 86 336 86 512 c 0
544.76953125 741.379882812 m 2
 544.76953125 708.610351562 l 1
 610.309570312 708.610351562 l 2
 623.885009766 708.610351562 623.885009766 708.610351562 633.482543945 699.012817383 c 0
 643.080078125 689.415283203 643.080078125 689.415283203 643.080078125 675.83984375 c 0
 643.080078125 662.265061224 643.080078125 662.265061224 633.482506197 652.667686862 c 0
 623.884934269 643.0703125 623.884934269 643.0703125 610.309570312 643.0703125 c 2
 462.849609375 643.0703125 l 2
 442.490234375 643.0703125 442.490234375 643.0703125 428.08984375 628.669921875 c 0
 413.690429688 614.270507812 413.690429688 614.270507812 413.690429688 593.91015625 c 0
 413.690429688 573.549804688 413.690429688 573.549804688 428.08984375 559.150390625 c 0
 442.488709233 544.75 442.488709233 544.75 462.849609375 544.75 c 2
 561.16015625 544.75 l 2
 608.669921875 544.75 608.669921875 544.75 642.259765625 511.16015625 c 0
 675.849609375 477.555055485 675.849609375 477.555055485 675.849609375 430.059570312 c 0
 675.849609375 382.549804688 675.849609375 382.549804688 642.259765625 348.959960938 c 0
 608.65466486 315.370117188 608.65466486 315.370117188 561.16015625 315.370117188 c 2
 544.780273438 315.370117188 l 1
 544.780273438 282.599609375 l 2
 544.780273438 269.024826849 544.780273438 269.024826849 535.182701509 259.427452487 c 0
 525.585129581 249.830078125 525.585129581 249.830078125 512.009765625 249.830078125 c 0
 498.435058594 249.830078125 498.435058594 249.830078125 488.837646484 259.427490234 c 0
 479.240234375 269.024902344 479.240234375 269.024902344 479.240234375 282.599609375 c 2
 479.240234375 315.370117188 l 1
 413.700195312 315.370117188 l 2
 400.124831356 315.370117188 400.124831356 315.370117188 390.527259428 324.967491549 c 0
 380.9296875 334.564865911 380.9296875 334.564865911 380.9296875 348.139648438 c 0
 380.9296875 361.715087891 380.9296875 361.715087891 390.52722168 371.31262207 c 0
 400.124755859 380.91015625 400.124755859 380.91015625 413.700195312 380.91015625 c 2
 561.16015625 380.91015625 l 2
 581.520507812 380.91015625 581.520507812 380.91015625 595.919921875 395.309570312 c 0
 610.3203125 409.711486241 610.3203125 409.711486241 610.3203125 430.0703125 c 0
 610.3203125 450.4296875 610.3203125 450.4296875 595.919921875 464.830078125 c 0
 581.51953125 479.23046875 581.51953125 479.23046875 561.16015625 479.23046875 c 2
 462.849609375 479.23046875 l 2
 415.33831881 479.23046875 415.33831881 479.23046875 381.75 512.8203125 c 0
 348.16015625 546.41015625 348.16015625 546.41015625 348.16015625 593.919921875 c 0
 348.16015625 641.4296875 348.16015625 641.4296875 381.75 675.01953125 c 0
 415.339295329 708.610351562 415.339295329 708.610351562 462.849609375 708.610351562 c 2
 479.23046875 708.610351562 l 1
 479.23046875 741.379882812 l 2
 479.23046875 754.955246769 479.23046875 754.955246769 488.827843112 764.552818697 c 0
 498.425217474 774.150390625 498.425217474 774.150390625 512 774.150390625 c 0
 525.574782526 774.150390625 525.574782526 774.150390625 535.172156888 764.552818697 c 0
 544.76953125 754.955246769 544.76953125 754.955246769 544.76953125 741.379882812 c 2
EndSplineSet
EndChar

StartChar: uniE01E
Encoding: 57374 57374 33
Width: 1024
Flags: H
LayerCount: 2
Fore
SplineSet
542.379882812 906.879882812 m 0
 542.370117188 846.120117188 l 1
 572.75 846.120117188 l 2
 609.020967671 846.120117188 609.020967671 846.120117188 642.5 832.25 c 0
 675.998158 818.371959187 675.998158 818.371959187 701.629882812 792.740234375 c 0
 727.274602389 767.079233376 727.274602389 767.079233376 741.139648438 733.610351562 c 0
 755.009765625 700.131319234 755.009765625 700.131319234 755.009765625 663.870117188 c 0
 755.009765625 651.284912109 755.009765625 651.284912109 746.112426758 642.387573242 c 0
 737.215087891 633.490234375 737.215087891 633.490234375 724.629882812 633.490234375 c 0
 712.044677734 633.490234375 712.044677734 633.490234375 703.147338867 642.387573242 c 0
 694.25 651.284912109 694.25 651.284912109 694.25 663.870117188 c 0
 694.25 688.055989011 694.25 688.055989011 685 710.370117188 c 0
 675.738706707 732.711488605 675.738706707 732.711488605 658.66015625 749.790039062 c 0
 641.574691284 766.875504029 641.574691284 766.875504029 619.25 776.129882812 c 0
 596.935871824 785.379882812 596.935871824 785.379882812 572.75 785.379882812 c 2
 542.370117188 785.379882812 l 1
 542.370117188 542.379882812 l 1
 603.120117188 542.379882812 l 2
 678.608826423 542.379882812 678.608826423 542.379882812 731.990234375 489 c 0
 785.370117188 435.620117188 785.370117188 435.620117188 785.370117188 360.129882812 c 0
 785.370117188 284.641173577 785.370117188 284.641173577 731.990234375 231.259765625 c 0
 678.608826423 177.879882812 678.608826423 177.879882812 603.120117188 177.879882812 c 2
 542.370117188 177.879882812 l 1
 542.370117188 117.129882812 l 2
 542.370117188 104.544846377 542.370117188 104.544846377 533.472496432 95.6474231883 c 0
 524.574875677 86.75 524.574875677 86.75 511.990234375 86.75 c 0
 499.405029297 86.75 499.405029297 86.75 490.50769043 95.6473388672 c 0
 481.610351562 104.544677734 481.610351562 104.544677734 481.610351562 117.129882812 c 2
 481.610351562 177.879882812 l 1
 420.860351562 177.879882812 l 2
 345.370117188 177.879882812 345.370117188 177.879882812 291.990234375 231.259765625 c 0
 238.610351562 284.639648438 238.610351562 284.639648438 238.610351562 360.129882812 c 0
 238.610351562 372.715087891 238.610351562 372.715087891 247.50769043 381.612426758 c 0
 256.405029297 390.509765625 256.405029297 390.509765625 268.990234375 390.509765625 c 0
 281.574875677 390.509765625 281.574875677 390.509765625 290.472496432 381.612342437 c 0
 299.370117188 372.714919248 299.370117188 372.714919248 299.370117188 360.129882812 c 0
 299.370117188 309.809570312 299.370117188 309.809570312 334.959960938 274.219726562 c 0
 370.534554294 238.629882812 370.534554294 238.629882812 420.870117188 238.629882812 c 2
 481.620117188 238.629882812 l 1
 481.620117188 481.629882812 l 1
 436.059570312 481.629882812 l 2
 360.5703125 481.629882812 360.5703125 481.629882812 307.190429688 535.009765625 c 0
 253.809570312 588.390625 253.809570312 588.390625 253.809570312 663.879882812 c 0
 253.809570312 739.370665749 253.809570312 739.370665749 307.190429688 792.75 c 0
 360.5703125 846.129882812 360.5703125 846.129882812 436.059570312 846.129882812 c 2
 481.620117188 846.129882812 l 1
 481.620117188 906.879882812 l 2
 481.620117188 919.465087891 481.620117188 919.465087891 490.517456055 928.362426758 c 0
 499.414794922 937.259765625 499.414794922 937.259765625 512 937.259765625 c 0
 524.585205078 937.259765625 524.585205078 937.259765625 533.482543945 928.362426758 c 0
 542.379882812 919.465087891 542.379882812 919.465087891 542.379882812 906.879882812 c 0
481.629882812 785.379882812 m 1
 436.0703125 785.379882812 l 2
 385.734749606 785.379882812 385.734749606 785.379882812 350.16015625 749.790039062 c 0
 314.5703125 714.200195312 314.5703125 714.200195312 314.5703125 663.879882812 c 0
 314.5703125 613.544319919 314.5703125 613.544319919 350.16015625 577.969726562 c 0
 385.75 542.379882812 385.75 542.379882812 436.0703125 542.379882812 c 2
 481.629882812 542.379882812 l 1
 481.629882812 785.379882812 l 1
542.379882812 481.629882812 m 1
 542.379882812 238.629882812 l 1
 603.129882812 238.629882812 l 2
 653.465445706 238.629882812 653.465445706 238.629882812 689.040039062 274.219726562 c 0
 724.629882812 309.809570312 724.629882812 309.809570312 724.629882812 360.129882812 c 0
 724.629882812 410.465445706 724.629882812 410.465445706 689.040039062 446.040039062 c 0
 653.450195312 481.629882812 653.450195312 481.629882812 603.129882812 481.629882812 c 2
 542.379882812 481.629882812 l 1
EndSplineSet
EndChar

StartChar: uniE01F
Encoding: 57375 57375 34
Width: 1024
Flags: H
LayerCount: 2
Fore
SplineSet
875.849609375 345.870117188 m 2
 875.849609375 412.01953125 l 1
 148.150390625 412.01953125 l 1
 148.150390625 345.870117188 l 2
 148.150390625 332.167236328 148.150390625 332.167236328 157.838989258 322.478637695 c 0
 167.527587891 312.790039062 167.527587891 312.790039062 181.23046875 312.790039062 c 2
 842.76953125 312.790039062 l 2
 856.472412109 312.790039062 856.472412109 312.790039062 866.161010742 322.478637695 c 0
 875.849609375 332.167236328 875.849609375 332.167236328 875.849609375 345.870117188 c 2
545.080078125 246.639648438 m 1
 545.080078125 180.48046875 l 1
 644.309570312 180.48046875 l 2
 658.012282534 180.48046875 658.012282534 180.48046875 667.700965486 170.791588227 c 0
 677.389648438 161.102707704 677.389648438 161.102707704 677.389648438 147.400390625 c 0
 677.389648438 133.697509766 677.389648438 133.697509766 667.701049805 124.008911133 c 0
 658.012451172 114.3203125 658.012451172 114.3203125 644.309570312 114.3203125 c 2
 379.690429688 114.3203125 l 2
 365.987548828 114.3203125 365.987548828 114.3203125 356.298950195 124.008911133 c 0
 346.610351562 133.697509766 346.610351562 133.697509766 346.610351562 147.400390625 c 0
 346.610351562 161.102707704 346.610351562 161.102707704 356.299034514 170.791588227 c 0
 365.987717466 180.48046875 365.987717466 180.48046875 379.690429688 180.48046875 c 2
 478.919921875 180.48046875 l 1
 478.919921875 246.629882812 l 1
 181.23046875 246.629882812 l 2
 140.129882812 246.629882812 140.129882812 246.629882812 111.064941406 275.694824219 c 0
 82 304.759765625 82 304.759765625 82 345.860351562 c 2
 82 808.940429688 l 2
 82 850.040358708 82 850.040358708 111.064979159 879.105140292 c 0
 140.129958318 908.169921875 140.129958318 908.169921875 181.23046875 908.169921875 c 2
 842.76953125 908.169921875 l 2
 883.870041682 908.169921875 883.870041682 908.169921875 912.935020841 879.105140292 c 0
 942 850.040358708 942 850.040358708 942 808.940429688 c 2
 942 345.870117188 l 2
 942 304.770095036 942 304.770095036 912.934974277 275.704871737 c 0
 883.869948553 246.639648438 883.869948553 246.639648438 842.76953125 246.639648438 c 2
 545.080078125 246.639648438 l 1
148.150390625 808.940429688 m 2
 148.150390625 478.169921875 l 1
 875.849609375 478.169921875 l 1
 875.849609375 808.940429688 l 2
 875.849609375 822.642653624 875.849609375 822.642653624 866.160972992 832.331092437 c 0
 856.472336609 842.01953125 856.472336609 842.01953125 842.76953125 842.01953125 c 2
 181.23046875 842.01953125 l 2
 167.527663391 842.01953125 167.527663391 842.01953125 157.839027008 832.331092437 c 0
 148.150390625 822.642653624 148.150390625 822.642653624 148.150390625 808.940429688 c 2
EndSplineSet
EndChar

StartChar: uniE020
Encoding: 57376 57376 35
Width: 1024
Flags: H
LayerCount: 2
Fore
SplineSet
86.9697265625 568.240234375 m 2
 86.9697265625 589.517822266 86.9697265625 589.517822266 90.5159912109 593.064086914 c 0
 94.0622558594 596.610351562 94.0622558594 596.610351562 115.33984375 596.610351562 c 2
 228.809570312 596.610351562 l 2
 250.087158203 596.610351562 250.087158203 596.610351562 253.633422852 593.064086914 c 0
 257.1796875 589.517822266 257.1796875 589.517822266 257.1796875 568.240234375 c 2
 257.1796875 454.76953125 l 2
 257.1796875 433.492675781 257.1796875 433.492675781 253.633422852 429.946533203 c 0
 250.087158203 426.400390625 250.087158203 426.400390625 228.809570312 426.400390625 c 2
 115.33984375 426.400390625 l 2
 94.0622558594 426.400390625 94.0622558594 426.400390625 90.5159912109 429.946533203 c 0
 86.9697265625 433.492675781 86.9697265625 433.492675781 86.9697265625 454.76953125 c 2
 86.9697265625 568.240234375 l 2
427.389648438 568.240234375 m 2
 427.389648438 589.517822266 427.389648438 589.517822266 430.935913086 593.064086914 c 0
 434.482177734 596.610351562 434.482177734 596.610351562 455.759765625 596.610351562 c 2
 569.23046875 596.610351562 l 2
 590.507324219 596.610351562 590.507324219 596.610351562 594.053466797 593.064086914 c 0
 597.599609375 589.517822266 597.599609375 589.517822266 597.599609375 568.240234375 c 2
 597.599609375 454.76953125 l 2
 597.599609375 433.492675781 597.599609375 433.492675781 594.053466797 429.946533203 c 0
 590.507324219 426.400390625 590.507324219 426.400390625 569.23046875 426.400390625 c 2
 455.759765625 426.400390625 l 2
 434.482177734 426.400390625 434.482177734 426.400390625 430.935913086 429.946533203 c 0
 427.389648438 433.492675781 427.389648438 433.492675781 427.389648438 454.76953125 c 2
 427.389648438 568.240234375 l 2
767.8203125 568.240234375 m 2
 767.8203125 589.517822266 767.8203125 589.517822266 771.366577148 593.064086914 c 0
 774.912841797 596.610351562 774.912841797 596.610351562 796.190429688 596.610351562 c 2
 909.66015625 596.610351562 l 2
 930.937744141 596.610351562 930.937744141 596.610351562 934.484008789 593.064086914 c 0
 938.030273438 589.517822266 938.030273438 589.517822266 938.030273438 568.240234375 c 2
 938.030273438 454.76953125 l 2
 938.030273438 433.492675781 938.030273438 433.492675781 934.484008789 429.946533203 c 0
 930.937744141 426.400390625 930.937744141 426.400390625 909.66015625 426.400390625 c 2
 796.190429688 426.400390625 l 2
 774.912841797 426.400390625 774.912841797 426.400390625 771.366577148 429.946533203 c 0
 767.8203125 433.492675781 767.8203125 433.492675781 767.8203125 454.76953125 c 2
 767.8203125 568.240234375 l 2
EndSplineSet
EndChar

StartChar: uniE021
Encoding: 57377 57377 36
Width: 1024
Flags: H
LayerCount: 2
Fore
SplineSet
512 766.809570312 m 0
 476.817382812 766.809570312 476.817382812 766.809570312 451.938476562 791.688476562 c 0
 427.059570312 816.567382812 427.059570312 816.567382812 427.059570312 851.75 c 0
 427.059570312 886.932617188 427.059570312 886.932617188 451.938476562 911.811523438 c 0
 476.817382812 936.690429688 476.817382812 936.690429688 512 936.690429688 c 0
 547.182617188 936.690429688 547.182617188 936.690429688 572.061523438 911.811523438 c 0
 596.940429688 886.932617188 596.940429688 886.932617188 596.940429688 851.75 c 0
 596.940429688 816.567382812 596.940429688 816.567382812 572.061523438 791.688476562 c 0
 547.182617188 766.809570312 547.182617188 766.809570312 512 766.809570312 c 0
512 427.059570312 m 0
 476.817382812 427.059570312 476.817382812 427.059570312 451.938476562 451.938476562 c 0
 427.059570312 476.817382812 427.059570312 476.817382812 427.059570312 512 c 0
 427.059570312 547.182617188 427.059570312 547.182617188 451.938476562 572.061523438 c 0
 476.817382812 596.940429688 476.817382812 596.940429688 512 596.940429688 c 0
 547.182617188 596.940429688 547.182617188 596.940429688 572.061523438 572.061523438 c 0
 596.940429688 547.182617188 596.940429688 547.182617188 596.940429688 512 c 0
 596.940429688 476.817382812 596.940429688 476.817382812 572.061523438 451.938476562 c 0
 547.182617188 427.059570312 547.182617188 427.059570312 512 427.059570312 c 0
596.940429688 172.25 m 0
 596.940429688 137.067382812 596.940429688 137.067382812 572.061523438 112.188476562 c 0
 547.182617188 87.3095703125 547.182617188 87.3095703125 512 87.3095703125 c 0
 476.817382812 87.3095703125 476.817382812 87.3095703125 451.938476562 112.188476562 c 0
 427.059570312 137.067382812 427.059570312 137.067382812 427.059570312 172.25 c 0
 427.059570312 207.432617188 427.059570312 207.432617188 451.938476562 232.311523438 c 0
 476.817382812 257.190429688 476.817382812 257.190429688 512 257.190429688 c 0
 547.182617188 257.190429688 547.182617188 257.190429688 572.061523438 232.311523438 c 0
 596.940429688 207.432617188 596.940429688 207.432617188 596.940429688 172.25 c 0
EndSplineSet
EndChar

StartChar: uniE022
Encoding: 57378 57378 37
Width: 1024
Flags: H
LayerCount: 2
Fore
SplineSet
120.370117188 838.360351562 m 2
 903.629882812 838.360351562 l 2
 917.150808643 838.360351562 917.150808643 838.360351562 926.710169946 828.798619337 c 0
 936.26953125 819.236887111 936.26953125 819.236887111 936.26953125 805.719726562 c 2
 936.26953125 250.91015625 l 2
 936.26953125 223.870666129 936.26953125 223.870666129 917.150390625 204.75 c 0
 898.015018836 185.629882812 898.015018836 185.629882812 870.990234375 185.629882812 c 2
 153 185.629882812 l 2
 125.969726562 185.629882812 125.969726562 185.629882812 106.849609375 204.75 c 0
 87.73046875 223.885921168 87.73046875 223.885921168 87.73046875 250.91015625 c 2
 87.73046875 805.719726562 l 2
 87.73046875 819.240838559 87.73046875 819.240838559 97.2918058666 828.800595061 c 0
 106.853142983 838.360351562 106.853142983 838.360351562 120.370117188 838.360351562 c 2
153.009765625 717.650390625 m 1
 153.009765625 250.919921875 l 1
 870.990234375 250.919921875 l 1
 870.990234375 736.059570312 l 1
 534.049804688 422.669921875 l 2
 524.690185547 414.090332031 524.690185547 414.090332031 511.995117188 414.090332031 c 0
 499.300048828 414.090332031 499.300048828 414.090332031 489.940429688 422.669921875 c 2
 153.009765625 717.650390625 l 1
814.990234375 773.08984375 m 1
 188.8203125 773.08984375 l 1
 512 491 l 1
 814.990234375 773.08984375 l 1
EndSplineSet
EndChar

StartChar: uniE023
Encoding: 57379 57379 38
Width: 1024
Flags: H
LayerCount: 2
Fore
SplineSet
530.620117188 898.650390625 m 2
 921.879882812 637.8203125 l 2
 927.245737917 634.398497739 927.245737917 634.398497739 930.950195312 629.209960938 c 0
 937.210592668 620.427149373 937.210592668 620.427149373 937.01953125 609.690429688 c 2
 937.01953125 185.719726562 l 2
 937.01953125 158.669921875 937.01953125 158.669921875 917.889648438 139.540039062 c 0
 898.759765625 120.41015625 898.759765625 120.41015625 871.709960938 120.41015625 c 2
 153.309570312 120.41015625 l 2
 126.259765625 120.41015625 126.259765625 120.41015625 107.129882812 139.540039062 c 0
 88 158.669921875 88 158.669921875 88 185.719726562 c 2
 88 610.26953125 l 2
 88 618.517794898 88 618.517794898 91.919921875 625.75 c 0
 94.0082207383 629.623624431 94.0082207383 629.623624431 97.0498046875 632.799804688 c 0
 99.7050443769 635.601125525 99.7050443769 635.601125525 103.01953125 637.73046875 c 2
 494.400390625 898.650390625 l 2
 512.502189307 910.723095173 512.502189307 910.723095173 530.620117188 898.650390625 c 2
846.860351562 609.330078125 m 1
 512.509765625 832.23046875 l 1
 178.16015625 609.330078125 l 1
 451.530273438 414.309570312 l 1
 573.490234375 414.309570312 l 1
 846.860351562 609.330078125 l 1
153.309570312 546.83984375 m 1
 153.309570312 185.740234375 l 1
 871.709960938 185.740234375 l 1
 871.709960938 546.830078125 l 1
 602.91015625 355.0703125 l 2
 594.41171875 349 594.41171875 349 583.950195312 349 c 2
 441.080078125 349 l 2
 430.618554688 349 430.618554688 349 422.120117188 355.0703125 c 2
 153.309570312 546.83984375 l 1
EndSplineSet
EndChar

StartChar: uniE024
Encoding: 57380 57380 39
Width: 1024
Flags: H
LayerCount: 2
Fore
SplineSet
209.009765625 844.809570312 m 0
 217.693986839 852.708196174 217.693986839 852.708196174 229.424682617 852.150024414 c 0
 241.155378395 851.591852654 241.155378395 851.591852654 249.059570312 842.900390625 c 2
 340.759765625 742.030273438 l 2
 341.139244046 741.638017965 341.139244046 741.638017965 341.610351562 741.099609375 c 2
 436.650390625 636.549804688 l 2
 436.739593497 636.455543921 436.739593497 636.455543921 436.924918762 636.255284915 c 0
 437.320072245 635.834437271 437.320072245 635.834437271 437.508896063 635.616263946 c 0
 437.697719881 635.398090621 437.697719881 635.398090621 437.75 635.33984375 c 2
 723.459960938 321.059570312 l 2
 723.651515935 320.861565651 723.651515935 320.861565651 724.309570312 320.129882812 c 2
 816.030273438 219.240234375 l 2
 823.928161896 210.548684411 823.928161896 210.548684411 823.369873047 198.821655273 c 0
 822.811584198 187.094626136 822.811584198 187.094626136 814.120117188 179.190429688 c 0
 805.428495472 171.291887706 805.428495472 171.291887706 793.701538086 171.849975586 c 0
 781.9745807 172.408063465 781.9745807 172.408063465 774.0703125 181.099609375 c 2
 696.059570312 266.91015625 l 1
 607.899511368 227.752144476 607.899511368 227.752144476 511.440429688 228.509765625 c 0
 449.612742912 228.523988054 449.612742912 228.523988054 392.601546704 244.086673054 c 0
 335.590350497 259.649358055 335.590350497 259.649358055 294.974211108 282.294616008 c 0
 254.358071719 304.939873962 254.358071719 304.939873962 217.824421704 336.269563679 c 0
 181.290771689 367.599253397 181.290771689 367.599253397 159.744351733 393.115944133 c 0
 138.197931777 418.63263487 138.197931777 418.63263487 120 445.969726562 c 0
 119.900390625 446.120117188 l 1
 89.6796875 492.16015625 l 2
 80.9279349902 505.489264209 80.9279349902 505.489264209 87.76953125 519.879882812 c 2
 101.759765625 549.33984375 l 2
 102.516753102 550.938857813 102.516753102 550.938857813 103.5703125 552.58984375 c 2
 122.219726562 581.400390625 l 1
 122.549804688 581.900390625 l 2
 185.52451616 674.822906932 185.52451616 674.822906932 275.23046875 729.830078125 c 1
 207.099609375 804.76953125 l 2
 199.201632373 813.453676472 199.201632373 813.453676472 199.760009766 825.184936523 c 0
 200.318387158 836.916196575 200.318387158 836.916196575 209.009765625 844.809570312 c 0
314.150390625 687.009765625 m 1
 229.144238122 638.021052397 229.144238122 638.021052397 169.639648438 550.330078125 c 2
 152.169921875 523.33984375 l 1
 145.8203125 509.959960938 l 1
 167.25 477.3203125 l 2
 188.545679598 445.345109651 188.545679598 445.345109651 215.72729618 416.472633632 c 0
 242.908912761 387.600157612 242.908912761 387.600157612 285.037596398 355.549354283 c 0
 327.166280036 323.498550955 327.166280036 323.498550955 386.052735633 304.354255946 c 0
 444.93919123 285.209960938 444.93919123 285.209960938 511.5703125 285.209960938 c 0
 586.193734247 284.605276129 586.193734247 284.605276129 655.559570312 311.459960938 c 1
 603.440429688 368.790039062 l 1
 561.434457408 341.727253953 561.434457408 341.727253953 511.490234375 341.91015625 c 0
 458.834362106 341.925143406 458.834362106 341.925143406 415.370117188 371.719726562 c 0
 371.908030616 401.518016755 371.908030616 401.518016755 352.900390625 450.6796875 c 0
 333.901864107 499.815409696 333.901864107 499.815409696 346.01953125 551.129882812 c 0
 354.632591986 587.575657545 354.632591986 587.575657545 377.759765625 617.030273438 c 1
 314.150390625 687.009765625 l 1
401.209960938 538.08984375 m 0
 393.131032006 503.916030674 393.131032006 503.916030674 405.799804688 471.129882812 c 0
 418.476451817 438.339862325 418.476451817 438.339862325 447.440429688 418.490234375 c 0
 476.414122563 398.620117188 476.414122563 398.620117188 511.549804688 398.620117188 c 0
 539.705691836 398.513867329 539.705691836 398.513867329 564.5 411.639648438 c 1
 416.73046875 574.1796875 l 1
 405.788665917 557.472001875 405.788665917 557.472001875 401.209960938 538.08984375 c 0
433.5 789.080078125 m 0
 472.212687433 795.565175221 472.212687433 795.565175221 511.559570312 795.490234375 c 0
 579.27796202 795.487459486 579.27796202 795.487459486 641.15363113 776.807538395 c 0
 703.02930024 758.127617303 703.02930024 758.127617303 745.19102512 732.032578793 c 0
 787.352749999 705.937540283 787.352749999 705.937540283 824.69350613 670.261444645 c 0
 862.034262261 634.585349006 862.034262261 634.585349006 881.54933762 608.655078793 c 0
 901.064412978 582.72480858 901.064412978 582.72480858 916.780273438 556.309570312 c 0
 935.290039062 523.8203125 l 2
 943.903544478 508.681762109 943.903544478 508.681762109 934.309570312 494.169921875 c 2
 915.780273438 466.120117188 l 2
 913.97613399 463.479656539 913.97613399 463.479656539 913.059570312 462.110351562 c 0
 862.061670972 386.395753326 862.061670972 386.395753326 816.049804688 345.240234375 c 0
 807.297046653 337.410266025 807.297046653 337.410266025 795.573608398 338.063598633 c 0
 783.850170144 338.716931241 783.850170144 338.716931241 776.01953125 347.469726562 c 0
 768.190215869 356.222413515 768.190215869 356.222413515 768.84375 367.945922852 c 0
 769.497284131 379.669432188 769.497284131 379.669432188 778.25 387.5 c 0
 818.515381886 423.522497642 818.515381886 423.522497642 865.98046875 493.719726562 c 2
 867.790039062 496.389648438 l 1
 867.790039062 496.41015625 l 1
 868.76953125 497.830078125 l 1
 868.91015625 498.049804688 l 1
 877.41015625 510.91015625 l 1
 873.549804688 517.690429688 l 1
 868.059570312 527.349609375 l 1
 867.919921875 527.580078125 l 2
 853.655259087 551.529760922 853.655259087 551.529760922 836.051598814 574.826130271 c 0
 818.447938541 598.122499621 818.447938541 598.122499621 785.570018373 629.405525979 c 0
 752.692098205 660.688552336 752.692098205 660.688552336 715.620567564 683.535411521 c 0
 678.549036923 706.382270707 678.549036923 706.382270707 624.562112123 722.601291604 c 0
 570.575187324 738.8203125 570.575187324 738.8203125 511.540039062 738.8203125 c 2
 511.48046875 738.8203125 l 2
 476.959913728 738.895095794 476.959913728 738.895095794 442.870117188 733.1796875 c 0
 431.289748895 731.244621215 431.289748895 731.244621215 421.731296369 738.062152956 c 0
 412.172843843 744.879684697 412.172843843 744.879684697 410.23046875 756.459960938 c 0
 408.295416794 768.040243481 408.295416794 768.040243481 415.112776427 777.59873169 c 0
 421.93013606 787.1572199 421.93013606 787.1572199 433.5 789.080078125 c 0
543.419921875 679.120117188 m 0
 599.172553449 668.541738356 599.172553449 668.541738356 637.370117188 626.5703125 c 0
 675.560746874 584.605001313 675.560746874 584.605001313 680.830078125 528.08984375 c 0
 681.925105259 516.404182952 681.925105259 516.404182952 674.428560025 507.366003888 c 0
 666.932014792 498.327824823 666.932014792 498.327824823 655.240234375 497.240234375 c 0
 643.547025557 496.152511054 643.547025557 496.152511054 634.507239025 503.650398823 c 0
 625.467452493 511.148286593 625.467452493 511.148286593 624.379882812 522.83984375 c 0
 620.883035232 560.465562595 620.883035232 560.465562595 595.440429688 588.419921875 c 0
 570.001637327 616.368438353 570.001637327 616.368438353 532.870117188 623.41015625 c 0
 521.330594452 625.592260302 521.330594452 625.592260302 514.718751233 635.297335776 c 0
 508.106908014 645.002411251 508.106908014 645.002411251 510.290039062 656.540039062 c 0
 512.472143114 668.079561798 512.472143114 668.079561798 522.177218589 674.691405017 c 0
 531.882294064 681.303248236 531.882294064 681.303248236 543.419921875 679.120117188 c 0
EndSplineSet
EndChar

StartChar: uniE025
Encoding: 57381 57381 40
Width: 1024
Flags: H
LayerCount: 2
Fore
SplineSet
512 794 m 0
 699.9296875 794 699.9296875 794 835.08984375 658.83984375 c 0
 877.004558042 616.925129458 877.004558042 616.925129458 908.629882812 566.6796875 c 0
 918.628693845 550.804727916 918.628693845 550.804727916 926.379882812 535.990234375 c 0
 929.021935986 530.947148248 929.021935986 530.947148248 930.870117188 527.08984375 c 0
 931.602529182 525.567493149 931.602529182 525.567493149 932.059570312 524.5703125 c 2
 932.400390625 523.830078125 l 1
 932.509765625 523.599609375 l 1
 932.559570312 523.490234375 l 2
 937.671564959 512.004882812 937.671564959 512.004882812 932.580078125 500.549804688 c 0
 932.549804688 500.490234375 l 1
 932.400390625 500.1796875 l 1
 932.059570312 499.440429688 l 2
 931.499861956 498.217290797 931.499861956 498.217290797 930.870117188 496.919921875 c 0
 928.924598983 492.878084533 928.924598983 492.878084533 926.379882812 488.01953125 c 0
 918.60711922 473.183071244 918.60711922 473.183071244 908.629882812 457.330078125 c 0
 877.004558042 407.084636167 877.004558042 407.084636167 835.08984375 365.169921875 c 0
 699.9296875 230.009765625 699.9296875 230.009765625 512 230.009765625 c 0
 324.050679399 230.009765625 324.050679399 230.009765625 188.91015625 365.169921875 c 0
 146.995441958 407.084636167 146.995441958 407.084636167 115.370117188 457.330078125 c 0
 105.371306155 473.205037709 105.371306155 473.205037709 97.6201171875 488.01953125 c 0
 95.2011407664 492.638013252 95.2011407664 492.638013252 93.1298828125 496.919921875 c 0
 92.3781625054 498.483845732 92.3781625054 498.483845732 91.9404296875 499.440429688 c 2
 91.599609375 500.1796875 l 1
 91.4599609375 500.490234375 l 1
 91.4296875 500.51953125 l 1
 86.3397351704 512.004882812 86.3397351704 512.004882812 91.4296875 523.459960938 c 0
 91.4599609375 523.51953125 l 1
 91.5 523.599609375 l 1
 91.9404296875 524.5703125 l 2
 92.2097126589 525.157838983 92.2097126589 525.157838983 93.1298828125 527.08984375 c 0
 95.3409115836 531.639742766 95.3409115836 531.639742766 97.6201171875 535.990234375 c 0
 105.39288078 550.826694381 105.39288078 550.826694381 115.370117188 566.6796875 c 0
 146.995441958 616.925129458 146.995441958 616.925129458 188.91015625 658.83984375 c 0
 324.0703125 794 324.0703125 794 512 794 c 0
163.08984375 487.370117188 m 0
 191.364552847 442.465525278 191.364552847 442.465525278 228.790039062 405.040039062 c 0
 347.4296875 286.400390625 347.4296875 286.400390625 512 286.400390625 c 0
 676.5703125 286.400390625 676.5703125 286.400390625 795.209960938 405.040039062 c 0
 832.624570906 442.46686485 832.624570906 442.46686485 860.900390625 487.370117188 c 0
 868.901726343 500.086392413 868.901726343 500.086392413 875.259765625 512 c 1
 868.958825579 523.822861538 868.958825579 523.822861538 860.900390625 536.629882812 c 0
 832.603797266 581.566124609 832.603797266 581.566124609 795.209960938 618.959960938 c 0
 676.5703125 737.599609375 676.5703125 737.599609375 512 737.599609375 c 0
 347.4296875 737.599609375 347.4296875 737.599609375 228.790039062 618.959960938 c 0
 191.364552847 581.534474722 191.364552847 581.534474722 163.08984375 536.629882812 c 0
 155.095451806 523.926618736 155.095451806 523.926618736 148.73046875 512 c 1
 155.038339372 500.164134174 155.038339372 500.164134174 163.08984375 487.370117188 c 0
399.200195312 512 m 0
 399.200195312 465.275146484 399.200195312 465.275146484 432.237670898 432.237670898 c 0
 465.275146484 399.200195312 465.275146484 399.200195312 512 399.200195312 c 0
 558.724853516 399.200195312 558.724853516 399.200195312 591.762329102 432.237670898 c 0
 624.799804688 465.275146484 624.799804688 465.275146484 624.799804688 512 c 0
 624.799804688 558.724853516 624.799804688 558.724853516 591.762329102 591.762329102 c 0
 558.724853516 624.799804688 558.724853516 624.799804688 512 624.799804688 c 0
 465.275146484 624.799804688 465.275146484 624.799804688 432.237670898 591.762329102 c 0
 399.200195312 558.724853516 399.200195312 558.724853516 399.200195312 512 c 0
512 681.200195312 m 0
 582.087646484 681.200195312 582.087646484 681.200195312 631.643920898 631.643920898 c 0
 681.200195312 582.087646484 681.200195312 582.087646484 681.200195312 512 c 0
 681.200195312 441.912353516 681.200195312 441.912353516 631.643920898 392.356079102 c 0
 582.087646484 342.799804688 582.087646484 342.799804688 512 342.799804688 c 0
 441.912353516 342.799804688 441.912353516 342.799804688 392.356079102 392.356079102 c 0
 342.799804688 441.912353516 342.799804688 441.912353516 342.799804688 512 c 0
 342.799804688 582.087646484 342.799804688 582.087646484 392.356079102 631.643920898 c 0
 441.912353516 681.200195312 441.912353516 681.200195312 512 681.200195312 c 0
EndSplineSet
EndChar

StartChar: uniE026
Encoding: 57382 57382 41
Width: 1024
Flags: H
LayerCount: 2
Fore
SplineSet
454.280273438 890.240234375 m 1
 463.741456072 916.186390443 463.741456072 916.186390443 487.873205674 926.146484375 c 0
 512.004955276 936.106578307 512.004955276 936.106578307 536.136885472 926.146484375 c 0
 560.268815667 916.186390443 560.268815667 916.186390443 569.73046875 890.240234375 c 2
 651.389648438 666.259765625 l 1
 889.639648438 657.809570312 l 2
 917.238467784 656.831979814 917.238467784 656.831979814 934.168115261 636.958487326 c 0
 951.097762738 617.084994838 951.097762738 617.084994838 949.081233697 591.054859028 c 0
 947.064704656 565.024723218 947.064704656 565.024723218 925.309570312 548.009765625 c 2
 737.530273438 401.139648438 l 1
 803.120117188 171.940429688 l 2
 810.717000507 145.386622084 810.717000507 145.386622084 796.480504919 122.729166667 c 0
 782.244009331 100.07171125 782.244009331 100.07171125 758.572229456 95.1845703125 c 0
 734.900449581 90.2974293752 734.900449581 90.2974293752 709.719726562 104.080078125 c 2
 512.009765625 237.290039062 l 1
 314.299804688 104.080078125 l 2
 289.118838697 90.2978539167 289.118838697 90.2978539167 265.445167824 95.1845703125 c 0
 241.771496952 100.071286708 241.771496952 100.071286708 227.534975405 122.729166667 c 0
 213.298453859 145.387046625 213.298453859 145.387046625 220.900390625 171.940429688 c 2
 286.490234375 401.139648438 l 1
 98.6904296875 548.01953125 l 2
 76.9350399681 565.034688576 76.9350399681 565.034688576 74.9190080332 591.064708807 c 0
 72.9029760984 617.094729039 72.9029760984 617.094729039 89.8348982168 636.968494318 c 0
 106.766820335 656.842259596 106.766820335 656.842259596 134.370117188 657.8203125 c 2
 372.620117188 666.26953125 l 1
 454.280273438 890.240234375 l 1
EndSplineSet
EndChar

StartChar: uniE027
Encoding: 57383 57383 42
Width: 1024
Flags: H
LayerCount: 2
Fore
SplineSet
453.879882812 892.83984375 m 1
 463.404054039 918.964628957 463.404054039 918.964628957 487.702027019 928.993489583 c 0
 512 939.022350209 512 939.022350209 536.297972981 928.993489583 c 0
 560.595945961 918.964628957 560.595945961 918.964628957 570.120117188 892.83984375 c 2
 652.33984375 667.3203125 l 1
 892.23046875 658.8203125 l 2
 920.021578788 657.837551406 920.021578788 657.837551406 937.068504994 637.827357419 c 0
 954.115431199 617.817163433 954.115431199 617.817163433 952.085140839 591.606236331 c 0
 950.05485048 565.395309229 950.05485048 565.395309229 928.150390625 548.259765625 c 2
 739.080078125 400.379882812 l 1
 805.120117188 169.610351562 l 2
 812.769997568 142.874111368 812.769997568 142.874111368 798.434895833 120.061812789 c 0
 784.099794098 97.2495142112 784.099794098 97.2495142112 760.265299479 92.3288122106 c 0
 736.43080486 87.4081102101 736.43080486 87.4081102101 711.080078125 101.280273438 c 2
 512.009765625 235.400390625 l 1
 312.940429688 101.280273438 l 2
 287.589348977 87.4034986495 287.589348977 87.4034986495 263.752821181 92.3240379051 c 0
 239.916293384 97.2445771607 239.916293384 97.2445771607 225.580837674 120.059425637 c 0
 211.245381963 142.874274112 211.245381963 142.874274112 218.900390625 169.610351562 c 2
 284.940429688 400.379882812 l 1
 95.8603515625 548.259765625 l 2
 73.9554186709 565.39060679 73.9554186709 565.39060679 71.9249574898 591.599518788 c 0
 69.8944963086 617.808430785 69.8944963086 617.808430785 86.9415789686 637.820403087 c 0
 103.988661629 657.83237539 103.988661629 657.83237539 131.780273438 658.8203125 c 2
 371.669921875 667.3203125 l 1
 453.879882812 892.83984375 l 1
512 871.650390625 m 1
 429.790039062 646.129882812 l 2
 423.317859264 628.378078587 423.317859264 628.378078587 408.03182721 617.271448863 c 0
 392.745795156 606.164819139 392.745795156 606.164819139 373.860351562 605.490234375 c 2
 133.969726562 596.990234375 l 1
 323.040039062 449.110351562 l 2
 337.927328649 437.469906152 337.927328649 437.469906152 343.766140129 419.497475954 c 0
 349.604951608 401.525045756 349.604951608 401.525045756 344.400390625 383.360351562 c 2
 278.360351562 152.58984375 l 1
 477.4296875 286.709960938 l 2
 493.09765625 297.270019531 493.09765625 297.270019531 511.996337891 297.270019531 c 0
 530.895019531 297.270019531 530.895019531 297.270019531 546.5703125 286.709960938 c 2
 745.639648438 152.58984375 l 1
 679.599609375 383.360351562 l 2
 674.402372589 401.52504569 674.402372589 401.52504569 680.241184072 419.4974759 c 0
 686.079995555 437.46990611 686.079995555 437.46990611 700.959960938 449.110351562 c 2
 890.030273438 596.990234375 l 1
 650.139648438 605.490234375 l 2
 631.256735774 606.157405234 631.256735774 606.157405234 615.969872132 617.266551878 c 0
 600.68300849 628.375698521 600.68300849 628.375698521 594.209960938 646.129882812 c 2
 512 871.650390625 l 1
EndSplineSet
EndChar

StartChar: uniE028
Encoding: 57384 57384 43
Width: 1024
Flags: H
LayerCount: 2
Fore
SplineSet
876.870117188 878.330078125 m 0
 894.210505384 891.340754 894.210505384 891.340754 913.610351562 881.650390625 c 0
 933 871.954769462 933 871.954769462 933 850.26953125 c 2
 933 324.040039062 l 2
 933 306.476932001 933 306.476932001 918.969726562 295.969726562 c 0
 814.420314384 217.547442967 814.420314384 217.547442967 694.76953125 229.9296875 c 0
 662.718417151 233.245429615 662.718417151 233.245429615 625.022328755 244.147412391 c 0
 587.326240358 255.049395168 587.326240358 255.049395168 564.19056187 264.228889692 c 0
 541.054883383 273.408384216 541.054883383 273.408384216 500.5703125 290.759765625 c 2
 498.1796875 291.780273438 l 2
 458.114778563 308.947367443 458.114778563 308.947367443 435.698054861 317.845190473 c 0
 413.281331158 326.743013502 413.281331158 326.743013502 381.098169097 336.145369423 c 0
 348.915007037 345.547725345 348.915007037 345.547725345 322.009765625 348.330078125 c 0
 236.981290336 357.118306482 236.981290336 357.118306482 161.16015625 305.950195312 c 1
 161.16015625 113.51953125 l 2
 161.16015625 98.9926002657 161.16015625 98.9926002657 150.883873374 88.7165149766 c 0
 140.607590499 78.4404296875 140.607590499 78.4404296875 126.080078125 78.4404296875 c 0
 111.550710464 78.4404296875 111.550710464 78.4404296875 101.275355232 88.713414094 c 0
 91 98.9863985004 91 98.9863985004 91 113.51953125 c 2
 91 850.259765625 l 2
 91 859.512276407 91 859.512276407 95.51953125 867.5 c 0
 99.3096519571 874.200814969 99.3096519571 874.200814969 105.540039062 878.709960938 c 0
 209.855637121 956.707518516 209.855637121 956.707518516 329.23046875 944.360351562 c 0
 361.286089291 941.044613073 361.286089291 941.044613073 398.984873375 930.142501228 c 0
 436.683657459 919.240389383 436.683657459 919.240389383 459.818837563 910.061274814 c 0
 482.954017666 900.882160245 482.954017666 900.882160245 523.440429688 883.530273438 c 2
 525.830078125 882.509765625 l 2
 565.894987062 865.342671619 565.894987062 865.342671619 588.311710764 856.44484859 c 0
 610.728434467 847.547025561 610.728434467 847.547025561 642.911596528 838.144669639 c 0
 675.094758588 828.742313718 675.094758588 828.742313718 702 825.959960938 c 0
 794.316379428 816.408690644 794.316379428 816.408690644 876.870117188 878.330078125 c 0
161.169921875 387.23046875 m 1
 240.444671925 427.301303947 240.444671925 427.301303947 329.240234375 418.110351562 c 0
 361.291633463 414.794579965 361.291633463 414.794579965 398.987638014 403.893646023 c 0
 436.683642566 392.992712081 436.683642566 392.992712081 459.829093757 383.810130019 c 0
 482.974544948 374.627547956 482.974544948 374.627547956 523.450195312 357.280273438 c 2
 525.83984375 356.259765625 l 2
 565.878265394 339.101336924 565.878265394 339.101336924 588.311776944 330.196996551 c 0
 610.745288494 321.292656179 610.745288494 321.292656179 642.924551181 311.892521678 c 0
 675.103813868 302.492387177 675.103813868 302.492387177 702.009765625 299.709960938 c 0
 787.006642253 290.906998494 787.006642253 290.906998494 862.849609375 342.08984375 c 1
 862.849609375 787.049804688 l 1
 783.571375768 746.977208665 783.571375768 746.977208665 694.790039062 756.169921875 c 0
 662.738221389 759.485736776 662.738221389 759.485736776 625.046723194 770.385132816 c 0
 587.355224998 781.284528856 587.355224998 781.284528856 564.199696077 790.471638017 c 0
 541.044167156 799.658747179 541.044167156 799.658747179 500.58984375 817 c 2
 498.200195312 818.01953125 l 2
 458.161818273 835.177940835 458.161818273 835.177940835 435.728272725 844.08232878 c 0
 413.294727178 852.986716726 413.294727178 852.986716726 381.115477275 862.387072261 c 0
 348.936227372 871.787427797 348.936227372 871.787427797 322.030273438 874.5703125 c 0
 237.0154193 883.358819523 237.0154193 883.358819523 161.1796875 832.190429688 c 1
 161.169921875 387.23046875 l 1
EndSplineSet
EndChar

StartChar: uniE029
Encoding: 57385 57385 44
Width: 1024
Flags: H
LayerCount: 2
Fore
SplineSet
141.549804688 927.400390625 m 2
 882.450195312 927.400390625 l 2
 902.967566296 927.400390625 902.967566296 927.400390625 920.150390625 916.1796875 c 0
 937.32768354 904.979057003 937.32768354 904.979057003 945.58984375 886.200195312 c 0
 953.857640453 867.411926862 953.857640453 867.411926862 950.51953125 847.190429688 c 0
 947.194146446 826.976220623 947.194146446 826.976220623 933.389648438 811.870117188 c 0
 658.610351562 509.48046875 l 1
 650 255.379882812 l 2
 649.938916258 238.231739572 649.938916258 238.231739572 641.830078125 223.169921875 c 0
 633.512797986 207.677853306 633.512797986 207.677853306 618.75 198.099609375 c 0
 492.580078125 117.200195312 l 2
 492.458890066 117.115068091 492.458890066 117.115068091 492.036427091 116.826739334 c 0
 491.701179446 116.597934581 491.701179446 116.597934581 491.5 116.459960938 c 0
 482.44269024 110.27209333 482.44269024 110.27209333 477.870117188 107.419921875 c 0
 471.379226989 103.346459991 471.379226989 103.346459991 466.370117188 100.860351562 c 0
 455.628204613 95.5106002264 455.628204613 95.5106002264 446.209960938 95.0703125 c 0
 427.28216145 94.1834218401 427.28216145 94.1834218401 410.5703125 103.08984375 c 0
 393.846695018 111.986814222 393.846695018 111.986814222 384.01953125 128.169921875 c 0
 374.27438218 144.223388015 374.27438218 144.223388015 374 162.990234375 c 2
 365.26953125 509.610351562 l 1
 90.650390625 811.830078125 l 2
 76.794783129 827.002945772 76.794783129 827.002945772 73.4697265625 847.200195312 c 0
 70.1438569407 867.44728729 70.1438569407 867.44728729 78.400390625 886.209960938 c 0
 86.6622300854 904.988093605 86.6622300854 904.988093605 103.83984375 916.190429688 c 0
 121.023474248 927.39519267 121.023474248 927.39519267 141.549804688 927.400390625 c 2
141.559570312 858.400390625 m 1
 424.969726562 546.51953125 l 2
 433.604397217 537.01745767 433.604397217 537.01745767 433.9296875 524.190429688 c 2
 442.9296875 166.959960938 l 1
 445.2713046 168.474981087 445.2713046 168.474981087 448.48046875 170.650390625 c 0
 449.531352128 171.361514715 449.531352128 171.361514715 450.610351562 172.110351562 c 0
 453.668976752 174.203819318 453.668976752 174.203819318 454.740234375 174.900390625 c 0
 581 255.860351562 l 2
 581 256.690429688 581 256.690429688 581.01953125 257.110351562 c 2
 590.080078125 524.490234375 l 2
 590.51446173 537.15244078 590.51446173 537.15244078 599.030273438 546.51953125 c 2
 882.360351562 858.3203125 l 1
 141.559570312 858.400390625 l 1
EndSplineSet
EndChar

StartChar: uniE02A
Encoding: 57386 57386 45
Width: 1024
Flags: H
LayerCount: 2
Fore
SplineSet
89 693.290039062 m 0
 89 705.806006508 89 705.806006508 97.8491700184 714.653003254 c 0
 106.698340037 723.5 106.698340037 723.5 119.209960938 723.5 c 2
 904.790039062 723.5 l 2
 917.306006508 723.5 917.306006508 723.5 926.153003254 714.650829982 c 0
 935 705.801659963 935 705.801659963 935 693.290039062 c 0
 935 680.780273438 935 680.780273438 926.149902344 671.930175781 c 0
 917.299804688 663.080078125 917.299804688 663.080078125 904.790039062 663.080078125 c 2
 119.209960938 663.080078125 l 2
 106.693993492 663.080078125 106.693993492 663.080078125 97.846996746 671.929248143 c 0
 89 680.778418162 89 680.778418162 89 693.290039062 c 0
240.0703125 512 m 0
 240.0703125 524.516136028 240.0703125 524.516136028 248.919200638 533.363048483 c 0
 257.768088776 542.209960938 257.768088776 542.209960938 270.280273438 542.209960938 c 2
 753.709960938 542.209960938 l 2
 766.225928383 542.209960938 766.225928383 542.209960938 775.072925129 533.360790919 c 0
 783.919921875 524.511620901 783.919921875 524.511620901 783.919921875 512 c 0
 783.919921875 499.490234375 783.919921875 499.490234375 775.069824219 490.640136719 c 0
 766.219726562 481.790039062 766.219726562 481.790039062 753.709960938 481.790039062 c 2
 270.290039062 481.790039062 l 2
 257.774071617 481.790039062 257.774071617 481.790039062 248.927074871 490.639209081 c 0
 240.080078125 499.488379099 240.080078125 499.488379099 240.0703125 512 c 0
421.360351562 360.9296875 m 2
 602.650390625 360.9296875 l 2
 615.160324874 360.9296875 615.160324874 360.9296875 624.010338218 352.079871745 c 0
 632.860351562 343.230055989 632.860351562 343.230055989 632.860351562 330.719726562 c 0
 632.860351562 318.208274361 632.860351562 318.208274361 624.013072916 309.359019993 c 0
 615.165794269 300.509765625 615.165794269 300.509765625 602.650390625 300.509765625 c 2
 421.360351562 300.509765625 l 2
 408.850022136 300.509765625 408.850022136 300.509765625 400.00020638 309.359778969 c 0
 391.150390625 318.209792314 391.150390625 318.209792314 391.150390625 330.719726562 c 0
 391.150390625 343.231911224 391.150390625 343.231911224 399.99730308 352.080799362 c 0
 408.844215535 360.9296875 408.844215535 360.9296875 421.360351562 360.9296875 c 2
EndSplineSet
EndChar

StartChar: uniE02B
Encoding: 57387 57387 46
Width: 1024
Flags: H
LayerCount: 2
Fore
SplineSet
582.8203125 836.309570312 m 0
 572.130224591 825.489389688 572.130224591 825.489389688 563.5703125 799.719726562 c 0
 555.68540745 776.011726025 555.68540745 776.011726025 550.940429688 742.780273438 c 0
 548.392063242 724.931231992 548.392063242 724.931231992 546.959960938 705.780273438 c 1
 566.36304686 707.248503032 566.36304686 707.248503032 583.959960938 709.759765625 c 0
 617.160404861 714.500315792 617.160404861 714.500315792 640.900390625 722.389648438 c 0
 666.668010317 730.955424355 666.668010317 730.955424355 677.490234375 741.629882812 c 0
 697.040039062 761.226960819 697.040039062 761.226960819 697.040039062 788.91015625 c 0
 697.040039062 816.641173111 697.040039062 816.641173111 677.4296875 836.25 c 0
 657.819335938 855.860351562 657.819335938 855.860351562 630.099609375 855.860351562 c 0
 602.41684084 855.860351562 602.41684084 855.860351562 582.8203125 836.309570312 c 0
763.809570312 788.919921875 m 0
 763.809570312 741.163948826 763.809570312 741.163948826 733.549804688 704.209960938 c 1
 879.23046875 704.209960938 l 2
 906.884179321 704.209960938 906.884179321 704.209960938 926.442089661 684.654223919 c 0
 946 665.0984869 946 665.0984869 946 637.440429688 c 2
 946 503.900390625 l 2
 946 476.246023127 946 476.246023127 926.444300734 456.68795297 c 0
 906.888601467 437.129882812 906.888601467 437.129882812 879.23046875 437.129882812 c 1
 879.23046875 170.049804688 l 2
 879.23046875 142.390625 879.23046875 142.390625 859.6796875 122.83984375 c 0
 840.129882812 103.290039062 840.129882812 103.290039062 812.469726562 103.290039062 c 2
 211.540039062 103.290039062 l 2
 183.879882812 103.290039062 183.879882812 103.290039062 164.330078125 122.83984375 c 0
 144.76953125 142.400390625 144.76953125 142.400390625 144.76953125 170.049804688 c 2
 144.76953125 437.129882812 l 1
 117.109543646 437.129882812 117.109543646 437.129882812 97.5547718232 456.684852201 c 0
 78 476.239821589 78 476.239821589 78 503.900390625 c 2
 78 637.440429688 l 2
 78 665.100341797 78 665.100341797 97.5548095703 684.655151367 c 0
 117.109619141 704.209960938 117.109619141 704.209960938 144.76953125 704.209960938 c 2
 290.440429688 704.209960938 l 1
 260.1796875 741.165141428 260.1796875 741.165141428 260.1796875 788.919921875 c 0
 260.1796875 844.294316278 260.1796875 844.294316278 299.33984375 883.469726562 c 0
 338.5 922.629882812 338.5 922.629882812 393.889648438 922.629882812 c 0
 449.265019403 922.629882812 449.265019403 922.629882812 488.440429688 883.469726562 c 2
 488.540039062 883.370117188 l 2
 501.814067144 869.972246637 501.814067144 869.972246637 511.990234375 849.669921875 c 1
 522.167779628 869.97499591 522.167779628 869.97499591 535.440429688 883.370117188 c 2
 535.540039062 883.469726562 l 2
 574.700195312 922.629882812 574.700195312 922.629882812 630.08984375 922.629882812 c 0
 685.481017591 922.629882812 685.481017591 922.629882812 724.639648438 883.469726562 c 0
 763.799804688 844.294316278 763.799804688 844.294316278 763.809570312 788.919921875 c 0
545.389648438 170.049804688 m 1
 812.469726562 170.049804688 l 1
 812.469726562 437.129882812 l 1
 545.389648438 437.129882812 l 1
 545.389648438 170.049804688 l 1
478.620117188 437.129882812 m 1
 211.540039062 437.129882812 l 1
 211.540039062 170.049804688 l 1
 478.620117188 170.049804688 l 1
 478.620117188 437.129882812 l 1
545.389648438 503.900390625 m 1
 879.240234375 503.900390625 l 1
 879.240234375 637.440429688 l 1
 545.389648438 637.440429688 l 1
 545.389648438 503.900390625 l 1
478.620117188 637.440429688 m 1
 144.76953125 637.440429688 l 1
 144.76953125 503.900390625 l 1
 478.620117188 503.900390625 l 1
 478.620117188 637.440429688 l 1
383.08984375 722.400390625 m 0
 406.827948931 714.510349937 406.827948931 714.510349937 440.030273438 709.76953125 c 0
 457.629136815 707.257990472 457.629136815 707.257990472 477.030273438 705.790039062 c 1
 475.597965522 724.943747174 475.597965522 724.943747174 473.049804688 742.790039062 c 0
 468.304915895 776.020868554 468.304915895 776.020868554 460.419921875 799.73046875 c 0
 451.861189223 825.490947678 451.861189223 825.490947678 441.1796875 836.3203125 c 0
 421.582609494 855.870117188 421.582609494 855.870117188 393.900390625 855.870117188 c 0
 366.171447854 855.870117188 366.171447854 855.870117188 346.559570312 836.259765625 c 0
 326.950195312 816.650390625 326.950195312 816.650390625 326.950195312 788.919921875 c 0
 326.950195312 761.238251389 326.950195312 761.238251389 346.5 741.639648438 c 0
 357.333190229 730.955981315 357.333190229 730.955981315 383.08984375 722.400390625 c 0
EndSplineSet
EndChar

StartChar: uniE02C
Encoding: 57388 57388 47
Width: 1024
Flags: H
LayerCount: 2
Fore
SplineSet
397.08984375 854.5703125 m 1
 329.81054697 832.01156086 329.81054697 832.01156086 276.04980621 785.532404574 c 0
 222.289065451 739.053248288 222.289065451 739.053248288 190.150390625 676.190429688 c 1
 330.099609375 676.190429688 l 1
 343.084532612 743.192162854 343.084532612 743.192162854 365.709960938 796.030273438 c 0
 379.87877585 829.127055789 379.87877585 829.127055789 397.08984375 854.5703125 c 1
320.23046875 610.509765625 m 1
 164.360351562 610.509765625 l 1
 150.759765625 562.434774817 150.759765625 562.434774817 150.759765625 511.990234375 c 0
 150.759765625 461.546216388 150.759765625 461.546216388 164.360351562 413.469726562 c 1
 320.23046875 413.469726562 l 1
 314.959960938 461.818766529 314.959960938 461.818766529 314.959960938 511.990234375 c 0
 314.959960938 562.162217452 314.959960938 562.162217452 320.23046875 610.509765625 c 1
386.330078125 413.469726562 m 1
 637.66015625 413.469726562 l 1
 643.349609375 461.568044021 643.349609375 461.568044021 643.349609375 511.990234375 c 0
 643.349609375 562.552585919 643.349609375 562.552585919 637.66015625 610.509765625 c 1
 386.330078125 610.509765625 l 1
 380.639648438 562.417428139 380.639648438 562.417428139 380.639648438 511.990234375 c 0
 380.639648438 461.563569851 380.639648438 461.563569851 386.330078125 413.469726562 c 1
330.099609375 347.790039062 m 1
 190.150390625 347.790039062 l 1
 222.283024889 284.932006988 222.283024889 284.932006988 276.043225235 238.449649296 c 0
 329.803425581 191.967291604 329.803425581 191.967291604 397.080078125 169.41015625 c 1
 379.869010225 194.853412961 379.869010225 194.853412961 365.700195312 227.950195312 c 0
 343.101667692 280.724003429 343.101667692 280.724003429 330.099609375 347.790039062 c 1
626.91015625 169.41015625 m 1
 694.190187159 191.968424333 694.190187159 191.968424333 747.949536056 238.448178466 c 0
 801.708884954 284.927932598 801.708884954 284.927932598 833.83984375 347.790039062 c 1
 693.900390625 347.790039062 l 1
 680.903227373 280.723675429 680.903227373 280.723675429 658.290039062 227.950195312 c 0
 644.12122415 194.853412961 644.12122415 194.853412961 626.91015625 169.41015625 c 1
626.870117188 347.790039062 m 1
 397.110351562 347.790039062 l 1
 408.386860467 295.094858984 408.386860467 295.094858984 426.0703125 253.809570312 c 0
 446.27976128 206.632767895 446.27976128 206.632767895 471.150390625 182.080078125 c 0
 492.065870503 161.419921875 492.065870503 161.419921875 511.990234375 161.419921875 c 0
 531.913282146 161.419921875 531.913282146 161.419921875 552.830078125 182.080078125 c 0
 577.722969094 206.654744932 577.722969094 206.654744932 597.91015625 253.809570312 c 0
 615.624210513 295.169799401 615.624210513 295.169799401 626.870117188 347.790039062 c 1
703.76953125 413.469726562 m 1
 859.639648438 413.469726562 l 1
 873.240234375 461.599263381 873.240234375 461.599263381 873.240234375 511.990234375 c 0
 873.240234375 562.434774817 873.240234375 562.434774817 859.639648438 610.509765625 c 1
 703.76953125 610.509765625 l 1
 709.040039062 562.162217452 709.040039062 562.162217452 709.040039062 511.990234375 c 0
 709.040039062 461.818766529 709.040039062 461.818766529 703.76953125 413.469726562 c 1
693.900390625 676.190429688 m 1
 833.83984375 676.190429688 l 1
 801.70720691 739.047731567 801.70720691 739.047731567 747.947005256 785.53009039 c 0
 694.186803602 832.012449213 694.186803602 832.012449213 626.91015625 854.5703125 c 1
 644.12122415 829.127055789 644.12122415 829.127055789 658.290039062 796.030273438 c 0
 680.915467388 743.192162854 680.915467388 743.192162854 693.900390625 676.190429688 c 1
626.870117188 676.190429688 m 1
 615.603167746 728.885114528 615.603167746 728.885114528 597.919921875 770.169921875 c 0
 577.707273316 817.350859728 577.707273316 817.350859728 552.83984375 841.900390625 c 0
 531.925352503 862.559570312 531.925352503 862.559570312 512 862.559570312 c 0
 492.074647497 862.559570312 492.074647497 862.559570312 471.16015625 841.900390625 c 0
 446.265517056 817.323997941 446.265517056 817.323997941 426.080078125 770.169921875 c 0
 408.396832254 728.885114528 408.396832254 728.885114528 397.120117188 676.190429688 c 1
 626.870117188 676.190429688 l 1
512 938.91015625 m 0
 627.97199097 938.91015625 627.97199097 938.91015625 726.313961284 881.783043924 c 0
 824.655931598 824.655931598 824.655931598 824.655931598 881.783043924 726.313961284 c 0
 938.91015625 627.97199097 938.91015625 627.97199097 938.91015625 512 c 0
 938.91015625 396.028878609 938.91015625 396.028878609 881.780656771 297.68625611 c 0
 824.651157293 199.343633612 824.651157293 199.343633612 726.309186979 142.216738681 c 0
 627.967216664 85.08984375 627.967216664 85.08984375 512 85.08984375 c 0
 396.033652914 85.08984375 396.033652914 85.08984375 297.691030416 142.219125834 c 0
 199.348407918 199.348407918 199.348407918 199.348407918 142.219125834 297.691030416 c 0
 85.08984375 396.033652914 85.08984375 396.033652914 85.08984375 512 c 0
 85.08984375 627.967216664 85.08984375 627.967216664 142.216738681 726.309186979 c 0
 199.343633612 824.651157293 199.343633612 824.651157293 297.68625611 881.780656771 c 0
 396.028878609 938.91015625 396.028878609 938.91015625 512 938.91015625 c 0
EndSplineSet
EndChar

StartChar: uniE02D
Encoding: 57389 57389 48
Width: 1024
Flags: H
LayerCount: 2
Fore
SplineSet
512 870.76953125 m 0
 414.542335046 870.76953125 414.542335046 870.76953125 331.89665147 822.759281678 c 0
 249.250967894 774.749032106 249.250967894 774.749032106 201.240718322 692.10334853 c 0
 153.23046875 609.457664954 153.23046875 609.457664954 153.23046875 512 c 0
 153.23046875 414.542335046 153.23046875 414.542335046 201.240718322 331.89665147 c 0
 249.250967894 249.250967894 249.250967894 249.250967894 331.89665147 201.240718322 c 0
 414.542335046 153.23046875 414.542335046 153.23046875 512 153.23046875 c 0
 609.457664954 153.23046875 609.457664954 153.23046875 692.10334853 201.240718322 c 0
 774.749032106 249.250967894 774.749032106 249.250967894 822.759281678 331.89665147 c 0
 870.76953125 414.542335046 870.76953125 414.542335046 870.76953125 512 c 0
 870.76953125 609.457664954 870.76953125 609.457664954 822.759281678 692.10334853 c 0
 774.749032106 774.749032106 774.749032106 774.749032106 692.10334853 822.759281678 c 0
 609.457664954 870.76953125 609.457664954 870.76953125 512 870.76953125 c 0
88 512 m 0
 88 688 88 688 212 812 c 0
 336 936 336 936 512 936 c 0
 688 936 688 936 812 812 c 0
 936 688 936 688 936 512 c 0
 936 336 936 336 812 212 c 0
 688 88 688 88 512 88 c 0
 336 88 336 88 212 212 c 0
 88 336 88 336 88 512 c 0
512 259.23046875 m 0
 495.110351562 259.23046875 495.110351562 259.23046875 483.170410156 271.170410156 c 0
 471.23046875 283.110351562 471.23046875 283.110351562 471.23046875 300 c 0
 471.23046875 316.889648438 471.23046875 316.889648438 483.170410156 328.829589844 c 0
 495.110351562 340.76953125 495.110351562 340.76953125 512 340.76953125 c 0
 528.889648438 340.76953125 528.889648438 340.76953125 540.829589844 328.829589844 c 0
 552.76953125 316.889648438 552.76953125 316.889648438 552.76953125 300 c 0
 552.76953125 283.110351562 552.76953125 283.110351562 540.829589844 271.170410156 c 0
 528.889648438 259.23046875 528.889648438 259.23046875 512 259.23046875 c 0
540.629882812 737.490234375 m 1
 540.639648438 737.5 l 1
 584.318789518 728.80132767 584.318789518 728.80132767 615.790039062 697.330078125 c 0
 647.261288607 665.85882858 647.261288607 665.85882858 655.959960938 622.1796875 c 0
 664.65380622 578.526282138 664.65380622 578.526282138 647.610351562 537.379882812 c 0
 630.570409749 496.245580099 630.570409749 496.245580099 593.549804688 471.509765625 c 0
 571.035967052 456.460369621 571.035967052 456.460369621 544.629882812 450.440429688 c 1
 544.629882812 446.76953125 l 2
 544.629882812 433.254807328 544.629882812 433.254807328 535.077476905 423.702598976 c 0
 525.525070998 414.150390625 525.525070998 414.150390625 512.009765625 414.150390625 c 0
 498.496710286 414.150390625 498.496710286 414.150390625 488.943179362 423.705502147 c 0
 479.389648438 433.26061367 479.389648438 433.26061367 479.389648438 446.76953125 c 2
 479.389648438 479.389648438 l 2
 479.389648438 492.91465386 479.389648438 492.91465386 488.940429688 502.450195312 c 0
 498.490234375 512 498.490234375 512 512 512 c 0
 536.729182117 512 536.729182117 512 557.299804688 525.740234375 c 0
 577.867274064 539.477361385 577.867274064 539.477361385 587.330078125 562.330078125 c 0
 596.787768101 585.170444325 596.787768101 585.170444325 591.969726562 609.440429688 c 0
 587.140139731 633.699182274 587.140139731 633.699182274 569.650390625 651.190429688 c 0
 552.177832706 668.676457969 552.177832706 668.676457969 527.900390625 673.509765625 c 0
 503.654836344 678.337923533 503.654836344 678.337923533 480.790039062 668.870117188 c 0
 457.937892907 659.400722591 457.937892907 659.400722591 444.200195312 638.83984375 c 0
 430.459960938 618.275168171 430.459960938 618.275168171 430.459960938 593.540039062 c 0
 430.459960938 580.024658203 430.459960938 580.024658203 420.907592773 570.472290039 c 0
 411.355224609 560.919921875 411.355224609 560.919921875 397.83984375 560.919921875 c 0
 384.32688149 560.919921875 384.32688149 560.919921875 374.773304026 570.475475096 c 0
 365.219726562 580.031028317 365.219726562 580.031028317 365.219726562 593.540039062 c 0
 365.219726562 638.054355929 365.219726562 638.054355929 389.959960938 675.080078125 c 0
 414.697640577 712.101976957 414.697640577 712.101976957 455.830078125 729.139648438 c 0
 496.951201923 746.174130867 496.951201923 746.174130867 540.629882812 737.490234375 c 1
EndSplineSet
EndChar

StartChar: uniE02E
Encoding: 57390 57390 49
Width: 1024
Flags: H
LayerCount: 2
Fore
SplineSet
465.129882812 922.349609375 m 1
 485.052525129 940.530273438 485.052525129 940.530273438 512 940.530273438 c 0
 538.964103401 940.530273438 538.964103401 940.530273438 558.870117188 922.349609375 c 0
 906.330078125 606.599609375 l 1
 906.8203125 606.150390625 l 2
 917.238469979 596.308304683 917.238469979 596.308304683 922.990234375 583.23046875 c 0
 928.762594835 570.12317089 928.762594835 570.12317089 928.990234375 555.8203125 c 2
 928.990234375 153.459960938 l 2
 928.990234375 124.669373249 928.990234375 124.669373249 908.639648438 104.3203125 c 0
 888.280822795 83.9599609375 888.280822795 83.9599609375 859.490234375 83.9599609375 c 2
 650.990234375 83.9599609375 l 2
 622.215454513 83.9599609375 622.215454513 83.9599609375 601.83984375 104.3203125 c 0
 581.490234375 124.66839676 581.490234375 124.66839676 581.490234375 153.459960938 c 2
 581.490234375 361.959960938 l 1
 442.490234375 361.959960938 l 1
 442.490234375 153.459960938 l 2
 442.490234375 124.669373249 442.490234375 124.669373249 422.139648438 104.3203125 c 0
 401.764037674 83.9599609375 401.764037674 83.9599609375 372.990234375 83.9599609375 c 2
 164.5 83.9599609375 l 2
 135.719177205 83.9599609375 135.719177205 83.9599609375 115.360351562 104.3203125 c 0
 95 124.679138142 95 124.679138142 95 153.459960938 c 2
 95 555.8203125 l 2
 95.2275173327 570.10071859 95.2275173327 570.10071859 101.009765625 583.23046875 c 0
 106.792906855 596.342578042 106.792906855 596.342578042 117.190429688 606.150390625 c 2
 117.6796875 606.599609375 l 1
 465.08984375 922.309570312 l 1
 465.129882812 922.349609375 l 1
164.830078125 555.540039062 m 1
 164.610351562 555.200195312 l 1
 164.5 554.780273438 l 1
 164.5 153.459960938 l 1
 372.990234375 153.459960938 l 1
 372.990234375 361.959960938 l 2
 372.990234375 390.749450601 372.990234375 390.749450601 393.349609375 411.110351562 c 0
 413.700743979 431.459960938 413.700743979 431.459960938 442.490234375 431.459960938 c 2
 581.490234375 431.459960938 l 2
 610.290039062 431.459960938 610.290039062 431.459960938 630.639648438 411.110351562 c 0
 650.990234375 390.744513743 650.990234375 390.744513743 650.990234375 361.959960938 c 2
 650.990234375 153.459960938 l 1
 859.490234375 153.459960938 l 1
 859.490234375 554.780273438 l 1
 859.16015625 555.540039062 l 1
 512.0703125 870.950195312 l 1
 511.91015625 870.950195312 l 1
 164.830078125 555.540039062 l 1
EndSplineSet
EndChar

StartChar: uniE02F
Encoding: 57391 57391 50
Width: 1024
Flags: H
LayerCount: 2
Fore
SplineSet
512 873.309570312 m 0
 413.852824292 873.309570312 413.852824292 873.309570312 330.622467141 824.961097932 c 0
 247.392109989 776.612625552 247.392109989 776.612625552 199.041269838 693.381675505 c 0
 150.690429688 610.150725459 150.690429688 610.150725459 150.690429688 512 c 0
 150.690429688 413.848484014 150.690429688 413.848484014 199.0390997 330.618126863 c 0
 247.387769712 247.387769712 247.387769712 247.387769712 330.618126863 199.0390997 c 0
 413.848484014 150.690429688 413.848484014 150.690429688 512 150.690429688 c 0
 610.150725459 150.690429688 610.150725459 150.690429688 693.381675505 199.041269838 c 0
 776.612625552 247.392109989 776.612625552 247.392109989 824.961097932 330.622467141 c 0
 873.309570312 413.852824292 873.309570312 413.852824292 873.309570312 512 c 0
 873.309570312 610.146385182 873.309570312 610.146385182 824.958927793 693.377335228 c 0
 776.608285274 776.608285274 776.608285274 776.608285274 693.377335228 824.958927793 c 0
 610.146385182 873.309570312 610.146385182 873.309570312 512 873.309570312 c 0
85 512 m 0
 85 689 85 689 210 814 c 0
 335 939 335 939 512 939 c 0
 689 939 689 939 814 814 c 0
 939 689 939 689 939 512 c 0
 939 335 939 335 814 210 c 0
 689 85 689 85 512 85 c 0
 335 85 335 85 210 210 c 0
 85 335 85 335 85 512 c 0
446.309570312 544.849609375 m 0
 446.309570312 558.455078125 446.309570312 558.455078125 455.932128906 568.077636719 c 0
 465.5546875 577.700195312 465.5546875 577.700195312 479.16015625 577.700195312 c 2
 512.009765625 577.700195312 l 2
 525.615234375 577.700195312 525.615234375 577.700195312 535.237792969 568.077636719 c 0
 544.860351562 558.455078125 544.860351562 558.455078125 544.860351562 544.849609375 c 2
 544.860351562 347.76953125 l 1
 558.465087891 347.76953125 558.465087891 347.76953125 568.087524414 338.147094727 c 0
 577.709960938 328.524658203 577.709960938 328.524658203 577.709960938 314.919921875 c 0
 577.709960938 301.315185547 577.709960938 301.315185547 568.087524414 291.692749023 c 0
 558.465087891 282.0703125 558.465087891 282.0703125 544.860351562 282.0703125 c 2
 512.009765625 282.0703125 l 2
 498.405029297 282.0703125 498.405029297 282.0703125 488.782592773 291.692749023 c 0
 479.16015625 301.315185547 479.16015625 301.315185547 479.16015625 314.919921875 c 2
 479.16015625 512 l 1
 465.554763012 512 465.554763012 512 455.932166662 521.622398768 c 0
 446.309570312 531.244797537 446.309570312 531.244797537 446.309570312 544.849609375 c 0
544.849609375 692.66015625 m 0
 544.849609375 675.650297471 544.849609375 675.650297471 532.824660456 663.624953423 c 0
 520.799711536 651.599609375 520.799711536 651.599609375 503.790039062 651.599609375 c 0
 486.780366589 651.599609375 486.780366589 651.599609375 474.755417669 663.624953423 c 0
 462.73046875 675.650297471 462.73046875 675.650297471 462.73046875 692.66015625 c 0
 462.73046875 709.669921875 462.73046875 709.669921875 474.755371094 721.694824219 c 0
 486.780273438 733.719726562 486.780273438 733.719726562 503.790039062 733.719726562 c 0
 520.799804688 733.719726562 520.799804688 733.719726562 532.824707031 721.694824219 c 0
 544.849609375 709.669921875 544.849609375 709.669921875 544.849609375 692.66015625 c 0
EndSplineSet
EndChar

StartChar: uniE030
Encoding: 57392 57392 51
Width: 1024
Flags: H
LayerCount: 2
Fore
SplineSet
511.8203125 738.26953125 m 2
 501.429931641 727.859619141 501.429931641 727.859619141 486.71484375 727.859619141 c 0
 471.999755859 727.859619141 471.999755859 727.859619141 461.58984375 738.26953125 c 0
 451.179931641 748.680175781 451.179931641 748.680175781 451.179931641 763.394897461 c 0
 451.179931641 778.109619141 451.179931641 778.109619141 461.58984375 788.51953125 c 2
 549.530273438 876.459960938 l 2
 550.062626008 876.992313508 550.062626008 876.992313508 550.719726562 877.599609375 c 0
 619.249572938 940.069997017 619.249572938 940.069997017 711.959960938 937.919921875 c 0
 804.670227304 935.770202383 804.670227304 935.770202383 870.240234375 870.200195312 c 0
 935.8097509 804.645892132 935.8097509 804.645892132 937.959960938 711.9296875 c 0
 940.095206829 619.202487446 940.095206829 619.202487446 877.639648438 550.690429688 c 0
 877.169317336 550.169317336 877.169317336 550.169317336 876.459960938 549.459960938 c 2
 750.849609375 424.290039062 l 2
 718.393492871 391.725982329 718.393492871 391.725982329 675.959960938 374.099609375 c 0
 633.504173844 356.469726562 633.504173844 356.469726562 587.540039062 356.469726562 c 0
 541.559633729 356.469726562 541.559633729 356.469726562 499.120117188 374.099609375 c 0
 456.632865302 391.750187651 456.632865302 391.750187651 424.23046875 424.290039062 c 0
 413.836861859 434.71698276 413.836861859 434.71698276 413.865112305 449.434082031 c 0
 413.89336275 464.151181303 413.89336275 464.151181303 424.3203125 474.540039062 c 0
 434.742990376 484.929136862 434.742990376 484.929136862 449.463623047 484.905029297 c 0
 464.184255718 484.880921732 464.184255718 484.880921732 474.5703125 474.450195312 c 0
 497.026909598 451.916646449 497.026909598 451.916646449 526.379882812 439.73046875 c 0
 555.763956315 427.540039062 555.763956315 427.540039062 587.530273438 427.540039062 c 0
 619.344084761 427.540039062 619.344084761 427.540039062 648.690429688 439.73046875 c 0
 678.059894653 451.929637292 678.059894653 451.929637292 700.490234375 474.450195312 c 2
 700.580078125 474.540039062 l 1
 825.639648438 599.16015625 l 2
 868.368910418 646.513896012 868.368910418 646.513896012 866.889648438 710.280273438 c 0
 865.410922712 774.508999163 865.410922712 774.508999163 819.969726562 819.950195312 c 0
 774.530051736 865.389870139 774.530051736 865.389870139 710.299804688 866.870117188 c 0
 646.53642119 868.349309714 646.53642119 868.349309714 599.16015625 825.599609375 c 2
 511.8203125 738.26953125 l 2
375.3203125 584.259765625 m 0
 345.929476029 572.080746144 345.929476029 572.080746144 323.5 549.559570312 c 2
 323.41015625 549.469726562 l 1
 198.349609375 424.849609375 l 2
 155.621889792 377.495893094 155.621889792 377.495893094 157.099609375 313.73046875 c 0
 158.57944867 249.517914756 158.57944867 249.517914756 204.01953125 204.059570312 c 0
 249.460740748 158.619882624 249.460740748 158.619882624 313.690429688 157.139648438 c 0
 377.472268345 155.661900787 377.472268345 155.661900787 424.830078125 198.41015625 c 2
 512.169921875 285.740234375 l 2
 522.579833984 296.150146484 522.579833984 296.150146484 537.298583984 296.150146484 c 0
 552.017333984 296.150146484 552.017333984 296.150146484 562.419921875 285.740234375 c 0
 572.829833984 275.330322266 572.829833984 275.330322266 572.829833984 260.615234375 c 0
 572.829833984 245.900146484 572.829833984 245.900146484 562.419921875 235.490234375 c 2
 474.48046875 147.540039062 l 2
 473.922811365 146.983775821 473.922811365 146.983775821 473.290039062 146.400390625 c 0
 404.743913915 83.9303805091 404.743913915 83.9303805091 312.049804688 86.080078125 c 0
 219.350174342 88.2299037828 219.350174342 88.2299037828 153.780273438 153.799804688 c 0
 88.2113150333 219.353549876 88.2113150333 219.353549876 86.0595703125 312.0703125 c 0
 83.910242141 404.763702534 83.910242141 404.763702534 146.379882812 473.309570312 c 0
 146.833778174 473.812472371 146.833778174 473.812472371 147.559570312 474.540039062 c 2
 273.209960938 599.75 l 2
 305.622139855 632.267192366 305.622139855 632.267192366 348.049804688 649.889648438 c 0
 390.502030054 667.51953125 390.502030054 667.51953125 436.469726562 667.51953125 c 0
 482.453692258 667.51953125 482.453692258 667.51953125 524.889648438 649.889648438 c 0
 567.375188801 632.241261876 567.375188801 632.241261876 599.780273438 599.700195312 c 0
 610.167513247 589.274935004 610.167513247 589.274935004 610.141235352 574.556152344 c 0
 610.114957456 559.837369683 610.114957456 559.837369683 599.690429688 549.450195312 c 0
 589.266851107 539.060533977 589.266851107 539.060533977 574.546386719 539.084838867 c 0
 559.825922331 539.109143758 559.825922331 539.109143758 549.440429688 549.540039062 c 0
 527.010779054 572.059905223 527.010779054 572.059905223 497.639648438 584.259765625 c 0
 468.240768145 596.450195312 468.240768145 596.450195312 436.48046875 596.450195312 c 0
 404.668738698 596.450195312 404.668738698 596.450195312 375.3203125 584.259765625 c 0
EndSplineSet
EndChar

StartChar: uniE031
Encoding: 57393 57393 52
Width: 1024
Flags: H
LayerCount: 2
Fore
SplineSet
84 797.330078125 m 0
 84 812.105224609 84 812.105224609 94.4473876953 822.552612305 c 0
 104.894775391 833 104.894775391 833 119.669921875 833 c 2
 904.330078125 833 l 2
 919.105224609 833 919.105224609 833 929.552612305 822.552612305 c 0
 940 812.105224609 940 812.105224609 940 797.330078125 c 0
 940 782.554931641 940 782.554931641 929.552612305 772.107543945 c 0
 919.105224609 761.66015625 919.105224609 761.66015625 904.330078125 761.66015625 c 2
 119.669921875 761.66015625 l 2
 104.894775391 761.66015625 104.894775391 761.66015625 94.4473876953 772.107543945 c 0
 84 782.554931641 84 782.554931641 84 797.330078125 c 0
84 512 m 0
 84 526.775146484 84 526.775146484 94.4473876953 537.22253418 c 0
 104.894775391 547.669921875 104.894775391 547.669921875 119.669921875 547.669921875 c 2
 904.330078125 547.669921875 l 2
 919.105224609 547.669921875 919.105224609 547.669921875 929.552612305 537.22253418 c 0
 940 526.775146484 940 526.775146484 940 512 c 0
 940 497.224853516 940 497.224853516 929.552612305 486.77746582 c 0
 919.105224609 476.330078125 919.105224609 476.330078125 904.330078125 476.330078125 c 2
 119.669921875 476.330078125 l 2
 104.894775391 476.330078125 104.894775391 476.330078125 94.4473876953 486.77746582 c 0
 84 497.224853516 84 497.224853516 84 512 c 0
119.669921875 262.330078125 m 2
 904.330078125 262.330078125 l 2
 919.105224609 262.330078125 919.105224609 262.330078125 929.552612305 251.88269043 c 0
 940 241.435302734 940 241.435302734 940 226.66015625 c 0
 940 211.885009766 940 211.885009766 929.552612305 201.43762207 c 0
 919.105224609 190.990234375 919.105224609 190.990234375 904.330078125 190.990234375 c 2
 119.669921875 190.990234375 l 2
 104.894775391 190.990234375 104.894775391 190.990234375 94.4473876953 201.43762207 c 0
 84 211.885009766 84 211.885009766 84 226.66015625 c 0
 84 241.435302734 84 241.435302734 94.4473876953 251.88269043 c 0
 104.894775391 262.330078125 104.894775391 262.330078125 119.669921875 262.330078125 c 2
EndSplineSet
EndChar

StartChar: uniE032
Encoding: 57394 57394 53
Width: 1024
Flags: H
LayerCount: 2
Fore
SplineSet
175.610351562 799.139648438 m 0
 175.610351562 780.556955112 175.610351562 780.556955112 162.469639826 767.418614275 c 0
 149.328928089 754.280273438 149.328928089 754.280273438 130.75 754.280273438 c 0
 112.172758455 754.280273438 112.172758455 754.280273438 99.0312034463 767.421433271 c 0
 85.8896484375 780.562593105 85.8896484375 780.562593105 85.8896484375 799.139648438 c 0
 85.8896484375 817.717360674 85.8896484375 817.717360674 99.0311656874 830.858680337 c 0
 112.172682937 844 112.172682937 844 130.75 844 c 0
 149.327317063 844 149.327317063 844 162.468834313 830.858680337 c 0
 175.610351562 817.717360674 175.610351562 817.717360674 175.610351562 799.139648438 c 0
328.150390625 835.030273438 m 2
 902.419921875 835.030273438 l 2
 917.285063123 835.030273438 917.285063123 835.030273438 927.797316718 824.51762469 c 0
 938.309570312 814.004975943 938.309570312 814.004975943 938.309570312 799.139648438 c 0
 938.309570312 784.274977849 938.309570312 784.274977849 927.797278965 773.762488925 c 0
 917.284987618 763.25 917.284987618 763.25 902.419921875 763.25 c 2
 328.150390625 763.25 l 2
 313.285231758 763.25 313.285231758 763.25 302.772498692 773.762535489 c 0
 292.259765625 784.275070977 292.259765625 784.275070977 292.259765625 799.139648438 c 0
 292.259765625 814.004882812 292.259765625 814.004882812 302.772460938 824.517578125 c 0
 313.28515625 835.030273438 313.28515625 835.030273438 328.150390625 835.030273438 c 2
328.150390625 547.889648438 m 2
 902.419921875 547.889648438 l 2
 917.28515625 547.889648438 917.28515625 547.889648438 927.797363281 537.377441406 c 0
 938.309570312 526.865234375 938.309570312 526.865234375 938.309570312 512 c 0
 938.309570312 497.134765625 938.309570312 497.134765625 927.797363281 486.622558594 c 0
 917.28515625 476.110351562 917.28515625 476.110351562 902.419921875 476.110351562 c 2
 328.150390625 476.110351562 l 2
 313.28506312 476.110351562 313.28506312 476.110351562 302.772414372 486.622605157 c 0
 292.259765625 497.134858752 292.259765625 497.134858752 292.259765625 512 c 0
 292.259765625 526.865141248 292.259765625 526.865141248 302.772414372 537.377394843 c 0
 313.28506312 547.889648438 313.28506312 547.889648438 328.150390625 547.889648438 c 2
292.259765625 224.860351562 m 0
 292.259765625 239.724929023 292.259765625 239.724929023 302.772498692 250.237464511 c 0
 313.285231758 260.75 313.285231758 260.75 328.150390625 260.75 c 2
 902.419921875 260.75 l 2
 917.284987618 260.75 917.284987618 260.75 927.797278965 250.237511075 c 0
 938.309570312 239.725022151 938.309570312 239.725022151 938.309570312 224.860351562 c 0
 938.309570312 209.995024057 938.309570312 209.995024057 927.797316718 199.48237531 c 0
 917.285063123 188.969726562 917.285063123 188.969726562 902.419921875 188.969726562 c 2
 328.150390625 188.969726562 l 2
 313.28515625 188.969726562 313.28515625 188.969726562 302.772460938 199.482421875 c 0
 292.259765625 209.995117188 292.259765625 209.995117188 292.259765625 224.860351562 c 0
130.75 180 m 0
 112.172682937 180 112.172682937 180 99.0311656874 193.141319663 c 0
 85.8896484375 206.282639326 85.8896484375 206.282639326 85.8896484375 224.860351562 c 0
 85.8896484375 243.437406895 85.8896484375 243.437406895 99.0312034463 256.578566729 c 0
 112.172758455 269.719726562 112.172758455 269.719726562 130.75 269.719726562 c 0
 149.327241545 269.719726562 149.327241545 269.719726562 162.468796554 256.578566729 c 0
 175.610351562 243.437406895 175.610351562 243.437406895 175.610351562 224.860351562 c 0
 175.610351562 206.280784198 175.610351562 206.280784198 162.471935195 193.140392099 c 0
 149.333518827 180 149.333518827 180 130.75 180 c 0
175.610351562 512 m 0
 175.610351562 493.41664977 175.610351562 493.41664977 162.469677578 480.278149104 c 0
 149.329003593 467.139648438 149.329003593 467.139648438 130.75 467.139648438 c 0
 112.172851562 467.139648438 112.172851562 467.139648438 99.03125 480.28125 c 0
 85.8896484375 493.422851562 85.8896484375 493.422851562 85.8896484375 512 c 0
 85.8896484375 530.577148438 85.8896484375 530.577148438 99.03125 543.71875 c 0
 112.172851562 556.860351562 112.172851562 556.860351562 130.75 556.860351562 c 0
 149.327148438 556.860351562 149.327148438 556.860351562 162.46875 543.71875 c 0
 175.610351562 530.577148438 175.610351562 530.577148438 175.610351562 512 c 0
EndSplineSet
EndChar

StartChar: uniE033
Encoding: 57395 57395 54
Width: 1024
Flags: H
LayerCount: 2
Fore
SplineSet
376 841.669921875 m 2
 221.66015625 699.33984375 l 2
 211.430330704 689.904190099 211.430330704 689.904190099 197.512329102 689.912231445 c 0
 183.594327499 689.920272792 183.594327499 689.920272792 173.379882812 699.370117188 c 2
 96.4296875 770.540039062 l 2
 85.6143096556 780.545325623 85.6143096556 780.545325623 85.0397949219 795.271118164 c 0
 84.4652801881 809.996910705 84.4652801881 809.996910705 94.4697265625 820.8203125 c 0
 104.475006808 831.635683518 104.475006808 831.635683518 119.201171875 832.210205078 c 0
 133.927336942 832.784726638 133.927336942 832.784726638 144.75 822.780273438 c 2
 197.5703125 773.9296875 l 1
 327.759765625 893.990234375 l 2
 338.596731331 903.980474853 338.596731331 903.980474853 353.323608398 903.383789062 c 0
 368.050485466 902.787103272 368.050485466 902.787103272 378.040039062 891.950195312 c 0
 388.030836784 881.113068126 388.030836784 881.113068126 387.433959961 866.386352539 c 0
 386.837083138 851.659636952 386.837083138 851.659636952 376 841.669921875 c 2
512 832.25 m 2
 903.419921875 832.25 l 2
 918.157714844 832.25 918.157714844 832.25 928.578857422 821.828857422 c 0
 939 811.407714844 939 811.407714844 939 796.669921875 c 0
 939 781.932128906 939 781.932128906 928.578857422 771.510986328 c 0
 918.157714844 761.08984375 918.157714844 761.08984375 903.419921875 761.08984375 c 2
 512 761.08984375 l 2
 497.262207031 761.08984375 497.262207031 761.08984375 486.841064453 771.510986328 c 0
 476.419921875 781.932128906 476.419921875 781.932128906 476.419921875 796.669921875 c 0
 476.419921875 811.407714844 476.419921875 811.407714844 486.841064453 821.828857422 c 0
 497.262207031 832.25 497.262207031 832.25 512 832.25 c 2
512 547.580078125 m 2
 903.419921875 547.580078125 l 2
 918.157714844 547.580078125 918.157714844 547.580078125 928.578857422 537.158935547 c 0
 939 526.737792969 939 526.737792969 939 512 c 0
 939 497.262207031 939 497.262207031 928.578857422 486.841064453 c 0
 918.157714844 476.419921875 918.157714844 476.419921875 903.419921875 476.419921875 c 2
 512 476.419921875 l 2
 497.262207031 476.419921875 497.262207031 476.419921875 486.841064453 486.841064453 c 0
 476.419921875 497.262207031 476.419921875 497.262207031 476.419921875 512 c 0
 476.419921875 526.737792969 476.419921875 526.737792969 486.841064453 537.158935547 c 0
 497.262207031 547.580078125 497.262207031 547.580078125 512 547.580078125 c 2
476.419921875 227.330078125 m 0
 476.419921875 242.067871094 476.419921875 242.067871094 486.841064453 252.489013672 c 0
 497.262207031 262.91015625 497.262207031 262.91015625 512 262.91015625 c 2
 903.419921875 262.91015625 l 2
 918.157714844 262.91015625 918.157714844 262.91015625 928.578857422 252.489013672 c 0
 939 242.067871094 939 242.067871094 939 227.330078125 c 0
 939 212.592285156 939 212.592285156 928.578857422 202.171142578 c 0
 918.157714844 191.75 918.157714844 191.75 903.419921875 191.75 c 2
 512 191.75 l 2
 497.262207031 191.75 497.262207031 191.75 486.841064453 202.171142578 c 0
 476.419921875 212.592285156 476.419921875 212.592285156 476.419921875 227.330078125 c 0
378.040039062 607.290039062 m 0
 388.030836784 596.452911876 388.030836784 596.452911876 387.433959961 581.726196289 c 0
 386.837083138 566.999480702 386.837083138 566.999480702 376 557.009765625 c 2
 221.66015625 414.6796875 l 2
 211.43014678 405.244204038 211.43014678 405.244204038 197.512329102 405.252441406 c 0
 183.594511423 405.260678774 183.594511423 405.260678774 173.379882812 414.709960938 c 2
 96.4296875 485.879882812 l 2
 85.6069922737 495.885162779 85.6069922737 495.885162779 85.0324707031 510.611328125 c 0
 84.4579491326 525.337493471 84.4579491326 525.337493471 94.4697265625 536.16015625 c 0
 104.474943437 546.982783229 104.474943437 546.982783229 119.204833984 547.557373047 c 0
 133.934724532 548.131962864 133.934724532 548.131962864 144.75 538.120117188 c 2
 197.5703125 489.26953125 l 1
 327.759765625 609.330078125 l 2
 338.596892811 619.320875847 338.596892811 619.320875847 353.323608398 618.723999023 c 0
 368.050323985 618.1271222 368.050323985 618.1271222 378.040039062 607.290039062 c 0
376 272.33984375 m 1
 221.66015625 130.01953125 l 2
 211.428306732 120.578425749 211.428306732 120.578425749 197.512329102 120.588623047 c 0
 183.596351471 120.598820345 183.596351471 120.598820345 173.379882812 130.049804688 c 2
 96.4296875 201.219726562 l 2
 85.6143164815 211.225006808 85.6143164815 211.225006808 85.0397949219 225.951171875 c 0
 84.4652733622 240.677336942 84.4652733622 240.677336942 94.4697265625 251.5 c 0
 104.476625565 262.31712084 104.476625565 262.31712084 119.201171875 262.893554688 c 0
 133.925718185 263.469988535 133.925718185 263.469988535 144.75 253.459960938 c 2
 197.5703125 204.610351562 l 1
 327.759765625 324.66015625 l 2
 338.596892811 334.650953972 338.596892811 334.650953972 353.323608398 334.054077148 c 0
 368.050323985 333.457200325 368.050323985 333.457200325 378.040039062 322.620117188 c 0
 388.030836784 311.782990001 388.030836784 311.782990001 387.433959961 297.056274414 c 0
 386.837083138 282.329558827 386.837083138 282.329558827 376 272.33984375 c 1
EndSplineSet
EndChar

StartChar: uniE034
Encoding: 57396 57396 55
Width: 1024
Flags: H
LayerCount: 2
Fore
SplineSet
512 877.290039062 m 0
 466.08984375 877.290039062 466.08984375 877.290039062 433.629882812 844.830078125 c 0
 401.169921875 812.35486273 401.169921875 812.35486273 401.169921875 766.459960938 c 2
 401.169921875 655.629882812 l 1
 622.83984375 655.629882812 l 1
 622.83984375 766.459960938 l 2
 622.83984375 812.370117188 622.83984375 812.370117188 590.379882812 844.830078125 c 0
 557.919921875 877.290039062 557.919921875 877.290039062 512 877.290039062 c 0
337.830078125 766.459960938 m 2
 337.849609375 838.590392446 337.849609375 838.590392446 388.860351562 889.599609375 c 0
 439.869568492 940.610351562 439.869568492 940.610351562 512.009765625 940.610351562 c 0
 584.149414062 940.610351562 584.149414062 940.610351562 635.16015625 889.599609375 c 0
 686.169921875 838.591368979 686.169921875 838.591368979 686.169921875 766.450195312 c 2
 686.169921875 655.620117188 l 1
 828.669921875 655.620117188 l 2
 854.898903242 655.620117188 854.898903242 655.620117188 873.449451621 637.071544562 c 0
 892 618.522971937 892 618.522971937 892 592.290039062 c 2
 892 148.969726562 l 2
 892 122.740576531 892 122.740576531 873.451709272 104.190112484 c 0
 854.903418545 85.6396484375 854.903418545 85.6396484375 828.669921875 85.6396484375 c 2
 195.330078125 85.6396484375 l 2
 169.101096758 85.6396484375 169.101096758 85.6396484375 150.550548379 104.188221063 c 0
 132 122.736793688 132 122.736793688 132 148.969726562 c 2
 132 592.299804688 l 2
 132 618.528954719 132 618.528954719 150.548290728 637.079418766 c 0
 169.096581455 655.629882812 169.096581455 655.629882812 195.330078125 655.629882812 c 2
 337.830078125 655.629882812 l 1
 337.830078125 766.459960938 l 2
195.330078125 592.290039062 m 1
 195.330078125 148.959960938 l 1
 828.669921875 148.959960938 l 1
 828.669921875 592.290039062 l 1
 195.330078125 592.290039062 l 1
551.580078125 370.620117188 m 0
 551.580078125 354.224853516 551.580078125 354.224853516 539.987670898 342.632446289 c 0
 528.395263672 331.040039062 528.395263672 331.040039062 512 331.040039062 c 0
 495.604736328 331.040039062 495.604736328 331.040039062 484.012329102 342.632446289 c 0
 472.419921875 354.224853516 472.419921875 354.224853516 472.419921875 370.620117188 c 0
 472.419921875 387.015380859 472.419921875 387.015380859 484.012329102 398.607788086 c 0
 495.604736328 410.200195312 495.604736328 410.200195312 512 410.200195312 c 0
 528.395263672 410.200195312 528.395263672 410.200195312 539.987670898 398.607788086 c 0
 551.580078125 387.015380859 551.580078125 387.015380859 551.580078125 370.620117188 c 0
EndSplineSet
EndChar

StartChar: uniE035
Encoding: 57397 57397 56
Width: 1024
Flags: H
LayerCount: 2
Fore
SplineSet
512 877.8203125 m 0
 466.020507812 877.8203125 466.020507812 877.8203125 433.509765625 845.309570312 c 0
 401 812.784548333 401 812.784548333 401 766.8203125 c 2
 401 655.8203125 l 1
 829.120117188 655.8203125 l 2
 855.392729135 655.8203125 855.392729135 655.8203125 873.971266911 637.241379574 c 0
 892.549804688 618.662446649 892.549804688 618.662446649 892.549804688 592.389648438 c 2
 892.549804688 148.41015625 l 2
 892.549804688 122.137451172 892.549804688 122.137451172 873.971313477 103.558959961 c 0
 855.392822266 84.98046875 855.392822266 84.98046875 829.120117188 84.98046875 c 2
 194.870117188 84.98046875 l 2
 168.597412109 84.98046875 168.597412109 84.98046875 150.018920898 103.558959961 c 0
 131.440429688 122.137451172 131.440429688 122.137451172 131.440429688 148.41015625 c 2
 131.440429688 592.41015625 l 2
 131.440429688 618.682861328 131.440429688 618.682861328 150.018920898 637.261352539 c 0
 168.597412109 655.83984375 168.597412109 655.83984375 194.870117188 655.83984375 c 2
 337.580078125 655.83984375 l 1
 337.580078125 766.83984375 l 2
 337.580078125 839.080078125 337.580078125 839.080078125 388.669921875 890.169921875 c 0
 439.759765625 941.259765625 439.759765625 941.259765625 512 941.259765625 c 0
 584.240234375 941.259765625 584.240234375 941.259765625 635.330078125 890.169921875 c 0
 686.419921875 839.080078125 686.419921875 839.080078125 686.419921875 766.83984375 c 0
 686.419921875 753.707519531 686.419921875 753.707519531 677.131103516 744.418701172 c 0
 667.842285156 735.129882812 667.842285156 735.129882812 654.709960938 735.129882812 c 0
 641.577636719 735.129882812 641.577636719 735.129882812 632.288818359 744.418701172 c 0
 623 753.707519531 623 753.707519531 623 766.83984375 c 0
 623 812.80353051 623 812.80353051 590.490234375 845.330078125 c 0
 557.98046875 877.83984375 557.98046875 877.83984375 512 877.8203125 c 0
194.870117188 592.41015625 m 1
 194.870117188 148.4296875 l 1
 829.129882812 148.4296875 l 1
 829.129882812 592.41015625 l 1
 194.870117188 592.41015625 l 1
551.639648438 370.419921875 m 0
 551.639648438 354.002685547 551.639648438 354.002685547 540.028442383 342.391479492 c 0
 528.417236328 330.780273438 528.417236328 330.780273438 512 330.780273438 c 0
 495.582763672 330.780273438 495.582763672 330.780273438 483.971557617 342.391479492 c 0
 472.360351562 354.002685547 472.360351562 354.002685547 472.360351562 370.419921875 c 0
 472.360351562 386.837158203 472.360351562 386.837158203 483.971557617 398.448364258 c 0
 495.582763672 410.059570312 495.582763672 410.059570312 512 410.059570312 c 0
 528.417236328 410.059570312 528.417236328 410.059570312 540.028442383 398.448364258 c 0
 551.639648438 386.837158203 551.639648438 386.837158203 551.639648438 370.419921875 c 0
EndSplineSet
EndChar

StartChar: uniE036
Encoding: 57398 57398 57
Width: 1024
Flags: H
LayerCount: 2
Fore
SplineSet
149 561.5 m 0
 149 431.652587891 149 431.652587891 240.821411133 339.831176758 c 0
 332.642822266 248.009765625 332.642822266 248.009765625 462.490234375 248.009765625 c 0
 592.339332884 248.009765625 592.339332884 248.009765625 684.159900817 339.82835783 c 0
 775.98046875 431.646950035 775.98046875 431.646950035 775.98046875 561.5 c 0
 775.98046875 691.354736328 775.98046875 691.354736328 684.162719727 783.172485352 c 0
 592.344970703 874.990234375 592.344970703 874.990234375 462.490234375 874.990234375 c 0
 332.634934265 874.990234375 332.634934265 874.990234375 240.817467132 783.172569672 c 0
 149 691.354904968 149 691.354904968 149 561.5 c 0
462.490234375 940.990234375 m 0
 565.580055922 940.990234375 565.580055922 940.990234375 652.998529606 890.208501644 c 0
 740.417003289 839.426768914 740.417003289 839.426768914 791.198736019 752.008295231 c 0
 841.98046875 664.589821547 841.98046875 664.589821547 841.98046875 561.5 c 0
 841.98046875 423.230725588 841.98046875 423.230725588 753.16015625 317.51953125 c 1
 931.330078125 139.33984375 l 2
 940.997314453 129.679931641 940.997314453 129.679931641 940.997314453 116.013793945 c 0
 940.997314453 102.34765625 940.997314453 102.34765625 931.330078125 92.6796875 c 0
 921.670166016 83.0124511719 921.670166016 83.0124511719 908 83.0124511719 c 0
 894.329833984 83.0124511719 894.329833984 83.0124511719 884.669921875 92.6796875 c 2
 706.5 270.849609375 l 1
 600.785750135 182.009765625 600.785750135 182.009765625 462.490234375 182.009765625 c 0
 359.400412828 182.009765625 359.400412828 182.009765625 271.981939144 232.791498356 c 0
 184.563465461 283.573231086 184.563465461 283.573231086 133.781732731 370.991704769 c 0
 83 458.410178453 83 458.410178453 83 561.5 c 0
 83 664.589821547 83 664.589821547 133.781732731 752.008295231 c 0
 184.563465461 839.426768914 184.563465461 839.426768914 271.981939144 890.208501644 c 0
 359.400412828 940.990234375 359.400412828 940.990234375 462.490234375 940.990234375 c 0
EndSplineSet
EndChar

StartChar: uniE037
Encoding: 57399 57399 58
Width: 1024
Flags: H
LayerCount: 2
Fore
SplineSet
99.4599609375 391.26953125 m 1
 634.6796875 926.040039062 l 2
 642.600963796 931.882111594 642.600963796 931.882111594 649.139648438 934.620117188 c 2
 659.370117188 937.690429688 l 2
 668.945701656 940.01953125 668.945701656 940.01953125 676.01953125 940.01953125 c 0
 689.990680459 940.01953125 689.990680459 940.01953125 702.900390625 934.620117188 c 0
 715.708633397 929.266735422 715.708633397 929.266735422 725.5 919.370117188 c 2
 919.240234375 725.629882812 l 2
 929.245218068 715.715809293 929.245218068 715.715809293 934.599609375 702.919921875 c 0
 940 690.01289941 940 690.01289941 940 676.040039062 c 0
 940 662.067178715 940 662.067178715 934.599609375 649.16015625 c 1
 446.059570312 154.059570312 l 1
 884.809570312 154.059570312 l 2
 899.225190801 154.059570312 899.225190801 154.059570312 909.417771182 143.86738507 c 0
 919.610351562 133.675199827 919.610351562 133.675199827 919.610351562 119.259765625 c 0
 919.610351562 104.844895204 919.610351562 104.844895204 909.417686859 94.6524280706 c 0
 899.225022155 84.4599609375 899.225022155 84.4599609375 884.809570312 84.4599609375 c 2
 154.040039062 84.4599609375 l 2
 125.209960938 84.4599609375 125.209960938 84.4599609375 104.830078125 104.83984375 c 0
 84.4501953125 125.219726562 84.4501953125 125.219726562 84.4501953125 154.049804688 c 2
 84.4501953125 339.639648438 l 2
 84.4501953125 361.827442241 84.4501953125 361.827442241 92.669921875 379.559570312 c 0
 95.6524173362 386.002226524 95.6524173362 386.002226524 99.4599609375 391.26953125 c 1
348.419921875 154.040039062 m 1
 730.719726562 536.33984375 l 1
 532.5703125 726.950195312 l 1
 155.73046875 350.110351562 l 1
 154.040039062 154.040039062 l 1
 348.419921875 154.040039062 l 1
779.940429688 585.559570312 m 1
 870.400390625 676.009765625 l 1
 674.490234375 868.860351562 l 1
 581.790039062 776.16015625 l 1
 779.940429688 585.559570312 l 1
EndSplineSet
EndChar

StartChar: uniE038
Encoding: 57400 57400 59
Width: 1024
Flags: H
LayerCount: 2
Fore
SplineSet
259.08984375 862.1796875 m 0
 218.800048828 862.1796875 218.800048828 862.1796875 190.310180664 833.689819336 c 0
 161.8203125 805.199951172 161.8203125 805.199951172 161.8203125 764.91015625 c 0
 161.8203125 724.620268193 161.8203125 724.620268193 190.310227231 696.129958315 c 0
 218.800141962 667.639648438 218.800141962 667.639648438 259.08984375 667.639648438 c 0
 299.379638672 667.639648438 299.379638672 667.639648438 327.869995117 696.130004883 c 0
 356.360351562 724.620361328 356.360351562 724.620361328 356.360351562 764.91015625 c 0
 356.360351562 805.199858038 356.360351562 805.199858038 327.870041685 833.689772769 c 0
 299.379731807 862.1796875 299.379731807 862.1796875 259.08984375 862.1796875 c 0
84 764.91015625 m 0
 84 837.435302734 84 837.435302734 135.282348633 888.717651367 c 0
 186.564697266 940 186.564697266 940 259.08984375 940 c 0
 331.614990234 940 331.614990234 940 382.897338867 888.717651367 c 0
 434.1796875 837.435302734 434.1796875 837.435302734 434.1796875 764.91015625 c 0
 434.1796875 692.385009766 434.1796875 692.385009766 382.897338867 641.102661133 c 0
 331.614990234 589.8203125 331.614990234 589.8203125 259.08984375 589.8203125 c 0
 186.564697266 589.8203125 186.564697266 589.8203125 135.282348633 641.102661133 c 0
 84 692.385009766 84 692.385009766 84 764.91015625 c 0
889.690429688 834.669921875 m 2
 189.330078125 134.309570312 l 2
 177.937255859 122.91015625 177.937255859 122.91015625 161.818603516 122.91015625 c 0
 145.699951172 122.91015625 145.699951172 122.91015625 134.299804688 134.309570312 c 0
 122.907714844 145.709716797 122.907714844 145.709716797 122.907714844 161.823486328 c 0
 122.907714844 177.937255859 122.907714844 177.937255859 134.299804688 189.330078125 c 2
 834.669921875 889.690429688 l 2
 846.070068359 901.082519531 846.070068359 901.082519531 862.183837891 901.082519531 c 0
 878.297607422 901.082519531 878.297607422 901.082519531 889.690429688 889.690429688 c 0
 901.08984375 878.297607422 901.08984375 878.297607422 901.08984375 862.178955078 c 0
 901.08984375 846.060302734 901.08984375 846.060302734 889.690429688 834.669921875 c 2
667.629882812 259.08984375 m 0
 667.629882812 218.799973326 667.629882812 218.799973326 696.119910798 190.310142913 c 0
 724.609938784 161.8203125 724.609938784 161.8203125 764.900390625 161.8203125 c 0
 805.190185547 161.8203125 805.190185547 161.8203125 833.680053711 190.310180664 c 0
 862.169921875 218.800048828 862.169921875 218.800048828 862.169921875 259.08984375 c 0
 862.169921875 299.379731807 862.169921875 299.379731807 833.680007144 327.870041685 c 0
 805.190092413 356.360351562 805.190092413 356.360351562 764.900390625 356.360351562 c 0
 724.610031918 356.360351562 724.610031918 356.360351562 696.119957365 327.870079436 c 0
 667.629882812 299.37980731 667.629882812 299.37980731 667.629882812 259.08984375 c 0
764.900390625 434.1796875 m 0
 837.424973327 434.1796875 837.424973327 434.1796875 888.707603851 382.897254548 c 0
 939.990234375 331.614821596 939.990234375 331.614821596 939.990234375 259.08984375 c 0
 939.990234375 186.564865904 939.990234375 186.564865904 888.707603851 135.282432952 c 0
 837.424973327 84 837.424973327 84 764.900390625 84 c 0
 692.375151003 84 692.375151003 84 641.092360658 135.282395201 c 0
 589.809570312 186.564790402 589.809570312 186.564790402 589.809570312 259.08984375 c 0
 589.809570312 331.614897098 589.809570312 331.614897098 641.092360658 382.897292299 c 0
 692.375151003 434.1796875 692.375151003 434.1796875 764.900390625 434.1796875 c 0
EndSplineSet
EndChar

StartChar: uniE039
Encoding: 57401 57401 60
Width: 1024
Flags: H
LayerCount: 2
Fore
SplineSet
253.509765625 907.620117188 m 2
 770.48046875 907.620117188 l 2
 783.860427078 907.620117188 783.860427078 907.620117188 793.32523307 898.155113609 c 0
 802.790039062 888.69011003 802.790039062 888.69011003 802.790039062 875.309570312 c 2
 802.790039062 746.0703125 l 1
 846.009765625 746.0703125 l 2
 887.219494773 746.0703125 887.219494773 746.0703125 917.709845043 718.10653997 c 0
 948.200195312 690.142767439 948.200195312 690.142767439 948.200195312 649.139648438 c 2
 948.200195312 326.030273438 l 2
 948.200195312 312.650222 948.200195312 312.650222 938.735145182 303.184974281 c 0
 929.270095051 293.719726562 929.270095051 293.719726562 915.889648438 293.719726562 c 2
 802.799804688 293.719726562 l 1
 802.799804688 148.3203125 l 2
 802.799804688 134.940336582 802.799804688 134.940336582 793.334914386 125.475051103 c 0
 783.870024085 116.009765625 783.870024085 116.009765625 770.490234375 116.009765625 c 2
 253.509765625 116.009765625 l 2
 240.129975915 116.009765625 240.129975915 116.009765625 230.665085614 125.475051103 c 0
 221.200195312 134.940336582 221.200195312 134.940336582 221.200195312 148.3203125 c 2
 221.200195312 293.719726562 l 1
 108.110351562 293.719726562 l 2
 94.7299049495 293.719726562 94.7299049495 293.719726562 85.2648548185 303.184974281 c 0
 75.7998046875 312.650222 75.7998046875 312.650222 75.7998046875 326.030273438 c 2
 75.7998046875 649.139648438 l 2
 75.7998046875 690.136379993 75.7998046875 690.136379993 106.289504157 718.103346246 c 0
 136.779203626 746.0703125 136.779203626 746.0703125 177.98046875 746.0703125 c 2
 221.200195312 746.0703125 l 1
 221.200195312 875.309570312 l 2
 221.200195312 888.69011003 221.200195312 888.69011003 230.665001305 898.155113609 c 0
 240.129807297 907.620117188 240.129807297 907.620117188 253.509765625 907.620117188 c 2
177.98046875 681.440429688 m 2
 161.59852319 681.450195312 161.59852319 681.450195312 151.009222533 671.447536994 c 0
 140.419921875 661.444878676 140.419921875 661.444878676 140.419921875 649.139648438 c 2
 140.419921875 358.330078125 l 1
 221.200195312 358.330078125 l 1
 221.200195312 422.950195312 l 2
 221.200195312 436.330078125 221.200195312 436.330078125 230.665039062 445.794921875 c 0
 240.129882812 455.259765625 240.129882812 455.259765625 253.509765625 455.259765625 c 2
 770.490234375 455.259765625 l 2
 783.870117188 455.259765625 783.870117188 455.259765625 793.334960938 445.794921875 c 0
 802.799804688 436.330078125 802.799804688 436.330078125 802.799804688 422.950195312 c 2
 802.799804688 358.330078125 l 1
 883.580078125 358.330078125 l 1
 883.580078125 649.129882812 l 2
 883.580078125 661.436774024 883.580078125 661.436774024 872.993639066 671.438601856 c 0
 862.407200006 681.440429688 862.407200006 681.440429688 846.01953125 681.440429688 c 2
 177.98046875 681.440429688 l 2
285.8203125 746.059570312 m 1
 738.1796875 746.059570312 l 1
 738.1796875 842.990234375 l 1
 285.8203125 842.990234375 l 1
 285.8203125 746.059570312 l 1
285.8203125 390.639648438 m 1
 285.8203125 180.620117188 l 1
 738.1796875 180.620117188 l 1
 738.1796875 390.639648438 l 1
 285.8203125 390.639648438 l 1
794.719726562 568.349609375 m 0
 794.719726562 551.617431641 794.719726562 551.617431641 782.890991211 539.788696289 c 0
 771.062255859 527.959960938 771.062255859 527.959960938 754.330078125 527.959960938 c 0
 737.597336616 527.959960938 737.597336616 527.959960938 725.768883152 539.788611964 c 0
 713.940429688 551.617262991 713.940429688 551.617262991 713.940429688 568.349609375 c 0
 713.940429688 585.082612691 713.940429688 585.082612691 725.768845406 596.911423533 c 0
 737.597261125 608.740234375 737.597261125 608.740234375 754.330078125 608.740234375 c 0
 771.062331352 608.740234375 771.062331352 608.740234375 782.891028957 596.911339206 c 0
 794.719726562 585.082444038 794.719726562 585.082444038 794.719726562 568.349609375 c 0
EndSplineSet
EndChar

StartChar: uniE03A
Encoding: 57402 57402 61
Width: 1024
Flags: H
LayerCount: 2
Fore
SplineSet
503.580078125 938.950195312 m 0
 518.069517736 934.531050145 518.069517736 934.531050145 528.759765625 923.809570312 c 2
 924.01953125 528.549804688 l 2
 932.607201297 520.114194124 932.607201297 520.114194124 937.290039062 508.990234375 c 0
 942.009765625 497.810612896 942.009765625 497.810612896 942.009765625 485.629882812 c 0
 942.009765625 473.484253581 942.009765625 473.484253581 937.290039062 462.26953125 c 0
 932.624650089 451.168153874 932.624650089 451.168153874 924.030273438 442.709960938 c 2
 581.5 100.1796875 l 2
 573.0502616 91.5939015093 573.0502616 91.5939015093 561.940429688 86.91015625 c 0
 550.734123884 82.2001953125 550.734123884 82.2001953125 538.580078125 82.2001953125 c 0
 526.426032366 82.2001953125 526.426032366 82.2001953125 515.219726562 86.91015625 c 0
 504.110944146 91.5928351157 504.110944146 91.5928351157 495.66015625 100.1796875 c 2
 100.41015625 495.419921875 l 2
 89.6929093626 506.12230228 89.6929093626 506.12230228 85.259765625 520.610351562 c 0
 80.829461046 535.087635452 80.829461046 535.087635452 83.740234375 549.959960938 c 0
 144.73046875 855.690429688 l 2
 148.67608275 875.503958429 148.67608275 875.503958429 168.509765625 879.469726562 c 2
 474.129882812 940.440429688 l 2
 475.983383206 940.822624342 475.983383206 940.822624342 477.940429688 940.959960938 c 0
 478.059570312 940.98046875 l 1
 478.75 941.009765625 l 2
 479.892874053 941.066909328 479.892874053 941.066909328 480.400390625 941.08984375 c 0
 482.804986769 941.200195312 482.804986769 941.200195312 485.6796875 941.200195312 c 0
 496.347272748 941.164883875 496.347272748 941.164883875 503.580078125 938.950195312 c 0
200.190429688 824 m 1
 143.200195312 538.3203125 l 1
 538.5703125 142.950195312 l 1
 881.25 485.629882812 l 1
 486.280273438 880.599609375 l 2
 484.555175781 880.599609375 484.555175781 880.599609375 483.759765625 880.5703125 c 2
 200.190429688 824 l 1
371.370117188 690.690429688 m 0
 371.370117188 675.001610717 371.370117188 675.001610717 360.277294798 663.910961608 c 0
 349.184472408 652.8203125 349.184472408 652.8203125 333.5 652.8203125 c 0
 317.817382812 652.8203125 317.817382812 652.8203125 306.723632812 663.9140625 c 0
 295.629882812 675.0078125 295.629882812 675.0078125 295.629882812 690.690429688 c 0
 295.629882812 706.37238997 295.629882812 706.37238997 306.723670572 717.465980141 c 0
 317.817458331 728.559570312 317.817458331 728.559570312 333.5 728.559570312 c 0
 349.182541669 728.559570312 349.182541669 728.559570312 360.276329428 717.465980141 c 0
 371.370117188 706.37238997 371.370117188 706.37238997 371.370117188 690.690429688 c 0
EndSplineSet
EndChar

